<svg id="_Layer_" data-name="&lt;Layer&gt;" xmlns="http://www.w3.org/2000/svg" xmlns:xlink="http://www.w3.org/1999/xlink" viewBox="0 0 2088.67 1839.46">
  <defs>
    <linearGradient id="linear-gradient" x1="1432.26" y1="1091.79" x2="2348.54" y2="1091.79" gradientUnits="userSpaceOnUse">
      <stop offset="0" stop-color="#902373"/>
      <stop offset="0.73" stop-color="#54326b"/>
      <stop offset="1" stop-color="#3c3f69"/>
    </linearGradient>
  </defs>
  <title>header_news</title>
  <g>
    <g>
      <ellipse cx="1007.87" cy="1754.37" rx="1007.87" ry="59.47" style="fill: #ca72ad"/>
      <g>
        <path d="M2216.68,1721.76c-70,0-156.76-15.7-231.93-76.08-144.76-116.32-86.1-113.09-190.37-117.74-97-4.32-188.87-16.35-252.66-94.53-97.71-119.74-36.66-259.86,62.84-379.14a225.17,225.17,0,0,1-129.87-53.54C1326.54,875,1612.9,478.63,1625.16,461.82l7.73,5.62c-3,4-293.44,406-152,526,40.79,34.61,87.45,49.09,132,51C1649,1002.74,1753.53,895.8,1792.72,935c46.63,46.63-67.43,123.26-176.21,119.94-99.38,116.64-164.28,253.71-67.38,372.46,60.22,73.82,154.47,86.63,220.11,89.84,143.85,7,66.12-3.8,221.5,121,151.67,121.85,352.76,56.7,354.78,56l3,9.05C2347.48,1703.67,2291.78,1721.75,2216.68,1721.76Zm-591.27-677.08c104-.87,194.79-68.72,160.55-103C1754.6,910.35,1654.86,1011.51,1625.41,1044.67Z" transform="translate(-259.87 -42.05)" style="fill: url(#linear-gradient)"/>
        <g>
          <g>
            <path d="M1724.48,393.44c.68-3.93-4.15-17.71-8.41-15.83s1.55,9.64-3.85,19-31.16-12.54-34.25-11.18c-4.47,2-3.57,4.66-8.36,6.77s-8.53,9.48-11.12,21.27.25,36.25-3,44.68c-.62,1.6-1.18,14.72-6.77,27.65,7.94,4,20.64,10.95,30.55,8.47,3.46-18.58,10.14-29.48,23.81-45.64C1719.36,429.37,1724.48,393.44,1724.48,393.44Z" transform="translate(-259.87 -42.05)" style="fill: #f15f5c"/>
            <path d="M1641.76,471.15c-10.41,12.69-29.26-4.06-17.75-15.89,124.13-127.71,117.76-122.55,122.22-118.19C1752.13,342.83,1745.21,342.2,1641.76,471.15Z" transform="translate(-259.87 -42.05)" style="fill: #555799"/>
            <rect x="1677.62" y="349.93" width="51.16" height="57.72" transform="translate(468.34 -1110.24) rotate(43.49)" style="fill: #cfcc2a"/>
            <rect x="1720.49" y="370.72" width="9.26" height="57.72" transform="translate(2441.93 1834.62) rotate(-136.51)" style="fill: #b0af35"/>
            <path d="M1728.16,358.74h0a25.87,25.87,0,0,1-4.71-36.17L1742.32,298a25.87,25.87,0,0,1,36.17-4.71h0a25.87,25.87,0,0,1,4.71,36.17L1764.34,354A25.87,25.87,0,0,1,1728.16,358.74Z" transform="translate(-259.87 -42.05)" style="fill: #47555d"/>
            <path d="M1742.42,352.47a25.87,25.87,0,0,1-4.71-36.17l18.87-24.53a25.62,25.62,0,0,1,3.38-3.61,25.73,25.73,0,0,0-17.64,9.87l-18.87,24.53a25.79,25.79,0,0,0,37.5,35.07A25.7,25.7,0,0,1,1742.42,352.47Z" transform="translate(-259.87 -42.05)" style="fill: #333"/>
            <path d="M1681,385s17.66,38.8,10.09,42.14-19-35-19-35,15.31,35.64,9.1,38.38S1661.55,403,1661.55,403s15.38,28.81,10.35,29.49-13.68-20.92-13.68-20.92.18-6.75,2.35-10,1.47-5.26,3-7.23,5.61-4.19,7.34-5S1676.2,380.81,1681,385Z" transform="translate(-259.87 -42.05)" style="fill: #f37575"/>
          </g>
          <path d="M1815.22,367c-14.1,6-58.44,79.3-73.24,129.87-8.56,29.26-24.71,59.46-34.21,67.36h0c-6.4,3.59-13.67,4.39-16-7.65-4.46-22.69-8.14-54.3-9.67-71.74-14-.79-27.58-5.18-41.53-4.11,1.21,66.19,8.5,160.36,33.52,163.42,13,1.59,40.33-12.29,60.81-36.68,26-30.95,47.73-69.4,47.73-69.4l46.46-147.19S1829.33,361,1815.22,367Z" transform="translate(-259.87 -42.05)" style="fill: #131537"/>
          <polygon points="1685.81 1701.72 1684.88 1758.87 1691.25 1759.06 1699.44 1693.91 1685.81 1701.72" style="fill: #1d1c22"/>
          <g>
            <path d="M1901.7,1241.25s6.81,89.36,17.75,116.06-8.62,379.62-17.91,408.09a86.81,86.81,0,0,1-7.73,16.89c-10.14,17.35-12.44,20.88,1.15,20.93,17.47.06,32.77-3.27,36.16-10.42,5.86-12.34,11-54.89,23-54.85,0,0,8.17-15.86,6.13-24.21-3.06-12.56-11.61-6.11-11.55-23.57s57.94-282.94,48.87-321.58-15.48-43.26-15.33-89.22S1901.7,1241.25,1901.7,1241.25Z" transform="translate(-259.87 -42.05)" style="fill: #f37575"/>
            <path d="M1862.21,1147.67s-65.18,124.21-61,161,17.92,66.49,6.11,116.71S1702,1657.68,1699.79,1691c-.94,14,3.34,15.35,3.34,15.35-.19,24.19-7.73,50.1-12.76,55.09-6.46,6.42-13.73,38.29-19.86,38.27s-57.91,5.52-57.91,5.52c-1.34-11.81,14.51-2.33,23.78-26.81s14.91-61.24,26.72-110.84,60.25-275.94,60.42-328-4.61-52.35,3.47-86.64,38.32-98.54,38.32-98.54Z" transform="translate(-259.87 -42.05)" style="fill: #f15f5c"/>
            <path d="M1801.2,1308.66c-4.17-36.78,61-161,61-161l-96.89,6.68s-30.24,64.25-38.32,98.54c-5.93,25.16-4.93,32-4.05,54.42,18.52,4,47.33,9.8,80.24,15.11C1802.42,1317.91,1801.73,1313.34,1801.2,1308.66Z" transform="translate(-259.87 -42.05)" style="fill: #e85553"/>
            <path d="M1982.23,1279.37c.15-46-80.52-38.13-80.52-38.13s4.34,57,11.66,93.54c27.3,1.31,53.1.78,74.38-2.74C1984.23,1318.6,1982.14,1305.85,1982.23,1279.37Z" transform="translate(-259.87 -42.05)" style="fill: #f15f5c"/>
          </g>
          <path d="M1794.16,721.88s-11.35,175-19.93,216.63-57.6,337.06-57.6,337.06,215.45,18.38,268.15,0c0,0,8.85-379-3.56-427.76s-66.66-137.38-66.66-137.38Z" transform="translate(-259.87 -42.05)" style="fill: #5c1145"/>
          <path d="M1815.22,367s30.19-23.23,132.42-.15c2.78.63,5.33,111.57,5.33,111.57s-47.44,185.68-38.41,232c0,0-54.23,45.76-135.12,5.92,0,0,10.51-145.82,3.16-178.3s-22-61.93-1.2-95.64S1815.22,367,1815.22,367Z" transform="translate(-259.87 -42.05)" style="fill: #e469a6"/>
          <path d="M1815.22,367s30.19-23.23,132.42-.15c2.78.63,5.33,111.57,5.33,111.57s-47.44,185.68-38.41,232c0,0-54.23,45.76-135.12,5.92,0,0,10.51-145.82,3.16-178.3s-22-61.93-1.2-95.64S1815.22,367,1815.22,367Z" transform="translate(-259.87 -42.05)" style="fill: #25275a"/>
          <path d="M1952.36,755.68c1.66-1.66,16.15-23,19.25-19.91s-12.83,22.79-12.83,22.79,18.47-18.7,22.12-15-24.69,28.9-27.67,28.9S1952.36,755.68,1952.36,755.68Z" transform="translate(-259.87 -42.05)" style="fill: #f15f5c"/>
          <path d="M1927.33,734.59s-7.81,11.92-2.06,17.68,2.67,11.72,6.58,15.62,21.38,4.52,21.38,4.52a120,120,0,0,1,9.87-36.18c1.6-3.58,6.7-10.61,14-19.84a236,236,0,0,0-24.13-13.81C1938.48,721.34,1927.59,734.12,1927.33,734.59Z" transform="translate(-259.87 -42.05)" style="fill: #f37575"/>
          <path d="M1947.61,367s-10.14,80.58,0,102.79c9.87,21.61,67.56,46.54,77.46,90.31,7.39,32.7-40.77,101.72-72.15,142.46,7.85,7.85,20.57,20.84,28.3,25.93,31.94-40.64,101.56-136.35,103.57-158.8C2087.26,542.14,1990.49,364.14,1947.61,367Z" transform="translate(-259.87 -42.05)" style="fill: #5e5da8"/>
          <path d="M1947.61,367c-1.53,18.79-2.73,36.79-3.09,56-.32,33.85,1.72,44.53,9.19,53,17.35,20.11,63.76,44.66,71.36,84.12-10.8-39.12-55.71-60.89-73.84-82-6.84-7.88-8.17-16.31-9-27C1940.38,426.1,1943.78,392.16,1947.61,367Z" transform="translate(-259.87 -42.05)" style="fill: #828ac3"/>
          <path d="M1949.94,1699.24c-5.37,31.95-26.48,95.09-38.74,95.09-16.55,0-17.51-.88-17.39-12-10.14,17.34-21.62,26.21-8,26.26,17.47.06,44.71,1.21,48.1-5.94,5.85-12.35,9.19-59.12,21.14-59.08l-3.9,57.58,6.34.18s9.67-79.28,7.63-87.2C1962.29,1703.22,1953.31,1701.2,1949.94,1699.24Z" transform="translate(-259.87 -42.05)" style="fill: #3a3745"/>
          <path d="M1628.89,1789.65c-12.17,11.31-30.69,9-29.62,18.46,0,0,67.05-2.65,73.18-2.63s11.46-37.65,17.92-44.07,2.3,44.13,2.3,44.13l6.61,0s4.6-52.08,10.79-72.28c4.93-16.09-2-22.89-6.94-27C1682.88,1744.73,1679.57,1798.84,1628.89,1789.65Z" transform="translate(-259.87 -42.05)" style="fill: #3a3745"/>
          <g>
            <path d="M1917.23,219.1s41.13,7.5,41.13,36.67-6.31,16-12.92,36.83-.47,38.65-28.2,38.65-22.93,1.81-36.76,10.23-41.13-5.71-44.08-35.78,47.78-28,47.78-49.92S1917.23,219.1,1917.23,219.1Z" transform="translate(-259.87 -42.05)" style="fill: #3c1247"/>
            <path d="M1836.39,288.51s14,20.59,12.31,44.17c-.94,12.76-3.36,28.79-7.18,38.12-4,9.79-1.24,18,8.46,22a27.28,27.28,0,0,0,20.5.57c11.91-4.57,30-13.05,35.48-26.34,3.68-8.89-29.6-109.47-29.6-109.47Z" transform="translate(-259.87 -42.05)" style="fill: #f37575"/>
            <path d="M1836.39,288.51l40-31s3.91,11.83,8.9,27.72c-9.38,14.19-21.84,27.91-37.29,33.23A83.23,83.23,0,0,0,1836.39,288.51Z" transform="translate(-259.87 -42.05)" style="fill: #f15f5c"/>
            <path d="M1808.26,153.3a46,46,0,0,0-16.93,26.06c-4,17.31,6.16,37.84,5.09,52.6s21,87.15,56,73.15,43.12-68.82,44-80.82-19.59-53.65-39-64.88S1808.26,153.3,1808.26,153.3Z" transform="translate(-259.87 -42.05)" style="fill: #f37575"/>
            <g>
              <path d="M1821.2,226.53a242.82,242.82,0,0,1-3.37,29.66,17.41,17.41,0,0,0,10.42,1.75c-5.67,2.41-11.73-.77-12.1-.83C1817.15,249.49,1818.08,239.29,1821.2,226.53Z" transform="translate(-259.87 -42.05)" style="fill: #501f5e"/>
              <path d="M1837.33,211.61s6.86-5.34,14.94-6.28,19.23,8.44,19.23,8.44-12.23-7.05-17.61-6.21-10.64,4.43-10.64,4.43Z" transform="translate(-259.87 -42.05)" style="fill: #501f5e"/>
              <path d="M1817.91,211.83s-6-5.34-12.86-6.31-15.71,8.36-15.71,8.36,9.91-7,14.46-6.13,9.15,4.45,9.15,4.45Z" transform="translate(-259.87 -42.05)" style="fill: #501f5e"/>
              <path d="M1845.31,271.69c-17.37,6.53-23.84,6.07-29.83,4.75C1824.09,283.38,1838.85,279.36,1845.31,271.69Z" transform="translate(-259.87 -42.05)" style="fill: #fff"/>
              <path d="M1842.54,223.63c.7,2.82,3.25,4.62,5.71,4s3.89-3.39,3.2-6.22-3.25-4.62-5.72-4S1841.84,220.81,1842.54,223.63Z" transform="translate(-259.87 -42.05)" style="fill: #501f5e"/>
              <path d="M1863.39,224.5c-18.39-16.24-24-2.82-29.57-1.46,4.6-.09,9.42-5.5,14.56-4.59C1852.58,219.16,1859.06,222.47,1863.39,224.5Z" transform="translate(-259.87 -42.05)" style="fill: #42124a"/>
              <path d="M1804,225.65c.66,2.83,2.75,4.71,4.67,4.2s3-3.22,2.3-6.05-2.75-4.71-4.67-4.2S1803.31,222.82,1804,225.65Z" transform="translate(-259.87 -42.05)" style="fill: #501f5e"/>
              <path d="M1818.51,226.49c-14.84-15.54-20-2-24.64-.48,3.85-.24,8-5.78,12.3-5C1809.66,221.54,1815,224.62,1818.51,226.49Z" transform="translate(-259.87 -42.05)" style="fill: #42124a"/>
              <path d="M1843.72,251.24c1.19,4.85,7.3,7.5,13.65,5.93s10.53-6.78,9.33-11.63-7.3-7.5-13.65-5.93S1842.52,246.39,1843.72,251.24Z" transform="translate(-259.87 -42.05)" style="fill: #f15f5c"/>
            </g>
            <path d="M1806.45,153c2-5.7,10-22.22,34.76-23.77.82-.07,1.64-.12,2.46-.15,15.2-.62,30.47-2.27,45.52,1.1a57.59,57.59,0,0,1,24.58,11.78c8.5,7.25,16.61,15.57,17.73,26.31,2,19.64-7,41.09-.45,60l.14.41a41.24,41.24,0,0,1-22.53,51.83c-11.55,4.91-21,6.52-27.25-3.86.9-10.67,27.23-47.69,5.08-72.91-1.69,1.22-2.75,12.74-6.7,12.85-9.58.27-15.82-20.54-16.92-29.22-1.89-8.31-6.77-16.21-16.82-23.5-12.7-8.14-22.32-10.32-29-10.5a60.09,60.09,0,0,0-6.83.54c-2.4.46-3.85,1-4.37,1A6.19,6.19,0,0,1,1806.45,153Z" transform="translate(-259.87 -42.05)" style="fill: #501f5e"/>
            <path d="M1816.7,140.71s-19-1.39-34,11.68-12.83,60.06-3.62,69.1-28.19,24.87-7.33,24.93C1801.31,246.5,1835.18,144.11,1816.7,140.71Z" transform="translate(-259.87 -42.05)" style="fill: #501f5e"/>
            <path d="M1811.48,147.72c-27.94,1.32-43.58,25.45-34.28,48.4,1.59,3.88,4,7.73,8,8.86l1.14-5.8c-1.53-.06-3.76-3.78-4.45-5.17C1772,174.2,1785.06,151,1811.48,147.72Z" transform="translate(-259.87 -42.05)" style="fill: #6d2a81"/>
            <path d="M1879.68,212.47s1.64-14.87,13.47-10.72,6.89,40.32-3.56,36.78S1879.68,212.47,1879.68,212.47Z" transform="translate(-259.87 -42.05)" style="fill: #f37575"/>
            <path d="M1882.29,219.67s1.45-16.15,7.35-11.87,6.49,20.1.33,21.08S1882.29,219.67,1882.29,219.67Z" transform="translate(-259.87 -42.05)" style="fill: #f15f5c"/>
          </g>
        </g>
      </g>
      <g>
        <g>
          <path d="M854.1,324.67s.36,94.74,16.36,136.66c0,0,69.89,38.22,86.85,16.62L927.92,368.19Z" transform="translate(-259.87 -42.05)" style="fill: #e56261"/>
          <path d="M854.1,324.67l73.82,43.52,14.91,55.69c-26.34,6.48-62.2-25.6-78.77-71.37a134.35,134.35,0,0,0-9.87-21.2C854.1,327.08,854.1,324.67,854.1,324.67Z" transform="translate(-259.87 -42.05)" style="fill: #cb5e5e"/>
          <path d="M932.79,212.82a16.29,16.29,0,0,1,4,4c7,9,17.17,31,18.38,59.38,1.48,34.54,7.51,106.62-17.2,113.91s-67.69-16.57-82.18-55.83S818.4,280,824,244.92,932.79,212.82,932.79,212.82Z" transform="translate(-259.87 -42.05)" style="fill: #e56261"/>
          <path d="M824,244.92c5.62-35.09,108.77-32.1,108.77-32.1a16.29,16.29,0,0,1,4,4c7,9,17.17,31,18.38,59.38.2,4.61.48,9.88.76,15.58-13.64-4.95-26.32-17.85-38.94-34.07-1.68-1.19-18.79-25.1-42.92-27.54-40.59-5.36-10.11,16.61-14.89,43.65,13.3,48,5.54,58.06-3.21,61.48-2.14-3.83,1.37,3.19-.18-1C841.34,295,818.4,280,824,244.92Z" transform="translate(-259.87 -42.05)" style="fill: #cb5e5e"/>
          <path d="M864,282.09s3.19-21.16,9.13-33,.95-18.94.95-18.94,32.87-3.48,48.74,16.71,36.58,50.62,66.49,25.47,9.76-71.29,1.74-68.93-17.47-2.62-17.47-2.62-41.59-35.15-57-30.62-6.43-14.43-33.75-11-40.63,34.53-40.63,34.53-15.36-10.23-31.39,9.26,8.85,69.69,21.39,86.2,22,46.76,22,46.76S879.43,334.3,864,282.09Z" transform="translate(-259.87 -42.05)" style="fill: #2b337c"/>
          <path d="M847.57,277.34c0-10.46,11.52-15.06,18.78-7.69,6,6.1,10.94,14.36,6.6,23-8.68,17.33-24.46,5.67-25.31-12C847.59,279.52,847.57,278.4,847.57,277.34Z" transform="translate(-259.87 -42.05)" style="fill: #e56261"/>
          <path d="M872.78,282.23c-1.46-3.85-8.88-14.09-13.56-8.44S854,295,864.46,295,874.19,285.93,872.78,282.23Z" transform="translate(-259.87 -42.05)" style="fill: #cb5e5e"/>
          <path d="M935.54,337.43l14-4.14-10.83-36.71a1.4,1.4,0,1,0-2.67.79l10,33.85-11.35,3.35a1.5,1.5,0,0,0,.84,2.86Z" transform="translate(-259.87 -42.05)" style="fill: #2b3278"/>
          <ellipse cx="919.3" cy="297.27" rx="6" ry="7.83" transform="translate(-306.42 230.32) rotate(-16.44)" style="fill: #2b3278"/>
          <ellipse cx="949.12" cy="293.26" rx="5.11" ry="7.21" transform="translate(-304.06 238.43) rotate(-16.43)" style="fill: #2b3278"/>
          <path d="M934.1,367.55a18.55,18.55,0,0,0,4.52-1.95,1.43,1.43,0,0,0,.35-1.92,1.33,1.33,0,0,0-1.82-.45c-.47.35-11.56,7.49-26-3.74a1.26,1.26,0,0,0-1.83.27,1.48,1.48,0,0,0,.33,2C920,369.74,929,369.06,934.1,367.55Z" transform="translate(-259.87 -42.05)" style="fill: #2b3278"/>
          <path d="M924.23,275.73s-8.68-5.21-16.69-2.85-11.27,14.21-11.27,14.21,3.62-9.88,10.93-10.48,18.44,3.89,18.44,3.89Z" transform="translate(-259.87 -42.05)" style="fill: #2b3278"/>
        </g>
        <path d="M1032.47,462.24s89.47,53.52,116.63,80.68,42.34,71.1,11.18,115-105.45,13.58-122.23-14.38S1032.47,462.24,1032.47,462.24Z" transform="translate(-259.87 -42.05)" style="fill: #f2782b"/>
        <path d="M882,1095.45s31.78,216.61,52,283.71c14,46.37,40.51,326.47,40.51,326.47l19.06.06c1.06,22.52,1.31,42.13,1.31,42.13s40.47,3.75,63.91,10.14,60.71,8.52,60.71,0-83.88-37.15-83.88-56.32-4.53-776.07-4.53-776.07L919.3,909.05Z" transform="translate(-259.87 -42.05)" style="fill: #0e0e0e"/>
        <path d="M970.16,925.56,935.81,1051s-110.24,269.21-122.22,309.15S714.8,1771.8,714.8,1771.8H703.08s10.65,57.52,10.65,72.43-23.43,37.28-23.43,37.28-28.76-26.63-28.76-68.17v-46.87l-9.58-4.26L686,1357.47s55.38-288.65,72.42-322.73,34.09-109.17,34.09-109.17Z" transform="translate(-259.87 -42.05)" style="fill: #4a4a5b"/>
        <path d="M933.83,1055.82c-128.49,333.73-114.25,299.25-127.22,352.1-48.45,194.82-72.55,293.52-91.82,363.88C794.26,1363.06,824.75,1298.86,933.83,1055.82Z" transform="translate(-259.87 -42.05)" style="fill: #828ac3"/>
        <path d="M738.5,452.65s153.38-22.37,294,9.59c0,0,28.05,148.58,10,266.81s-3.64,209.29-3.64,209.29-195.72,6.39-258.82-8c0,0,28.76-115.83,18.37-199.71S725.71,695.5,738.5,452.65Z" transform="translate(-259.87 -42.05)" style="fill: #f1a97e"/>
        <path d="M1032.47,462.24c51.07,220-8.16,289.54,6.39,476.11C1008.2,777.25,1064.62,735.38,1032.47,462.24Z" transform="translate(-259.87 -42.05)" style="fill: #f6f0ca"/>
        <path d="M705.71,1229.78s34.12,5.73,44.77,16.38-16.78,132.34-30.89,146.45c-7.06,7.06-15.84,10.12-24.8,11-13.75,1.28-25-11.11-23.62-24.86l9-92.61Z" transform="translate(-259.87 -42.05)" style="fill: #32323f"/>
        <path d="M749.2,1292.88l-82.33-5.71s.47-57.39,38.84-57.39,47.17,16.92,47.17,16.92Z" transform="translate(-259.87 -42.05)" style="fill: #575767"/>
        <path d="M738.5,452.65S691.36,481.94,686,549s18.39,172.55,50.74,187.46S827.7,666.21,837.28,646s-49-107.58-69.23-96.92-24.75,52-24.75,52S765.39,452.65,738.5,452.65Z" transform="translate(-259.87 -42.05)" style="fill: #f2925a"/>
        <g>
          <path d="M1028.76,218.91h118.4a3.65,3.65,0,0,1,3.65,3.65v87a3.65,3.65,0,0,1-3.65,3.65h-118.4a3.64,3.64,0,0,1-3.64-3.64v-87A3.65,3.65,0,0,1,1028.76,218.91Z" transform="translate(562.05 1311.95) rotate(-90)" style="fill: #231f20"/>
          <path d="M1114.1,317.74V214.34a11.15,11.15,0,0,0-11.15-11.14h-51a11.14,11.14,0,0,0-11.14,11.14V317.74A11.14,11.14,0,0,0,1052,328.89h51A11.15,11.15,0,0,0,1114.1,317.74Z" transform="translate(-259.87 -42.05)" style="fill: #9497a9"/>
          <path d="M1060,245.6c1.35,28.17-5.71,125.91-16,137.88s-42.74,10.33-54.54,13.16-57.93-2.48-57.93-2.48-3-30-23-25.28-23.12,21.5-23.12,21.5-27.42-1.79-40.94-6.91-23.91-17.07-24.61-31.72c-2-41.51-1.91-82.43-1.07-124.4.45-22.15,3.64-31.88,31.55-40.67,33.32-10.5,68.95-9.88,103.87-11C1009.43,174,1056.15,165.39,1060,245.6Z" transform="translate(-259.87 -42.05)" style="fill: #2e3358"/>
          <path d="M858.34,279.83l6.56-1.57c1.73-.42,3.05-2.78,2.93-5.26l-2.27-47.33c-.12-2.48-1.63-4.17-3.36-3.76l-6.56,1.57c-1.73.42-3,2.78-2.93,5.26L855,276.08C855.1,278.56,856.61,280.25,858.34,279.83Z" transform="translate(-259.87 -42.05)" style="fill: #101224"/>
          <polygon points="586.05 227.38 577.63 229.4 579.87 276.06 588.4 276.3 586.05 227.38" style="fill: #101224"/>
          <g>
            <path d="M1060,245.6c-1.66-34.58-11.29-52.64-26.13-61.87-25.56-.72-74.7-.66-86.06,6-1.44.89-8.57,10.49-7,112.58.57,36.89,2.07,73.54,3,93.08,14.53,1.36,37.76,3.11,45.66,1.22,11.81-2.83,44.24-1.19,54.54-13.16S1061.35,273.77,1060,245.6Z" transform="translate(-259.87 -42.05)" style="fill: #676b85"/>
            <path d="M941.33,189.29c1.35-3.11,2.64-3.88,3.59-4.44,11.25-6.62,50-7.34,74.92-7.08-18.18-4.94-41.06-2.82-65.63-2.06-34.92,1.07-70.54.46-103.87,11-9.83,3.1-16.58,6.31-21.24,10.14C891.38,180.65,931.89,187.29,941.33,189.29Z" transform="translate(-259.87 -42.05)" style="fill: #cfd0d8"/>
            <path d="M947.8,189.75c11.36-6.68,60.5-6.75,86.06-6a52.15,52.15,0,0,0-14-6c-24.93-.27-63.67.46-74.92,7.08l0,0a21.23,21.23,0,0,1-13.4,2.82c-17.4-2.17-53.07-3.68-102.39,9.13a24.38,24.38,0,0,0-6.34,7.69,334.94,334.94,0,0,1,58.72-11.14L887.2,336l5.68-.23-5.73-142.88c27.85-2.08,46.19.68,52.44,1.88-2.94,12.2-5.51,40.34-4.48,107.51.56,36.51,2,72.78,2.94,92.59l5.71.56c-.9-19.54-2.4-56.19-3-93.08C939.23,200.25,946.36,190.64,947.8,189.75Z" transform="translate(-259.87 -42.05)" style="fill: #979aac"/>
          </g>
          <path d="M819,328.65c15.38-4.18,97.08-16.25,119.15,41.06,3.39,8.8,7.6,17.41,7.74,25.9-6.85-.51-15.1-1.34-15.1-1.34S928,365.14,908,369.92s-22.63,20.47-22.63,20.47-28.18-1.68-41.7-6.8-23.91-17.07-24.61-31.72C818.73,344.17,819.19,336.31,819,328.65Z" transform="translate(-259.87 -42.05)" style="fill: #101224"/>
          <path d="M833.42,223.84a143.31,143.31,0,0,1-6.07-37.08c-2.1-51.34,13.39-68.93,101.37-79.33,2.07-.21,23.89-3.14,50.11-4,8.74-.34,9.24,13,.44,13.26-24.8.81-47.76,3.79-49,3.91-84,9.92-91.37,24.13-89.68,65.61a130.44,130.44,0,0,0,5.47,33.64,6.63,6.63,0,0,1-12.66,4Z" transform="translate(-259.87 -42.05)" style="fill: #231f20"/>
          <rect x="675.26" y="54.75" width="117.14" height="37.91" rx="4.28" ry="4.28" style="fill: #a6d063"/>
          <ellipse cx="672.17" cy="74.42" rx="13.8" ry="11.13" style="fill: #a6d063"/>
          <rect x="680.71" y="54.75" width="117.14" height="37.91" rx="4.28" ry="4.28" style="fill: #231f20"/>
          <path d="M1032.36,103.43c-3.29,3.58-6.46,8.57-6.91,13.45-.64,6,2.25,9.49,5,14-1.33-1.13-4.22-3.59-5.26-6.11C1020.94,117.46,1025,107.94,1032.36,103.43Z" transform="translate(-259.87 -42.05)" style="fill: #426788"/>
          <path d="M1124.42,231l-136.85-2.81S942.25,230,941.3,271.48,966.4,328,966.4,328l88.35,18.87Z" transform="translate(-259.87 -42.05)" style="fill: #1d2242"/>
        </g>
        <path d="M815.68,295.49s-14.85,42.13-14.85,53.31,6.12,35.4,13.31,42.59,13.41,8.13,24.2,18.92,5.61,47.13-15.16,76.69-58,71.1-61.36,102.25,33.2,73.29,48.37,73.29,35.35-45.33,52.93-105.24,28.82-140.69,23.44-146.07c0,0-17-12.1-17-23.28s18.38-49.13,5.19-56.32-8,35.55-19.57,28.36-1.8-33,2-36.75,24.31-37.73,16.55-37.73c-1.94,0-4.42,1.61-7.14,4.16-8.14,7.65-18.4,23.78-22.59,30.37-5.59,8.79-8,2.4-2-10.39s25.27-20.44,21.57-24.15-11.38-.82-22,9.77-11.18,26-11.18,26a39.78,39.78,0,0,1,11.18-35.55c16-16-10.37-5.15-14.71,4-2.69,5.68-9,44.19-11.36,44.19C809.88,333.89,823.26,295.49,815.68,295.49Z" transform="translate(-259.87 -42.05)" style="fill: #f37575"/>
        <path d="M1052.67,350.93c.8-4.16-2.21-17,1-17s19.81,24.5,14.49,42.87,76.7,133.14,81,177.87-32.75,43.94-55.12,43.94S1047.38,421,1036.46,410s-59.12-8.52-67.64-8.52-30.16-23-25.43-27.69,18,16.51,24.36,16.51h16s-12.65-4.39-18.11-9.86-8.52-33.82.53-29.56,4.93,21.17,9.59,25.83,30.82,4.73,47.93,3.73S1046.81,381.55,1052.67,350.93Z" transform="translate(-259.87 -42.05)" style="fill: #f37575"/>
        <polygon points="510.84 334.71 578.47 308.88 589.79 344.57 526.82 368 510.84 334.71"/>
        <path d="M875.21,340.64l-36.87,23.61v14.38l45-24.12a8,8,0,0,0,3.51-10.44h0A8,8,0,0,0,875.21,340.64Z" transform="translate(-259.87 -42.05)"/>
      </g>
      <path d="M600.55,543.62a2.39,2.39,0,0,1-2.33-1.84c-34.91-146.79,51.1-242.57,52-243.52a2.39,2.39,0,1,1,3.52,3.23c-.85.93-85.14,95-50.84,239.19a2.38,2.38,0,0,1-1.77,2.87A2.28,2.28,0,0,1,600.55,543.62Z" transform="translate(-259.87 -42.05)" style="fill: #252c64"/>
      <path d="M652,682.49a2.38,2.38,0,0,1-2.32-1.83C609,511,668.34,390.71,668.94,389.52a2.39,2.39,0,1,1,4.26,2.16c-.59,1.18-59.16,120-18.92,287.87a2.39,2.39,0,0,1-1.77,2.88A2.53,2.53,0,0,1,652,682.49Z" transform="translate(-259.87 -42.05)" style="fill: #252c64"/>
      <path d="M1150.63,178a2.39,2.39,0,0,1-3-1.6C1117.2,75.6,1026.2,47,1025.28,46.72a2.39,2.39,0,1,1,1.39-4.57c.94.29,94.38,29.65,125.56,132.86A2.39,2.39,0,0,1,1150.63,178Z" transform="translate(-259.87 -42.05)" style="fill: #252c64"/>
      <path d="M2132.1,633a2.33,2.33,0,0,1-.74-.12,2.39,2.39,0,0,1-1.54-3c37.2-115.19-45.51-174.74-46.35-175.32a2.39,2.39,0,0,1,2.74-3.92c.87.61,86.46,62.08,48.16,180.7A2.39,2.39,0,0,1,2132.1,633Z" transform="translate(-259.87 -42.05)" style="fill: #252c64"/>
      <path d="M2058.86,1478.82a2.44,2.44,0,0,1-1.08-.25,2.39,2.39,0,0,1-1-3.21c38.14-75.31,5.08-146-21.49-202.78-12.7-27.13-23.66-50.56-23.66-68.9a2.39,2.39,0,0,1,4.78,0c0,17.28,10.76,40.26,23.21,66.88,25.58,54.68,60.61,129.57,21.42,207A2.39,2.39,0,0,1,2058.86,1478.82Z" transform="translate(-259.87 -42.05)" style="fill: #252c64"/>
    </g>
    <path d="M1136.62,286.57c0-16.94-7-32.4-18.51-44.16l2.15-15.93-38.84-4.42a80.84,80.84,0,0,0-18.32-2.09c-40.6,0-73.52,29.81-73.52,66.59,0,31.47,24.1,57.81,56.49,64.78h0a81,81,0,0,0,12.19,1.65l44.12,6,2.37-17.55C1124,329.43,1136.62,309.34,1136.62,286.57Z" transform="translate(-259.87 -42.05)" style="fill: #381a3f"/>
    <ellipse cx="854.23" cy="251.21" rx="73.52" ry="66.59" style="fill: #beb3d8"/>
    <ellipse cx="854.23" cy="251.21" rx="69.35" ry="62.82" style="fill: #231f20"/>
    <path d="M1097.09,232.35c-30.08,6.87-52.34,31.53-52.34,60.9s22.26,54,52.34,60.91c30.08-6.87,52.34-31.53,52.34-60.91S1127.17,239.22,1097.09,232.35Z" transform="translate(-259.87 -42.05)" style="fill: #6265a8"/>
    <path d="M1097.09,232.35c-18.39,4.2-33.86,15.06-43.1,29.57,3.42,30.64,31.94,54.56,66.64,54.56a72.75,72.75,0,0,0,25.72-4.65,57.33,57.33,0,0,0,3.09-18.58C1149.43,263.88,1127.17,239.22,1097.09,232.35Z" transform="translate(-259.87 -42.05)" style="fill: #888abd"/>
    <circle cx="857.89" cy="252.51" r="14.54" style="fill: #c2c3dd"/>
  </g>
</svg>
