<svg id="Layer_1" data-name="Layer 1" xmlns="http://www.w3.org/2000/svg" xmlns:xlink="http://www.w3.org/1999/xlink" viewBox="0 0 536.56 443.83"><defs><filter id="luminosity-noclip" x="65.38" y="-8467" width="470.34" height="32766" filterUnits="userSpaceOnUse" color-interpolation-filters="sRGB"><feFlood flood-color="#fff" result="bg"/><feBlend in="SourceGraphic" in2="bg"/></filter><mask id="mask" x="65.38" y="-8467" width="470.34" height="32766" maskUnits="userSpaceOnUse"><g style="filter:url(#luminosity-noclip)"/></mask><linearGradient id="linear-gradient" x1="164.9" y1="62.76" x2="454.57" y2="400.71" gradientUnits="userSpaceOnUse"><stop offset="0"/><stop offset="1" stop-color="#fff"/></linearGradient><filter id="luminosity-noclip-2" x="65.38" y="51.25" width="470.34" height="385.05" filterUnits="userSpaceOnUse" color-interpolation-filters="sRGB"><feFlood flood-color="#fff" result="bg"/><feBlend in="SourceGraphic" in2="bg"/></filter><mask id="mask-2" x="58.66" y="0" width="470.34" height="385.05" maskUnits="userSpaceOnUse"><g style="filter:url(#luminosity-noclip-2)"><g transform="translate(-6.72 -51.25)"><g style="mask:url(#mask)"><path d="M535.72,221c0-93.76-105.29-169.77-235.17-169.77S65.38,127.26,65.38,221c0,90,97.05,163.68,219.74,169.41,22.44,27.45,63.84,45.87,111.19,45.87,71.26,0,129-41.7,129-93.14,0-16.1-5.66-31.25-15.62-44.46C526.34,275.42,535.72,249,535.72,221Z" style="mix-blend-mode:multiply;fill:url(#linear-gradient)"/></g></g></g></mask><linearGradient id="linear-gradient-2" x1="164.9" y1="62.76" x2="454.57" y2="400.71" gradientUnits="userSpaceOnUse"><stop offset="0" stop-color="#eeae80"/><stop offset="1" stop-color="#f8ccdf"/></linearGradient><linearGradient id="linear-gradient-3" x1="130.67" y1="232.75" x2="123.43" y2="418.96" gradientUnits="userSpaceOnUse"><stop offset="0" stop-color="#f58d65"/><stop offset="0.09" stop-color="#f58c69"/><stop offset="1" stop-color="#f17a9a"/></linearGradient><linearGradient id="linear-gradient-4" x1="9.58" y1="323.52" x2="134.93" y2="437.28" gradientUnits="userSpaceOnUse"><stop offset="0" stop-color="#ca5b81"/><stop offset="1" stop-color="#b41e46"/></linearGradient><linearGradient id="linear-gradient-5" x1="122.85" y1="348.75" x2="210.37" y2="348.75" gradientUnits="userSpaceOnUse"><stop offset="0" stop-color="#da9fc7"/><stop offset="1" stop-color="#f8ad90"/></linearGradient></defs><title>newscaster</title><g style="mask:url(#mask-2)"><path d="M535.72,221c0-93.76-105.29-169.77-235.17-169.77S65.38,127.26,65.38,221c0,90,97.05,163.68,219.74,169.41,22.44,27.45,63.84,45.87,111.19,45.87,71.26,0,129-41.7,129-93.14,0-16.1-5.66-31.25-15.62-44.46C526.34,275.42,535.72,249,535.72,221Z" transform="translate(-6.72 -51.25)" style="fill:url(#linear-gradient-2)"/></g><path d="M104.15,346.25S95.83,313,75.78,303.92,55.24,320.1,68.44,339s47.69,40.47,47.69,40.47Z" transform="translate(-6.72 -51.25)" style="fill:#902373"/><path d="M116.13,381a1.47,1.47,0,0,0,1.22-2.28L77.49,319A1.47,1.47,0,0,0,75,320.65l39.86,59.67A1.47,1.47,0,0,0,116.13,381Z" transform="translate(-6.72 -51.25)" style="fill:#11404f"/><path d="M188.32,387.85s7.7,12.84-4.4,24.95-50.62,3.3-50.62,3.3,4.19-18.93,20.54-26.41S183.55,376.48,188.32,387.85Z" transform="translate(-6.72 -51.25)" style="fill:#902373"/><path d="M158.72,310.33c2.52-11.94-.21-22.77-8.53-28.71,10-19.63,7.09-41.11-10.19-43.82-17.48-2.74-39.33,7.93-33.87,35.67a78.79,78.79,0,0,0,2.12,8.41c-11.85,6.13-19.67,17.86-15.47,36q.13.58.28,1.15c-7,8.75-10.24,21-6.76,37.16,9,41.61,33,48.93,33,48.93s21.78-5.94,38.85-35.67C171.07,346.94,171.65,322.62,158.72,310.33Z" transform="translate(-6.72 -51.25)" style="fill:url(#linear-gradient-3)"/><path d="M115.7,423.24s-5.08-38.51-9.18-42.6c-4.25-4.25-5.5,1.81-5.5,1.81s-3.45-29.65-11.48-33.7-12.4,5-12.4,5,2.87-32-21.63-34.5C43.76,318.06,41.09,332,41.09,332s-15.6-19.6-30.21-2.8c-12.23,14.07,6.4,27.25,6.4,27.25S3,365.65,13.45,378.68s28.15,9.43,28.15,9.43-10,10.1-.76,14.78,31.84.2,31.84.2-11.87,5.41-2.85,10S115.7,423.24,115.7,423.24Z" transform="translate(-6.72 -51.25)" style="fill:url(#linear-gradient-4)"/><path d="M130.46,276.7a1.47,1.47,0,0,0-1.57,1.35L116.42,442.4a1.47,1.47,0,0,0,1.35,1.57h.11a1.47,1.47,0,0,0,1.46-1.36l12.47-164.35A1.47,1.47,0,0,0,130.46,276.7Z" transform="translate(-6.72 -51.25)" style="fill:#11404f"/><path d="M163.65,409.57l-7.74-2.63c3.09-1.12,5.85-2.06,7.71-2.65a1.47,1.47,0,0,0-.9-2.79c-1,.33-25,8.06-30.48,13.57-5.7,5.7-5.22,22.39-5.2,23.1a1.47,1.47,0,0,0,1.47,1.42h0a1.46,1.46,0,0,0,1.42-1.52c-.14-4.47.35-16.94,4.34-20.92,2.49-2.49,10.1-5.83,17.24-8.57l11.14,3.79a1.42,1.42,0,0,0,.47.08,1.47,1.47,0,0,0,.47-2.86Z" transform="translate(-6.72 -51.25)" style="fill:#11404f"/><path d="M117,422.48c-9.1-15.2-32.35-36.11-51.61-52L65.79,343a1.47,1.47,0,0,0-2.94,0l-.4,25.16c-14-11.41-25.28-19.74-26.37-20.54a1.47,1.47,0,0,0-1.74,2.36c.22.16,8.07,6,18.87,14.56H30.33a1.47,1.47,0,1,0,0,2.93H56.88c7.49,6,16,13.15,24.3,20.55l-17.57,3.19a1.47,1.47,0,0,0,.26,2.91l.26,0,19.8-3.6c12.88,11.71,24.76,23.91,30.51,33.53a1.47,1.47,0,0,0,2.52-1.51Z" transform="translate(-6.72 -51.25)" style="fill:#11404f"/><path d="M126.51,407.78s-7.21-41-1.41-41a7.27,7.27,0,0,1,7.21,4.84s-3.42-23.48,2.93-29.84S146,336.86,146,336.86s-12.72-24.21,9.78-34.24c10.8-4.81,17.67,2.32,17.67,2.32s8.68-23.5,27.82-12.11c16,9.54,2.45,27.88,2.45,27.88s10.76,8.8,4.89,24.46-18.1,13.21-18.1,13.21,7.34,9.78,0,17.12-23.36,3.91-23.36,3.91,7.15,2.14,0,9.29S126.51,407.78,126.51,407.78Z" transform="translate(-6.72 -51.25)" style="fill:url(#linear-gradient-5)"/><path d="M186.16,344.26l-18.66,6c11-13.23,20-23.38,20.2-23.63a1.47,1.47,0,0,0-2.19-2c-1.12,1.26-14.26,16-28,33.15l1.71-19.33a1.47,1.47,0,1,0-2.92-.26l-2.1,23.74c-14,17.65-27.64,36.74-29.11,45.6-3,17.92-5.44,37.53-5.46,37.72a1.47,1.47,0,0,0,1.27,1.64h.18a1.47,1.47,0,0,0,1.45-1.29c0-.19,2.48-19.74,5.45-37.6,1.63-9.82,20.11-34.11,36.09-53.63l23-7.33a1.47,1.47,0,0,0-.89-2.8Z" transform="translate(-6.72 -51.25)" style="fill:#11404f"/><rect x="90.3" y="379.51" width="47.85" height="44.63" style="fill:#752052"/><rect x="81.08" y="370.71" width="69.95" height="3.65" style="fill:#0a586a"/><rect x="85.37" y="374.36" width="61.36" height="7.94" style="fill:#0c7a98"/><ellipse cx="288.63" cy="426.19" rx="247.93" ry="17.64" style="fill:#ca72ad"/><path d="M154.37,61.5s-8-1-10.15,3.82c-4.27,9.53-7.61,28.57-7.61,36.74,0,3.31-.21,15.56-.21,15.56s11.08-3.33,15.75,0,22.27-.89,22.27-.89-3.81-7.89-3.81-30.42C170.62,72.76,162,59.68,154.37,61.5Z" transform="translate(-6.72 -51.25)" style="fill:#12153e"/><path d="M194,159.41c-5.51-10.4-17.69-46.85-22.28-47.44-6.29-.81-6.28.92-6.28.92s-2.8,26.47,4.34,28.88c4.71,1.6,11,16.77,17,26.58A32.56,32.56,0,0,1,194,159.41Z" transform="translate(-6.72 -51.25)" style="fill:#131537"/><path d="M259.85,129.53c-.75-2.4-10.2,2.4-13.95,3.45s-5.85-.6-5.85-3.45,5.85-1.5,5.85-3.3-11.25,1.95-13.95,3.3-1.05,3.6-5.1,7.65-27.37,25-30.75,25c-.48,0-1.22-1-2.13-2.74a32.56,32.56,0,0,0-7.21,8.94c3.09,5.05,6.09,8.68,8.74,8.27,7.8-1.2,28.2-25.95,32.85-32.25s8.4-2.4,15.15-3.6,15.75-6.45,15.75-8.25-9.9,4.35-12.45,3.07S260.6,131.93,259.85,129.53Z" transform="translate(-6.72 -51.25)" style="fill:#f15f5c"/><path d="M196.1,162.15c-.48,0-1.22-1-2.13-2.74a32.56,32.56,0,0,0-7.21,8.94,29.13,29.13,0,0,0,5.45,7,44.12,44.12,0,0,1,4.12-13.25Z" transform="translate(-6.72 -51.25)" style="fill:#ef5353"/><path d="M196.16,161s-.37-2.9-1.43-3.47-1-2.87-1.92-3.77-7.38,5.1-10.5,7.78-.28,3.22.8,4.6.92,2.39,2.16,3.06S196.7,164.08,196.16,161Z" transform="translate(-6.72 -51.25)" style="fill:#6177ba"/><path d="M193.53,157.62c-2.5,2.54-7.36,7-10.78,7.81-.54.13-.76-.78-.21-.87.08,0,1.89-.15,5.78-2.83A53.52,53.52,0,0,0,193.53,157.62Z" transform="translate(-6.72 -51.25)" style="fill:#25275a"/><polygon points="138.5 400.03 139.04 414.01 137.48 414.09 135.12 398.2 138.5 400.03" style="fill:#1d1c22"/><path d="M153.19,328.08s-1.17,21.9-3.7,28.5,4.22,92.84,6.65,99.76a21.26,21.26,0,0,0,2,4.09c2.58,4.19,3.16,5-.16,5.13-4.27.11-8-.62-8.91-2.35-1.5-3-3-13.37-5.93-13.29,0,0-2.09-3.83-1.63-5.89.68-3.09,2.81-1.56,2.7-5.83s-15.75-68.91-13.74-78.41,3.55-10.67,3.26-21.92S153.19,328.08,153.19,328.08Z" transform="translate(-6.72 -51.25)" style="fill:#f37575"/><path d="M162.33,305S179,335,178.15,344s-4,16.37-.85,28.59,27.05,56.26,27.78,64.4c.31,3.43-.73,3.77-.73,3.77.18,5.92,2.17,12.22,3.43,13.41,1.62,1.53,3.57,9.29,5.07,9.25s14.2,1,14.2,1c.26-2.9-3.56-.49-6-6.43s-4-14.9-7.15-27-16.27-67.19-16.61-79.93S198.17,338.3,196,330s-9.92-23.9-9.92-23.9Z" transform="translate(-6.72 -51.25)" style="fill:#f15f5c"/><path d="M178.15,344C179,335,162.33,305,162.33,305l23.74,1.1s7.76,15.55,9.92,23.9c1.59,6.12,1.38,7.8,1.29,13.29-4.51,1.08-11.53,2.66-19.55,4.14C177.91,346.29,178,345.16,178.15,344Z" transform="translate(-6.72 -51.25)" style="fill:#e85553"/><path d="M133.7,337.86c-.29-11.25,19.49-9.78,19.49-9.78s-.75,14-2.33,23a89.54,89.54,0,0,1-18.22-.26C133.42,347.47,133.86,344.33,133.7,337.86Z" transform="translate(-6.72 -51.25)" style="fill:#f15f5c"/><path d="M176.61,200.4s3.75,42.75,6.08,52.9,16,82.15,16,82.15-53.84,5.72-66.84,1.52c0,0-3-92.72-.28-104.71s15.55-34,15.55-34Z" transform="translate(-6.72 -51.25)" style="fill:#5c1145"/><path d="M169.49,113.68s-7.51-5.52-32.4.7c-.68.17-.68,27.33-.68,27.33s12.64,45.17,10.69,56.56c0,0,13.52,10.9,33.1.7,0,0-3.38-35.62-1.76-43.61s5-15.28-.24-23.41A93.5,93.5,0,0,1,169.49,113.68Z" transform="translate(-6.72 -51.25)" style="fill:#e469a6"/><path d="M169.49,113.68s-7.51-5.52-32.4.7c-.68.17-.68,27.33-.68,27.33s12.64,45.17,10.69,56.56c0,0,13.52,10.9,33.1.7,0,0-3.38-35.62-1.76-43.61s5-15.28-.24-23.41A93.5,93.5,0,0,1,169.49,113.68Z" transform="translate(-6.72 -51.25)" style="fill:#25275a"/><path d="M143.92,440.41c1.49,7.79,7,23.12,10,23.05,4-.09,4.28-.31,4.19-3,2.58,4.19,5.44,6.29,2.11,6.38-4.27.11-10.93.54-11.8-1.19-1.5-3-2.58-14.42-5.5-14.34l1.28,14.07-1.55.08s-2.8-19.34-2.35-21.29C140.92,441.45,143.11,440.91,143.92,440.41Z" transform="translate(-6.72 -51.25)" style="fill:#3a3745"/><path d="M223,460.75c3,2.7,7.56,2,7.35,4.35,0,0-16.42-.28-17.92-.24s-3-9.15-4.63-10.68-.32,10.81-.32,10.81l-1.62,0s-1.41-12.72-3-17.63c-1.3-3.91.36-5.61,1.55-6.64C209.52,450.06,210.63,463.28,223,460.75Z" transform="translate(-6.72 -51.25)" style="fill:#3a3745"/><path d="M149.56,91.34l-.82,18.38a5.92,5.92,0,0,0,6.07,4.27c5.09,0,6.24-2,6.24-2l1.31-23Z" transform="translate(-6.72 -51.25)" style="fill:#f37575"/><path d="M162.36,89l-12.8,2.3,0,1.82c0,2.49,3.73,6,5.66,6.21,3.35.38,6-3.63,6.94-7.13Z" transform="translate(-6.72 -51.25)" style="fill:#f15f5c"/><ellipse cx="167.73" cy="79.34" rx="4.65" ry="2.7" transform="translate(36.64 165.79) rotate(-73.23)" style="fill:#f37575"/><ellipse cx="145.16" cy="78.98" rx="2.61" ry="4.46" transform="translate(-21.56 -13.6) rotate(-14.07)" style="fill:#f37575"/><path d="M146.6,65.4c-1.5,2.34-1.47,6.9-1.64,11-.23,5.59,2.3,18.82,9.08,19.48s10.33-6,11.86-11.23,1.49-16.12-2.12-19.74S149.6,60.71,146.6,65.4Z" transform="translate(-6.72 -51.25)" style="fill:#f38688"/><path d="M157.05,83.19c-1.13-1.39-1.37-4.28-1.15-6.1.38,1.72.88,4.82,1.76,5.91l.18.23a4.1,4.1,0,0,1-2.79,1.22A6.19,6.19,0,0,0,157.05,83.19Z" transform="translate(-6.72 -51.25)" style="fill:#452140"/><path d="M167,79.84s.71-2.28,2-1.75.12,5-1,5.41S166.16,81.3,167,79.84Z" transform="translate(-6.72 -51.25)" style="fill:#f15f5c"/><path d="M146,78c-.14-.14-1.45-2.83-2.34-1.94s-.21,7.43,1,6.21S146,78,146,78Z" transform="translate(-6.72 -51.25)" style="fill:#f15f5c"/><path d="M146.6,65.4c-1.17,1.84-.9,5.11-1.21,8.36,1.66-4.76,10-11.06,10.81-11.67C152.33,61.8,148.28,62.77,146.6,65.4Z" transform="translate(-6.72 -51.25)" style="fill:#2b3379"/><path d="M167.2,72.67c-.65-3.21-1.8-6.14-3.42-7.76s-4.56-2.58-7.58-2.82C157.56,65.88,163.94,70.48,167.2,72.67Z" transform="translate(-6.72 -51.25)" style="fill:#2f499f"/><path d="M158.68,72.57a12.63,12.63,0,0,1,2.79-.82c.77,0,3.56,1.86,3.56,1.86s-2.57-1.59-3.78-1.26-2.08,1.48-2.57,1S158.68,72.57,158.68,72.57Z" transform="translate(-6.72 -51.25)" style="fill:#67308f"/><path d="M153.35,72.57a12.62,12.62,0,0,0-2.79-.82c-.77,0-3.56,1.86-3.56,1.86s2.57-1.59,3.78-1.26,2.08,1.48,2.57,1S153.35,72.57,153.35,72.57Z" transform="translate(-6.72 -51.25)" style="fill:#67308f"/><path d="M155.23,60s-8-2.93-13.17,7.38c-3.33,6.68-12.39,35.55-4.83,51.75l9.37.5s-6.55-12-6-18.11c0,0,3.28,13.84,8.15,15.7L159,115.79S145.39,112.06,146.78,98c.84-8.52-2.77-26.84,2.49-32.1,3.52-3.52,6.94-3.76,6.94-3.76Z" transform="translate(-6.72 -51.25)" style="fill:#2f499f"/><ellipse cx="142.86" cy="28.42" rx="2.58" ry="1.43" style="fill:#f15f5c"/><ellipse cx="156.27" cy="28.57" rx="2.63" ry="1.29" style="fill:#f15f5c"/><ellipse cx="154.05" cy="24.76" rx="0.88" ry="0.95" style="fill:#67308f"/><path d="M158.65,76.35c2.47-4.38,5,1.5,6.68-.27a1.46,1.46,0,0,1-1.85.57C161.25,75.82,161.45,74.25,158.65,76.35Z" transform="translate(-6.72 -51.25)" style="fill:#12153e"/><ellipse cx="151.59" cy="75.77" rx="0.95" ry="0.88" transform="translate(61.06 171.82) rotate(-86.92)" style="fill:#67308f"/><path d="M153.7,76.22c-2.23-4.51-5.09,1.23-6.65-.63a1.47,1.47,0,0,0,1.82.67C151.13,75.55,151,74,153.7,76.22Z" transform="translate(-6.72 -51.25)" style="fill:#12153e"/><path d="M156.2,62.09s7.09,2.26,8.67,9.66-2.56,18.46-4.1,23.88S162,104,162,104l2.45,2.09,2.27-4.75a41,41,0,0,1-1.31,6.48c-.9,2.87-.07,8.16-.07,8.16l5.82.39c-1.53-4.81,0-12,0-12s.23,11.42,3.29,12.4l5.83-4.84a6.74,6.74,0,0,1-5.34-6s3.5,5.72,7.88,5l3.2-4.27s-10,2.22-12.86-13.29-1.43-24.39-5.41-29C162.12,57.93,155.23,60,155.23,60Z" transform="translate(-6.72 -51.25)" style="fill:#2b3379"/><path d="M143.61,82.38c-.09,11.67,3.46,25.33,15.32,24.46l.17,4.19C144.88,110.44,141.88,95.85,143.61,82.38Z" transform="translate(-6.72 -51.25)" style="fill:#2f499f"/><path d="M150.8,86.49c2.44,2.07,7.64,1.21,9.87,1.06C157.66,88.59,152.68,89,150.8,86.49Z" transform="translate(-6.72 -51.25)" style="fill:#67308f"/><path d="M153.26,89.24a8.86,8.86,0,0,0,3.15.28A5.32,5.32,0,0,1,153.26,89.24Z" transform="translate(-6.72 -51.25)" style="fill:#67308f"/><path d="M104,137.88c2.27-2.27,28-33.55,38.67-26.84L140,131.38s-28.58,12.83-34.75,21.43l-3.57-12.76Z" transform="translate(-6.72 -51.25)" style="fill:#828ac3"/><path d="M144.85,147.16c-.89,4-7,2.41-5.76-1.54C152.34,103,151.5,104.92,153,105.38,155,106,153.35,106.65,144.85,147.16Z" transform="translate(-6.72 -51.25)" style="fill:#555799"/><rect x="141.7" y="112.35" width="12.81" height="14.45" transform="translate(33.6 -88.57) rotate(16.6)" style="fill:#cfcc2a"/><rect x="154.2" y="114.51" width="2.32" height="14.45" transform="translate(262.79 231.49) rotate(-163.42)" style="fill:#b0af35"/><path d="M151.41,112.27h0a6.48,6.48,0,0,1-5.15-7.54l1.44-7.61A6.48,6.48,0,0,1,155.24,92h0a6.48,6.48,0,0,1,5.15,7.54L159,107.12A6.48,6.48,0,0,1,151.41,112.27Z" transform="translate(-6.72 -51.25)" style="fill:#47555d"/><path d="M153.88,109.26a6.48,6.48,0,0,1-5.15-7.54l1.44-7.61a6.47,6.47,0,0,1,.35-1.19,6.44,6.44,0,0,0-2.82,4.2l-1.44,7.61a6.46,6.46,0,0,0,12.35,3.58A6.44,6.44,0,0,1,153.88,109.26Z" transform="translate(-6.72 -51.25)" style="fill:#333"/><path d="M149.71,128.91c-1-.65-1.47-.08-2.58-.78s-3.16-.43-6,.69-7.47,5.15-9.68,5.66A28.48,28.48,0,0,1,124.8,137c-10.53,1.31-23.08,3.09-23.08,3.09-9.36,5.91-10.34,16.82,2.65,13.57a96.16,96.16,0,0,0,23-9.14c4.34-1.9,5.14-3.64,10.41-3.08a19.87,19.87,0,0,0,11-2.08C149.71,138.91,150.42,129.35,149.71,128.91Z" transform="translate(-6.72 -51.25)" style="fill:#f15f5c"/><path d="M442,127.42s-.1,25-4.32,36.11c0,0-18.47,10.1-22.95,4.39l7.77-29Z" transform="translate(-6.72 -51.25)" style="fill:#e56261"/><path d="M442,127.42l-19.5,11.5-3.94,14.71c7,1.71,16.43-6.76,20.81-18.86a35.62,35.62,0,0,1,2.61-5.6C442,128.05,442,127.42,442,127.42Z" transform="translate(-6.72 -51.25)" style="fill:#cb5e5e"/><path d="M421.23,97.87a4.33,4.33,0,0,0-1.07,1c-1.86,2.38-4.54,8.2-4.86,15.69-.39,9.13-2,28.17,4.55,30.1s17.88-4.38,21.71-14.75,9.89-14.33,8.4-23.6S421.23,97.87,421.23,97.87Z" transform="translate(-6.72 -51.25)" style="fill:#e56261"/><path d="M450,106.35c-1.48-9.27-28.74-8.48-28.74-8.48a4.33,4.33,0,0,0-1.07,1c-1.86,2.38-4.54,8.2-4.86,15.69-.05,1.22-.13,2.61-.2,4.12,3.6-1.31,7-4.72,10.29-9,.44-.31,5-6.63,11.34-7.28,10.72-1.42,2.67,4.39,3.93,11.53-3.52,12.68-1.47,15.34.85,16.24.57-1-.36.84,0-.27C445.39,119.58,451.45,115.62,450,106.35Z" transform="translate(-6.72 -51.25)" style="fill:#cb5e5e"/><path d="M439.4,116.17s-.84-5.59-2.41-8.72-.25-5-.25-5-8.69-.92-12.88,4.42-9.66,13.37-17.57,6.73-2.58-18.84-.46-18.21,4.62-.69,4.62-.69,11-9.29,15-8.09,1.7-3.81,8.92-2.91,10.73,9.12,10.73,9.12,4.06-2.7,8.29,2.45-2.34,18.41-5.65,22.77S442,130.38,442,130.38,435.33,130,439.4,116.17Z" transform="translate(-6.72 -51.25)" style="fill:#2b337c"/><path d="M443.75,114.91a2.84,2.84,0,0,0-5-2c-1.59,1.61-2.89,3.79-1.74,6.08,2.29,4.58,6.46,1.5,6.69-3.16Q443.75,115.33,443.75,114.91Z" transform="translate(-6.72 -51.25)" style="fill:#e56261"/><path d="M437.09,116.2c.39-1,2.35-3.72,3.58-2.23s1.38,5.59-1.38,5.6S436.71,117.18,437.09,116.2Z" transform="translate(-6.72 -51.25)" style="fill:#cb5e5e"/><path d="M420.51,130.79l-3.71-1.09,2.86-9.7a.37.37,0,1,1,.71.21l-2.64,8.94,3,.89a.4.4,0,0,1-.22.76Z" transform="translate(-6.72 -51.25)" style="fill:#2b3278"/><ellipse cx="424.8" cy="120.18" rx="2.07" ry="1.59" transform="translate(182.6 442.35) rotate(-73.56)" style="fill:#2b3278"/><ellipse cx="416.92" cy="119.12" rx="1.9" ry="1.35" transform="translate(177.97 434.03) rotate(-73.56)" style="fill:#2b3278"/><path d="M420.89,138.75a4.81,4.81,0,0,1-1.19-.51.38.38,0,0,1-.09-.51.35.35,0,0,1,.48-.12c.12.09,3.05,2,6.86-1a.33.33,0,0,1,.48.07.39.39,0,0,1-.09.52A7,7,0,0,1,420.89,138.75Z" transform="translate(-6.72 -51.25)" style="fill:#2b3278"/><path d="M423.49,114.49a6.33,6.33,0,0,1,4.41-.75c2.12.62,3,3.75,3,3.75s-1-2.61-2.89-2.77a13.85,13.85,0,0,0-4.87,1Z" transform="translate(-6.72 -51.25)" style="fill:#2b3278"/><path d="M360.12,161.8s4.87-1.69,8-2.74-4,11.13-4,11.13-5,2-1.61,8.67,14.29,22.24,9.9,26.63-10.84,5.9-15.75,1c-3.78-3.78-4.49-22.11-5.19-32.61A11,11,0,0,1,357,163.56Z" transform="translate(-6.72 -51.25)" style="fill:#f37575"/><path d="M390.58,278c0,3.63,17.29,123,17.29,123l-1.39,63.87-18.13,12.55,32.52-2.82-1-10.85,3.9-.28,4.74-71.68V346.08L404.25,280Z" transform="translate(-6.72 -51.25)" style="fill:#0e0e0e"/><path d="M395.29,284.72s26.81,84.23,31.27,96.5,17.85,94.27,17.85,94.27L417,490.92l39.09-4.83s-5.3-8.93-3.07-11.16l3.07-.56V388.75l-3.07-7-2.79-57.87L442.72,278l-3.89-8.09-41.91,7.53Z" transform="translate(-6.72 -51.25)" style="fill:#4a4a5b"/><path d="M400.62,172.87s-14,28.31-20.08,27.19-8.95-6.71-8.95-6.71l-15.81,12.78s2.7,8.11,11.82,17.22,22.12,7.8,27.68,3.07S400.62,172.87,400.62,172.87Z" transform="translate(-6.72 -51.25)" style="fill:#f2782b"/><path d="M438,154s15.06,11.16,15.06,15.86-15.9,58.24-17.29,68.43,12,38.63,12,38.63-43.79,12.55-59.69,7.81c0,0-2-11.71,0-39s12.55-72.8,12.55-72.8S419.59,150.18,438,154Z" transform="translate(-6.72 -51.25)" style="fill:#f9ab63"/><path d="M435.76,238.28c1.06-7.76,10.56-40.73,15-58-8.84,11.55-20,33.55-23.93,35.94,0,0-30.3-3.44-32.56-6.64L393,219.17a53.32,53.32,0,0,0,20.45,23.27c10.62,6.46,19.05,4.89,23,3.49A23.92,23.92,0,0,1,435.76,238.28Z" transform="translate(-6.72 -51.25)" style="fill:#f69220"/><path d="M388.07,284.72c-5.78-32.48,3.53-80.57,12.55-111.84C395,205.11,385.7,252.6,388.07,284.72Z" transform="translate(-6.72 -51.25)" style="fill:#f1cdb8"/><path d="M431,165.76s.56-8.05,7-11.77,20.92,1.86,24.26,20.83S449.1,233,435.2,233s-32-7.35-35-15.65c0,0,5.3-24.06,10-24.06s16.55,14.15,16.55,14.15C433.18,204.11,430.24,177.86,431,165.76Z" transform="translate(-6.72 -51.25)" style="fill:#ffcb57"/><path d="M368.23,148.08s.92,12.19-.28,14.75c-.68,1.44-2.11,2.11-2.44,0-.25-1.62.52-5.57.52-7.84C366,149.76,368.23,148.08,368.23,148.08Z" transform="translate(-6.72 -51.25)" style="fill:#f37575"/><path d="M363.94,151s3.56,13.7,1.52,13.7S359.55,152.38,363.94,151Z" transform="translate(-6.72 -51.25)" style="fill:#f37575"/><path d="M352.54,114.47s5.31.94,7.34-.23.82-1.16,3.33-2.6,31.62,4,34.7,6.18,1.27,5.87,3.19,7.14,11.47,3.21,13.71-3.22-.42-8.05-5.7-12c-4.88-3.63-47.81-8.63-51.25-7.51s-2.79,5.44-2.93,6.17-4.15,1.63-4.15,1.63Z" transform="translate(-6.72 -51.25)" style="fill:#1f1f23"/><path d="M362.53,108.75a12.94,12.94,0,0,0,.76,2.86l-.07,0c-.29.17-.54.32-.74.45a13.91,13.91,0,0,1-.9-3.25,12.24,12.24,0,0,1,.41-5.49q.19-.6.44-1.19l1,.06A11.4,11.4,0,0,0,362.53,108.75Z" transform="translate(-6.72 -51.25)" style="fill:#29233a"/><path d="M376.07,111.68c0,.34.11.67.18,1l-1-.16c0-.24-.09-.48-.13-.73a12.24,12.24,0,0,1,.41-5.49,13.19,13.19,0,0,1,1.27-2.82l1.05.12A11.57,11.57,0,0,0,376.07,111.68Z" transform="translate(-6.72 -51.25)" style="fill:#29233a"/><path d="M390.09,113.78a12.61,12.61,0,0,0,.36,1.67l-1-.24a13.5,13.5,0,0,1-.27-1.33,12.23,12.23,0,0,1,.41-5.49,13.28,13.28,0,0,1,1.38-3l1,.16A11.6,11.6,0,0,0,390.09,113.78Z" transform="translate(-6.72 -51.25)" style="fill:#29233a"/><path d="M352.16,107c-2.49-2.3-6.25-3.15-9.5-4A92.56,92.56,0,0,0,325,100a6.56,6.56,0,0,0-6.62,6.22,6.18,6.18,0,0,0,1.43,3.78,9.2,9.2,0,0,0,4.11,2.67,79.48,79.48,0,0,0,12.58,3.64,72.79,72.79,0,0,0,10.18,1.47c2.85.16,6-.53,7.33-2.87,1.47-2.51.54-5.55-1.63-7.72Z" transform="translate(-6.72 -51.25)" style="fill:#4e446e"/><path d="M326.07,112.06c5-.16,5.79-8,3.2-10.49,1.08,1.71,1,4.19.59,6.05A5.23,5.23,0,0,1,326.07,112.06Z" transform="translate(-6.72 -51.25)" style="fill:#101224"/><path d="M332.79,113a.54.54,0,0,0-.45-.6.51.51,0,0,0-.63.36.54.54,0,0,0,.45.6A.51.51,0,0,0,332.79,113Z" transform="translate(-6.72 -51.25)" style="fill:#101224"/><path d="M339,110.36a.43.43,0,0,0-.36-.48.41.41,0,0,0-.51.29.43.43,0,0,0,.36.48A.41.41,0,0,0,339,110.36Z" transform="translate(-6.72 -51.25)" style="fill:#101224"/><path d="M342.15,115.39c0-.21,0-.4-.19-.43s-.3.11-.34.32,0,.4.19.43S342.11,115.6,342.15,115.39Z" transform="translate(-6.72 -51.25)" style="fill:#101224"/><path d="M451,155.21h0a6.32,6.32,0,0,0,7-5.47l1.67-13.21a6.32,6.32,0,0,0-5.47-7h0a6.33,6.33,0,0,0-7,5.47l-1.67,13.21A6.32,6.32,0,0,0,451,155.21Z" transform="translate(-6.72 -51.25)" style="fill:#231f20"/><rect x="425.21" y="122.33" width="34.15" height="25.92" rx="12.96" ry="12.96" transform="translate(857.42 273.66) rotate(-172.81)" style="fill:#231f20"/><path d="M424.36,117.72a67.38,67.38,0,0,0-13.79-1.42,46.26,46.26,0,0,0-8.72.88,104.54,104.54,0,0,0-12.81,3.4,19.08,19.08,0,0,0-3.52,1.41c-2.68,1.58-5.82,5.32-6.91,10.58s-2.27,21,.63,23.33,13.91,5.92,17.49,6.59,18.08-.65,18.08-.65a6.57,6.57,0,0,1,7.71-4.47c6.05,1.12,6.64,4.29,6.64,4.29s8.52,0,12.83-.82,7.8-2.92,8.37-5.65a210.33,210.33,0,0,0,3.29-23.26c.14-1.47.24-3.05-.66-4.32-1.17-1.65-3.5-2.12-5.41-2.77-2.58-.88-5.14-1.82-7.72-2.7A121.79,121.79,0,0,0,424.36,117.72Z" transform="translate(-6.72 -51.25)" style="fill:#525674"/><path d="M440.16,141.28l-2-.37a.9.9,0,0,1-.78-1l1.83-8.83a1,1,0,0,1,1.13-.66l2,.37a.9.9,0,0,1,.78,1l-1.83,8.83A1,1,0,0,1,440.16,141.28Z" transform="translate(-6.72 -51.25)" style="fill:#101224"/><polygon points="437.53 88.23 440.09 88.7 438.29 97.4 435.64 97.35 437.53 88.23" style="fill:#101224"/><path d="M377.37,133.24l7.36.15s8.06,1.61,8.54,8.28c.55,7.56-2.22,12.34-5.78,13a55.13,55.13,0,0,1-8.8.55Z" transform="translate(-6.72 -51.25)" style="fill:#101224"/><path d="M399.05,121.57c5.8-3.4,26.63-2.4,32.73-2-1.6-.46-3.2-.89-4.82-1.27-9.5-.4-23.73-.38-28.55,2.45-6.72,3.95-10.55,9.41-11.85,15.67-.85,4.11-2,15.83-2.62,22l1.1.45c.57-6,1.78-18.05,2.64-22.2C389,130.3,392.81,125.24,399.05,121.57Z" transform="translate(-6.72 -51.25)" style="fill:#101224"/><path d="M407,125.37c6.47-3.8,33.84-2.09,36.65-1.9l-3.46-1.21c-9.72-.51-28.42-.91-33.84,2.28-6.72,3.95-10.55,9.41-11.85,15.67-.81,3.91-1.92,14.71-2.53,21l1.11.33c.61-6.27,1.73-17.24,2.54-21.15C396.94,134.1,400.77,129,407,125.37Z" transform="translate(-6.72 -51.25)" style="fill:#101224"/><path d="M401.78,154.11c2-9.16,3.4-23.61,12.37-25.41a47.16,47.16,0,0,1,7.32-.44l-3,15.33c-.53,2.82,2.24,5.35,5.46,5l5.14-.64a4.34,4.34,0,0,0,3.9-3.4l2.71-16c3.56.13,7.07.29,10.14.45l-4.67,22.54,1.11.21L447,129c2.79.14,5.13.28,6.68.37a4.5,4.5,0,0,0-.26-1c-8-.48-33.55-1.87-39.55-.67-7.62,1.52-10.05,11-11.48,17.84l-1.9,9.2.48.14s2.84.85,3.83,2.68a3,3,0,0,1,0,2.8,9.24,9.24,0,0,1-1.38,2.21l1.44-.06a10.68,10.68,0,0,0,1-1.75C407.2,157.78,405.17,155.37,401.78,154.11Zm32.79-25.61-2.69,15.83a3.3,3.3,0,0,1-3,2.59l-5.14.64c-2.44.3-4.56-1.62-4.15-3.77l3-15.53C426.18,128.25,430.38,128.35,434.56,128.5Z" transform="translate(-6.72 -51.25)" style="fill:#101224"/><path d="M451.41,150.91c-7.26.49-35.26,2.61-38.06,6.27a10.86,10.86,0,0,0-2.06,5c2.21-.17,3.75-.31,3.75-.31a6.57,6.57,0,0,1,7.71-4.47c6.05,1.12,6.64,4.29,6.64,4.29s8.52,0,12.83-.82,7.8-2.92,8.37-5.65Q451,153.05,451.41,150.91Z" transform="translate(-6.72 -51.25)" style="fill:#101224"/><path d="M453.64,131.92a224.94,224.94,0,0,1-3.51,23.35c-.87,3.24-5.45,5-9.18,5.52-1.94.23-4.47.24-11.09.28-.69-2.11-3.69-4.68-9.27-4.5-3.13.11-5.4,2.84-6,4.71-3.37.3-14.3,1.18-17.55.5-2.82-.59-9.38-1.9-13.76-3.76a20.21,20.21,0,0,1-4-2.13c2.51,2,9.43,4.41,12.61,5.41a25.19,25.19,0,0,0,6.22,1.46A157.56,157.56,0,0,0,415,162a6.16,6.16,0,0,1,.44-1.06,6.5,6.5,0,0,1,2.92-3c3-1.54,9,.34,10.41,3.23a2.28,2.28,0,0,1,.2.64c.93,0,6,0,11.29-.57,1-.15,4.95-.19,7.88-2.09a6.37,6.37,0,0,0,2.73-4A225.42,225.42,0,0,0,453.64,131.92Z" transform="translate(-6.72 -51.25)" style="fill:#231f20"/><path d="M422.62,128.25c-1.63-.3-2.72-.39-2.72-1l2.65-12.79a5.51,5.51,0,0,1,5.8-4.08c3.94.14,11.18.41,15.48.7,3.13.21,6.36,1.3,7.83,3.78,0,0,1.54,2.93,2,4.13.5,1.44,3.57,9,.49,9.27-6,.53-5.82-3.63-6.36-6-.33-1.47-1.43-4.42-1.43-4.42a3.76,3.76,0,0,0-2.79-1.43c-4.15-.28-11.19-.54-15.12-.68L427,127.42C426.71,128.85,424.42,128.25,422.62,128.25Z" transform="translate(-6.72 -51.25)" style="fill:#282742"/><path d="M343.57,126.77,377,131s11,2.07,9.72,12.22-8.15,12.88-8.15,12.88l-22.21,1.43Z" transform="translate(-6.72 -51.25)" style="fill:#1d2242"/><polygon points="335.5 73.04 344.59 72.55 372.79 83.39 369.61 108.17 367.14 110.22 358.74 112.43 335.5 73.04" style="fill:#7b7a89"/><path d="M352.82,123.86l25.3,7.23a3.57,3.57,0,0,1,2.41,4l-3.17,23.11a3.55,3.55,0,0,1-4.34,3.13l-27.4-7.87,2.84-26.35A3.56,3.56,0,0,1,352.82,123.86Z" transform="translate(-6.72 -51.25)" style="fill:#7b7a89"/><path d="M343.83,124.32l25.28,7.44a3.72,3.72,0,0,1,2.38,4.19l-3.34,24.37c-.32,2.35-2.38,3.92-4.37,3.33l-24.59-7.27a3.74,3.74,0,0,1-2.42-4.11l2.67-24.49C339.71,125.37,341.8,123.72,343.83,124.32Z" transform="translate(-6.72 -51.25)" style="fill:#231f20"/><path d="M345,126.59l22.36,6.58a3.29,3.29,0,0,1,2.11,3.71l-3,21.55a3.21,3.21,0,0,1-3.87,2.94l-20.94-6.2a4.4,4.4,0,0,1-2.84-4.83l2.26-20.7A3.23,3.23,0,0,1,345,126.59Z" transform="translate(-6.72 -51.25)" style="fill:#3c3b43"/><path d="M367.34,133.16l-19.62-5.77a3.62,3.62,0,0,0-.06.36l-2.27,20.79a4.3,4.3,0,0,0,2.78,4.72l18.29,5.41c0-.08,0-.17,0-.25l3-21.55A3.29,3.29,0,0,0,367.34,133.16Z" transform="translate(-6.72 -51.25)" style="fill:#292629"/><path d="M367.34,133.16l-11.72-3.45a17.57,17.57,0,0,0-3.23,8.06c-1.18,8.65,4,16.45,11.56,17.42a12.28,12.28,0,0,0,3,0l2.51-18.33A3.29,3.29,0,0,0,367.34,133.16Z" transform="translate(-6.72 -51.25)" style="fill:#6177ba"/><path d="M367.34,133.16l-10-3a17,17,0,0,0-1.6,5.24c-1.12,8.21,3.78,15.6,11,16.52l.71.07,2.08-15.16A3.29,3.29,0,0,0,367.34,133.16Z" transform="translate(-6.72 -51.25)" style="fill:#2c3857"/><path d="M380.78,146.62c0,2.51,3.87,12.24,3.87,18.1s1.54,13,4,24.27,10.38,28.94,15.82,34.38,13-13.7,10.88-20.19-16.32-26.49-16.32-31.72,1.46-8.41,3.14-13.85.49-13.74-1.32-14.64.77,7.18.07,7.88S399.08,139,396.37,137s1.53,10.15,1.53,12.31.28,3.7-.56,3.7-1-5.86-2.06-9.34-2.83-8.65-5.27-7.6,2.93,7,2.93,9.41.7,7-.35,7.46-2.16-15.83-4.74-16.46-1,3.83-.21,7.67,1.39,9.9.07,9.9-2.44-1.53-4.18-4.88S380.78,144.11,380.78,146.62Z" transform="translate(-6.72 -51.25)" style="fill:#f37575"/><path d="M410.66,189,393,210a48.1,48.1,0,0,0,20.45,20.07c14.78,7.76,25.34,2.09,25.34,2.09S426.84,208.71,410.66,189Z" transform="translate(-6.72 -51.25)" style="fill:#ffcb57"/><path d="M87.8,184.86a.58.58,0,0,1-.42-.17c-20-20-.23-42.91,0-43.14a.59.59,0,0,1,.88.78c-.79.9-19.24,22.32,0,41.53a.59.59,0,0,1-.42,1Z" transform="translate(-6.72 -51.25)" style="fill:#252c64"/><path d="M94.65,203.91a.59.59,0,0,1-.27-.06c-23.59-12.07-22-35-22-35.26a.6.6,0,0,1,.63-.54.59.59,0,0,1,.54.63c0,.22-1.55,22.42,21.32,34.12a.59.59,0,0,1-.27,1.11Z" transform="translate(-6.72 -51.25)" style="fill:#252c64"/><path d="M251.72,158.45a.59.59,0,0,1,0-1.18c.66,0,16.11-.83,21.22-19.66a.59.59,0,1,1,1.13.31c-5.35,19.69-22.14,20.52-22.31,20.53Z" transform="translate(-6.72 -51.25)" style="fill:#252c64"/><path d="M474.11,186.56l-.13,0a.59.59,0,0,1-.44-.71c6.9-29.3-14.91-51.06-15.13-51.27a.59.59,0,1,1,.82-.84c.23.22,22.51,22.45,15.46,52.38A.59.59,0,0,1,474.11,186.56Z" transform="translate(-6.72 -51.25)" style="fill:#252c64"/><path d="M465.58,100.68a.58.58,0,0,1-.23,0,.59.59,0,0,1-.31-.77C470.43,87.28,452.8,68,452.62,67.78a.59.59,0,0,1,.86-.8c.75.81,18.32,20.07,12.64,33.35A.59.59,0,0,1,465.58,100.68Z" transform="translate(-6.72 -51.25)" style="fill:#252c64"/></svg>