<svg id="_Layer_" data-name="&lt;Layer&gt;" xmlns="http://www.w3.org/2000/svg" xmlns:xlink="http://www.w3.org/1999/xlink" viewBox="0 0 2305.81 1842.83">
  <defs>
    <filter id="luminosity-noclip" x="428.88" y="-9162" width="2021.24" height="32766" filterUnits="userSpaceOnUse" color-interpolation-filters="sRGB">
      <feFlood flood-color="#fff" result="bg"/>
      <feBlend in="SourceGraphic" in2="bg"/>
    </filter>
    <mask id="mask" x="428.88" y="-9162" width="2021.24" height="32766" maskUnits="userSpaceOnUse">
      <g style="filter: url(#luminosity-noclip)"/>
    </mask>
    <linearGradient id="linear-gradient" x1="864.67" y1="73.34" x2="2089.6" y2="1502.42" gradientUnits="userSpaceOnUse">
      <stop offset="0"/>
      <stop offset="1" stop-color="#fff"/>
    </linearGradient>
    <filter id="luminosity-noclip-2" x="428.88" y="39.06" width="2021.24" height="1598.78" filterUnits="userSpaceOnUse" color-interpolation-filters="sRGB">
      <feFlood flood-color="#fff" result="bg"/>
      <feBlend in="SourceGraphic" in2="bg"/>
    </filter>
    <mask id="mask-2" x="252.1" y="0" width="2021.24" height="1598.78" maskUnits="userSpaceOnUse">
      <g style="filter: url(#luminosity-noclip-2)">
        <g transform="translate(-176.79 -39.06)">
          <g style="mask: url(#mask)">
            <path d="M2450.12,744c0-389.31-452.47-704.92-1010.62-704.92S428.88,354.66,428.88,744c0,373.78,417.08,679.61,944.32,703.42,96.45,114,274.34,190.44,477.83,190.44,306.22,0,554.47-173.15,554.47-386.75,0-66.85-24.33-129.75-67.13-184.61C2409.79,969.84,2450.12,860.19,2450.12,744Z" style="mix-blend-mode: multiply;fill: url(#linear-gradient)"/>
          </g>
        </g>
      </g>
    </mask>
    <linearGradient id="linear-gradient-2" x1="864.67" y1="73.34" x2="2089.6" y2="1502.42" gradientUnits="userSpaceOnUse">
      <stop offset="0" stop-color="#eeae80"/>
      <stop offset="1" stop-color="#f8ccdf"/>
    </linearGradient>
    <linearGradient id="linear-gradient-3" x1="708.85" y1="792.6" x2="678.76" y2="1565.88" gradientUnits="userSpaceOnUse">
      <stop offset="0" stop-color="#f58d65"/>
      <stop offset="0.09" stop-color="#f58c69"/>
      <stop offset="1" stop-color="#f17a9a"/>
    </linearGradient>
    <linearGradient id="linear-gradient-4" x1="191.03" y1="1167.06" x2="721.51" y2="1648.48" gradientUnits="userSpaceOnUse">
      <stop offset="0" stop-color="#ca5b81"/>
      <stop offset="1" stop-color="#b41e46"/>
    </linearGradient>
    <linearGradient id="linear-gradient-5" x1="675.83" y1="1274.29" x2="1051.93" y2="1274.29" gradientUnits="userSpaceOnUse">
      <stop offset="0" stop-color="#da9fc7"/>
      <stop offset="1" stop-color="#f8ad90"/>
    </linearGradient>
  </defs>
  <title>newscast</title>
  <g>
    <g style="mask: url(#mask-2)">
      <path d="M2450.12,744c0-389.31-452.47-704.92-1010.62-704.92S428.88,354.66,428.88,744c0,373.78,417.08,679.61,944.32,703.42,96.45,114,274.34,190.44,477.83,190.44,306.22,0,554.47-173.15,554.47-386.75,0-66.85-24.33-129.75-67.13-184.61C2409.79,969.84,2450.12,860.19,2450.12,744Z" transform="translate(-176.79 -39.06)" style="fill: url(#linear-gradient-2)"/>
    </g>
    <g>
      <path d="M595.47,1263.9s-35.73-138.21-121.92-175.73S385.27,1155.33,442,1234,647,1402,647,1402Z" transform="translate(-176.79 -39.06)" style="fill: #902373"/>
      <path d="M647,1408.1a6.43,6.43,0,0,0,3.5-1,6,6,0,0,0,1.74-8.45L480.9,1150.84a6.43,6.43,0,0,0-8.74-1.68,6,6,0,0,0-1.74,8.45l171.32,247.77A6.36,6.36,0,0,0,647,1408.1Z" transform="translate(-176.79 -39.06)" style="fill: #11404f"/>
      <path d="M957.17,1436.63s33.11,53.31-18.92,103.58-217.55,13.71-217.55,13.71,18-78.58,88.28-109.67S936.67,1389.41,957.17,1436.63Z" transform="translate(-176.79 -39.06)" style="fill: #902373"/>
      <path d="M830,1114.77c10.82-49.59-.91-94.55-36.67-119.21,42.79-81.52,30.46-170.69-43.79-181.95-75.13-11.4-169,32.92-145.56,148.12a318.11,318.11,0,0,0,9.12,34.92c-50.94,25.47-84.52,74.16-66.48,149.32.39,1.61.78,3.21,1.19,4.79-30,36.35-44,87.34-29.06,154.31,38.6,172.79,141.87,203.17,141.87,203.17s93.62-24.68,167-148.1C883.08,1266.77,885.55,1165.81,830,1114.77Z" transform="translate(-176.79 -39.06)" style="fill: url(#linear-gradient-3)"/>
      <path d="M645.12,1583.57s-21.83-159.88-39.44-176.89C587.41,1389,582,1414.2,582,1414.2s-14.81-123.09-49.31-139.91S479.45,1295,479.45,1295s12.35-132.92-93-143.24c-50.54-5-62,53-62,53s-67-81.4-129.82-11.61c-52.56,58.42,27.5,113.13,27.5,113.13s-61.46,38.11-16.46,92.21,121,39.17,121,39.17-43.09,42-3.28,61.36,136.83.82,136.83.82-51,22.47-12.23,41.38S645.12,1583.57,645.12,1583.57Z" transform="translate(-176.79 -39.06)" style="fill: url(#linear-gradient-4)"/>
      <path d="M708.56,975.13a6.23,6.23,0,0,0-6.76,5.62l-53.6,682.38a6.17,6.17,0,0,0,5.82,6.54l.48,0a6.23,6.23,0,0,0,6.28-5.63l53.6-682.39A6.17,6.17,0,0,0,708.56,975.13Z" transform="translate(-176.79 -39.06)" style="fill: #11404f"/>
      <path d="M851.19,1526.83l-33.25-10.92c13.29-4.65,25.15-8.54,33.15-11a6.05,6.05,0,0,0,4.07-7.66,6.37,6.37,0,0,0-7.93-3.94c-4.37,1.36-107.32,33.46-131,56.33-24.51,23.68-22.44,93-22.33,95.9a6.21,6.21,0,0,0,6.3,5.89h.21a6.17,6.17,0,0,0,6.09-6.29c-.62-18.55,1.51-70.32,18.66-86.88,10.71-10.34,43.39-24.19,74.1-35.59l47.87,15.72a6.39,6.39,0,0,0,8-3.8A6,6,0,0,0,851.19,1526.83Z" transform="translate(-176.79 -39.06)" style="fill: #11404f"/>
      <path d="M650.54,1580.44c-39.09-63.12-139-150-221.79-215.89l1.87-114.15a6.2,6.2,0,0,0-6.21-6.19,6.27,6.27,0,0,0-6.41,6l-1.7,104.48c-60.14-47.39-108.64-82-113.32-85.3a6.45,6.45,0,0,0-8.82,1.3,6,6,0,0,0,1.34,8.52c1,.68,34.69,24.74,81.11,60.46h-98.4a6.1,6.1,0,1,0,0,12.19H392.35c32.18,25.07,68.83,54.59,104.42,85.34l-75.5,13.26a6.11,6.11,0,0,0-5.08,7.08,6.25,6.25,0,0,0,6.2,5,6.81,6.81,0,0,0,1.13-.09l85.07-14.94c55.35,48.62,106.39,99.27,131.12,139.21a6.37,6.37,0,0,0,5.42,3,6.44,6.44,0,0,0,3.23-.86A6,6,0,0,0,650.54,1580.44Z" transform="translate(-176.79 -39.06)" style="fill: #11404f"/>
      <path d="M691.59,1519.4s-31-170.38-6.08-170.38,31,20.09,31,20.09-14.71-97.48,12.61-123.88,46.25-20.31,46.25-20.31-54.65-100.53,42-142.16c46.4-20,75.94,9.64,75.94,9.64s37.32-97.57,119.55-50.26c68.84,39.6,10.51,115.76,10.51,115.76s46.24,36.56,21,101.55-77.77,54.83-77.77,54.83,31.53,40.62,0,71.08-100.4,16.25-100.4,16.25,30.72,8.9,0,38.59S691.59,1519.4,691.59,1519.4Z" transform="translate(-176.79 -39.06)" style="fill: url(#linear-gradient-5)"/>
      <path d="M947.89,1255.66l-80.19,24.71c47.11-54.92,85.85-97.06,86.82-98.12a6,6,0,0,0-.52-8.6,6.48,6.48,0,0,0-8.9.5c-4.8,5.22-61.27,66.64-120.38,137.65l7.36-80.26a6.16,6.16,0,0,0-5.73-6.61,6.26,6.26,0,0,0-6.83,5.53l-9,98.57c-60,73.27-118.78,152.55-125.11,189.35C672.56,1592.8,662,1674.2,661.89,1675a6.14,6.14,0,0,0,5.47,6.8,6.92,6.92,0,0,0,.79,0,6.24,6.24,0,0,0,6.25-5.34c.11-.81,10.64-82,23.41-156.14,7-40.77,86.42-141.64,155.09-222.67l98.83-30.45a6.06,6.06,0,0,0,4.1-7.66A6.37,6.37,0,0,0,947.89,1255.66Z" transform="translate(-176.79 -39.06)" style="fill: #11404f"/>
      <rect x="388.07" y="1575.76" width="205.61" height="185.3" style="fill: #752052"/>
      <rect x="348.42" y="1539.24" width="300.58" height="15.14" style="fill: #0a586a"/>
      <rect x="366.86" y="1554.38" width="263.7" height="32.96" style="fill: #0c7a98"/>
    </g>
    <ellipse cx="1240.34" cy="1769.59" rx="1065.47" ry="73.23" style="fill: #ca72ad"/>
    <g>
      <g>
        <path d="M811.3,81.6s-34.38-4.09-43.62,15.86C749.35,137,735,216.1,735,250c0,13.75-.91,64.6-.91,64.6s47.64-13.83,67.7,0,95.7-3.7,95.7-3.7-16.38-32.76-16.38-126.31C881.11,128.35,844,74.06,811.3,81.6Z" transform="translate(-176.79 -39.06)" style="fill: #12153e"/>
        <g>
          <path d="M981.47,488.13c-23.67-43.16-76-194.52-95.73-197-27-3.36-27,3.84-27,3.84s-12,109.89,18.67,119.93c20.25,6.62,47.34,69.65,73.06,110.35A136.18,136.18,0,0,1,981.47,488.13Z" transform="translate(-176.79 -39.06)" style="fill: #131537"/>
          <path d="M1264.58,364.06c-3.22-10-43.83,10-59.95,14.32s-25.14-2.49-25.14-14.32,25.14-6.23,25.14-13.7-48.34,8.1-59.95,13.7-4.51,14.95-21.92,31.76S1005.13,499.51,990.63,499.51c-2.07,0-5.22-4.2-9.16-11.38a136.18,136.18,0,0,0-31,37.14c13.26,21,26.16,36,37.56,34.34,33.52-5,121.18-107.74,141.16-133.9s36.1-10,65.1-14.95S1262,384,1262,376.51s-42.54,18.06-53.5,12.77S1267.8,374,1264.58,364.06Z" transform="translate(-176.79 -39.06)" style="fill: #f15f5c"/>
          <path d="M990.63,499.51c-2.07,0-5.22-4.2-9.16-11.38a136.18,136.18,0,0,0-31,37.14c8,12.69,15.9,23.2,23.4,29.17,2.6-22,12-43.64,17.72-55A5.28,5.28,0,0,1,990.63,499.51Z" transform="translate(-176.79 -39.06)" style="fill: #ef5353"/>
          <path d="M990.88,494.58s-1.61-12.06-6.14-14.42-4.31-11.92-8.26-15.65-31.72,21.16-45.13,32.31-1.19,13.35,3.42,19.1,3.94,9.92,9.3,12.72S993.2,507.54,990.88,494.58Z" transform="translate(-176.79 -39.06)" style="fill: #6177ba"/>
          <path d="M979.6,480.68c-10.76,10.53-31.64,29-46.34,32.41-2.3.54-3.28-3.23-.91-3.62.35-.14,8.14-.61,24.86-11.76A229,229,0,0,0,979.6,480.68Z" transform="translate(-176.79 -39.06)" style="fill: #25275a"/>
        </g>
        <g>
          <polygon points="595.17 1660.97 597.5 1719.01 590.82 1719.34 580.65 1653.35 595.17 1660.97" style="fill: #1d1c22"/>
          <g>
            <path d="M806.2,1188.46s-5,90.95-15.9,118.32,18.12,385.49,28.57,414.2a87,87,0,0,0,8.54,17c11.08,17.39,13.58,20.93-.71,21.29-18.36.46-34.53-2.56-38.27-9.75C782,1737.09,775.52,1694,763,1694.3c0,0-9-15.92-7-24.45,2.93-12.84,12.06-6.47,11.58-24.21s-67.68-286.12-59.07-325.59,15.25-44.31,14-91S806.2,1188.46,806.2,1188.46Z" transform="translate(-176.79 -39.06)" style="fill: #f37575"/>
            <path d="M845.5,1092.48s71.5,124.69,68,162.15-17.26,68-3.64,118.71,116.26,233.6,119.4,267.37c1.32,14.23-3.14,15.67-3.14,15.67.77,24.57,9.33,50.72,14.74,55.68,6.94,6.37,15.35,38.59,21.79,38.42s61,4.27,61,4.27c1.12-12-15.31-2-25.65-26.69s-17.14-61.87-30.74-112-69.94-279-71.36-331.88,3.6-53.29-5.72-87.94S947.54,1097,947.54,1097Z" transform="translate(-176.79 -39.06)" style="fill: #f15f5c"/>
            <path d="M913.49,1254.63c3.51-37.47-68-162.15-68-162.15l102,4.56s33.33,64.58,42.65,99.23c6.83,25.42,6,32.39,5.56,55.2-19.38,4.47-49.54,11-84,17.21C912.44,1264.06,913,1259.41,913.49,1254.63Z" transform="translate(-176.79 -39.06)" style="fill: #e85553"/>
            <path d="M722.44,1229.06c-1.26-46.69,83.76-40.6,83.76-40.6s-3.21,58-10,95.3c-28.67,2-55.82,2-78.28-1.07C721.27,1269,723.17,1256,722.44,1229.06Z" transform="translate(-176.79 -39.06)" style="fill: #f15f5c"/>
          </g>
          <path d="M906.89,658.32S923,835.81,933,877.95s68.62,341.11,68.62,341.11-231.39,23.76-287.25,6.3c0,0-13.08-385-1.19-434.78S780,649.47,780,649.47Z" transform="translate(-176.79 -39.06)" style="fill: #5c1145"/>
          <path d="M876.28,298.24S844,275.34,737,301.15c-2.91.7-2.94,113.47-2.94,113.47S788.39,602.18,780,649.47c0,0,58.11,45.24,142.22,2.9,0,0-14.53-147.91-7.58-181.07s21.69-63.43-1-97.2S876.28,298.24,876.28,298.24Z" transform="translate(-176.79 -39.06)" style="fill: #e469a6"/>
          <path d="M876.28,298.24S844,275.34,737,301.15c-2.91.7-2.94,113.47-2.94,113.47S788.39,602.18,780,649.47c0,0,58.11,45.24,142.22,2.9,0,0-14.53-147.91-7.58-181.07s21.69-63.43-1-97.2S876.28,298.24,876.28,298.24Z" transform="translate(-176.79 -39.06)" style="fill: #25275a"/>
          <path d="M766.4,1654.88c6.41,32.34,30.12,96,43,95.71,17.4-.38,18.4-1.29,18-12.63,11.08,17.39,23.36,26.14,9.07,26.49-18.36.46-47,2.26-50.72-4.93-6.45-12.41-11.08-59.86-23.64-59.54l5.48,58.42-6.67.34s-12.05-80.32-10.1-88.42C753.51,1659.21,762.92,1656.94,766.4,1654.88Z" transform="translate(-176.79 -39.06)" style="fill: #3a3745"/>
          <path d="M1106.16,1739.34c13.07,11.2,32.49,8.43,31.59,18.07,0,0-70.57-1.15-77-1s-13-38-19.9-44.36-1.37,44.89-1.37,44.89l-6.95.17s-6.08-52.8-13.08-73.18c-5.57-16.24,1.55-23.3,6.66-27.56C1048.31,1694.94,1053.09,1749.84,1106.16,1739.34Z" transform="translate(-176.79 -39.06)" style="fill: #3a3745"/>
        </g>
        <g>
          <path d="M790.61,205.49l-3.53,76.34s4.23,17.72,26.1,17.72,26.8-8.18,26.8-8.18l5.65-95.42Z" transform="translate(-176.79 -39.06)" style="fill: #f37575"/>
          <path d="M845.63,195.95l-55,9.54.09,7.54c0,10.33,16,24.88,24.31,25.78,14.39,1.57,26-15.06,29.84-29.6Z" transform="translate(-176.79 -39.06)" style="fill: #f15f5c"/>
          <path d="M879.82,158.92c-3.18,10.2-10.74,17-16.88,15.23s-8.54-11.51-5.35-21.71,10.74-17,16.88-15.24S883,148.72,879.82,158.92Z" transform="translate(-176.79 -39.06)" style="fill: #f37575"/>
          <path d="M782.58,151.56c2.57,9.92-.21,19.13-6.21,20.58s-12.95-5.41-15.52-15.32.21-19.13,6.21-20.58S780,141.64,782.58,151.56Z" transform="translate(-176.79 -39.06)" style="fill: #f37575"/>
          <path d="M777.91,97.8c-6.43,9.73-6.34,28.64-7.05,45.67-1,23.2,9.88,78.15,39,80.88s44.39-24.83,51-46.64,6.39-67-9.12-81.94S790.81,78.31,777.91,97.8Z" transform="translate(-176.79 -39.06)" style="fill: #f38688"/>
          <path d="M822.82,171.68c-4.86-5.79-5.9-17.76-5-25.33,1.63,7.15,3.78,20,7.57,24.54l.79,1c-.4.21-5.53,5.51-12,5.05A26.76,26.76,0,0,0,822.82,171.68Z" transform="translate(-176.79 -39.06)" style="fill: #452140"/>
          <path d="M865.58,157.76s3.06-9.45,8.76-7.28.52,20.68-4.38,22.45S862,163.81,865.58,157.76Z" transform="translate(-176.79 -39.06)" style="fill: #f15f5c"/>
          <path d="M775.45,149.93c-.62-.6-6.24-11.73-10.05-8.05s-.9,30.86,4.34,25.79S775.45,149.93,775.45,149.93Z" transform="translate(-176.79 -39.06)" style="fill: #f15f5c"/>
          <path d="M777.91,97.8c-5,7.63-3.88,21.22-5.21,34.7,7.14-19.78,42.95-45.92,46.47-48.46C802.52,82.86,785.13,86.89,777.91,97.8Z" transform="translate(-176.79 -39.06)" style="fill: #2b3379"/>
          <path d="M866.43,128c-2.78-13.35-7.74-25.51-14.68-32.21C845,89.21,832.14,85,819.17,84,825,99.78,852.41,118.9,866.43,128Z" transform="translate(-176.79 -39.06)" style="fill: #2f499f"/>
          <path d="M829.81,127.56s8.7-3.41,12-3.41,15.29,7.73,15.29,7.73-11.05-6.59-16.22-5.23-8.94,6.13-11.05,4.09S829.81,127.56,829.81,127.56Z" transform="translate(-176.79 -39.06)" style="fill: #67308f"/>
          <path d="M806.89,127.56s-8.7-3.41-12-3.41-15.29,7.73-15.29,7.73,11.05-6.59,16.23-5.23,8.94,6.13,11.05,4.09S806.89,127.56,806.89,127.56Z" transform="translate(-176.79 -39.06)" style="fill: #67308f"/>
          <path d="M815,75.39S780.49,63.23,758.42,106c-14.32,27.75-53.23,147.61-20.78,214.85l40.26,2.08s-28.15-49.82-25.86-75.2c0,0,14.11,57.48,35,65.2l44-5.91S772.7,291.52,778.66,233c3.6-35.36-11.91-111.44,10.71-133.3C804.49,85.05,819.17,84,819.17,84Z" transform="translate(-176.79 -39.06)" style="fill: #2f499f"/>
          <ellipse cx="613.92" cy="118.02" rx="11.09" ry="5.95" style="fill: #f15f5c"/>
          <ellipse cx="671.55" cy="118.61" rx="11.29" ry="5.36" style="fill: #f15f5c"/>
          <g>
            <ellipse cx="662.04" cy="102.82" rx="3.79" ry="3.96" style="fill: #67308f"/>
            <path d="M829.69,143.28c10.62-18.19,21.56,6.22,28.7-1.11-1.24,2.64-5,3.48-8,2.38C840.85,141.06,841.72,134.53,829.69,143.28Z" transform="translate(-176.79 -39.06)" style="fill: #12153e"/>
          </g>
          <g>
            <path d="M795.58,140.66a3.8,3.8,0,1,0,4-3.76A3.87,3.87,0,0,0,795.58,140.66Z" transform="translate(-176.79 -39.06)" style="fill: #67308f"/>
            <path d="M808.4,142.73c-9.6-18.71-21.88,5.1-28.6-2.6,1.09,2.71,4.83,3.74,7.82,2.8C797.39,139.93,796.88,133.37,808.4,142.73Z" transform="translate(-176.79 -39.06)" style="fill: #12153e"/>
          </g>
          <path d="M819.17,84s30.47,9.37,37.27,40.11-11,76.65-17.62,99.14S844,257.89,844,257.89l10.51,8.68,9.76-19.74s-1.75,15-5.63,26.92-.28,33.88-.28,33.88l25,1.62c-6.58-20-.05-49.81-.05-49.81s1,47.42,14.12,51.47l25-20.12c-21.82-4.77-22.95-24.88-22.95-24.88s15,23.74,33.88,20.79L947.21,269s-42.93,9.21-55.27-55.2S885.81,112.53,868.7,93.53C844.61,66.76,815,75.39,815,75.39Z" transform="translate(-176.79 -39.06)" style="fill: #2b3379"/>
          <path d="M765.07,168.29c-.4,48.45,14.88,105.18,65.83,101.57l.71,17.41C770.53,284.82,757.64,224.22,765.07,168.29Z" transform="translate(-176.79 -39.06)" style="fill: #2f499f"/>
          <path d="M795.94,185.34c10.5,8.58,32.85,5,42.41,4.39C825.42,194.1,804.05,195.86,795.94,185.34Z" transform="translate(-176.79 -39.06)" style="fill: #67308f"/>
          <path d="M806.52,196.78c3.35,1.48,10,1.22,13.54,1.14C816.2,198.54,809.77,198.78,806.52,196.78Z" transform="translate(-176.79 -39.06)" style="fill: #67308f"/>
        </g>
      </g>
      <g>
        <path d="M594.81,398.73C604.59,389.29,715,259.42,761,287.27l-11.27,84.49S626.92,425,600.4,460.76l-15.35-53Z" transform="translate(-176.79 -39.06)" style="fill: #828ac3"/>
        <path d="M770.37,437.26c-3.82,16.66-30,10-24.77-6.39,57-176.78,53.36-169,59.76-167.06C813.83,266.39,806.89,269.06,770.37,437.26Z" transform="translate(-176.79 -39.06)" style="fill: #555799"/>
        <polygon points="625.1 320.03 572.35 304.84 590.09 247.33 642.84 262.52 625.1 320.03" style="fill: #cfcc2a"/>
        <polygon points="625.1 320.03 634.64 322.77 652.38 265.27 642.84 262.52 625.1 320.03" style="fill: #b0af35"/>
        <path d="M798.57,292.4h0c-15-2.74-25-16.83-22.13-31.32l6.17-31.62C785.44,215,800,205.34,815,208.08h0c15,2.74,25,16.83,22.13,31.32L831,271C828.16,285.51,813.57,295.14,798.57,292.4Z" transform="translate(-176.79 -39.06)" style="fill: #47555d"/>
        <path d="M809.2,279.89c-15-2.73-25-16.83-22.13-31.32l6.17-31.62a26.16,26.16,0,0,1,1.49-4.94,26.74,26.74,0,0,0-12.12,17.45l-6.17,31.62c-2.83,14.49,7.13,28.59,22.13,31.32,13.22,2.41,26.11-4.78,30.93-16.44A28.45,28.45,0,0,1,809.2,279.89Z" transform="translate(-176.79 -39.06)" style="fill: #333"/>
        <path d="M791.26,361.48c-4.45-2.69-6.31-.35-11.08-3.23s-13.59-1.8-25.65,2.86-32.11,21.4-41.59,23.51c-1.79.4-13.81,7.59-28.69,10.33C639,400.37,585,407.77,585,407.77c-40.24,24.54-44.43,69.85,11.4,56.36s98.73-38,98.73-38c18.63-7.88,22.08-15.13,44.74-12.81a87.83,87.83,0,0,0,47.43-8.62C791.25,403,794.34,363.34,791.26,361.48Z" transform="translate(-176.79 -39.06)" style="fill: #f15f5c"/>
      </g>
    </g>
    <g>
      <g>
        <path d="M2047.46,355.3s-.41,103.93-18.58,149.92c0,0-79.36,41.93-98.61,18.24L1963.64,403Z" transform="translate(-176.79 -39.06)" style="fill: #e56261"/>
        <path d="M2047.46,355.3,1963.64,403l-16.93,61.09c29.9,7.11,70.62-28.08,89.44-78.3a145.63,145.63,0,0,1,11.21-23.26C2047.45,357.94,2047.46,355.3,2047.46,355.3Z" transform="translate(-176.79 -39.06)" style="fill: #cb5e5e"/>
        <path d="M1958.1,232.6a18.33,18.33,0,0,0-4.58,4.35c-8,9.88-19.5,34-20.88,65.14-1.68,37.9-8.52,117,19.54,125s76.85-18.18,93.3-61.24,42.49-59.52,36.12-98S1958.1,232.6,1958.1,232.6Z" transform="translate(-176.79 -39.06)" style="fill: #e56261"/>
        <path d="M2081.6,267.81c-6.38-38.49-123.5-35.21-123.5-35.21a18.33,18.33,0,0,0-4.58,4.35c-8,9.88-19.49,34-20.88,65.14-.22,5.05-.54,10.84-.85,17.09,15.48-5.42,29.89-19.58,44.21-37.38,1.91-1.31,21.33-27.53,48.73-30.21,46.08-5.88,11.47,18.22,16.9,47.89-15.11,52.66-6.3,63.7,3.64,67.44,2.44-4.2-1.55,3.5.21-1.11C2061.94,322.75,2088,306.3,2081.6,267.81Z" transform="translate(-176.79 -39.06)" style="fill: #cb5e5e"/>
        <path d="M2036.18,308.59s-3.63-23.21-10.37-36.22-1.07-20.77-1.07-20.77-37.33-3.82-55.35,18.33-41.53,55.53-75.49,27.94-11.08-78.21-2-75.62,19.83-2.87,19.83-2.87,47.22-38.56,64.66-33.59,7.3-15.83,38.32-12.1,46.13,37.88,46.13,37.88,17.44-11.23,35.64,10.16-10,76.45-24.29,94.56-25,51.3-25,51.3S2018.68,365.85,2036.18,308.59Z" transform="translate(-176.79 -39.06)" style="fill: #2b337c"/>
        <path d="M2054.86,303.37c-.05-11.47-13.07-16.52-21.33-8.44-6.83,6.69-12.43,15.75-7.5,25.26,9.85,19,27.77,6.21,28.73-13.13Q2054.87,305.12,2054.86,303.37Z" transform="translate(-176.79 -39.06)" style="fill: #e56261"/>
        <path d="M2026.24,308.74c1.66-4.22,10.08-15.46,15.4-9.26s5.93,23.22-5.95,23.25S2024.64,312.8,2026.24,308.74Z" transform="translate(-176.79 -39.06)" style="fill: #cb5e5e"/>
        <path d="M1955,369.3l-15.92-4.54,12.3-40.27a1.64,1.64,0,0,1,2-1.14,1.57,1.57,0,0,1,1,2l-11.34,37.13,12.89,3.68a1.57,1.57,0,0,1,1,2A1.65,1.65,0,0,1,1955,369.3Z" transform="translate(-176.79 -39.06)" style="fill: #2b3278"/>
        <path d="M1980,327.1c-1.39,4.55-5.44,7.4-9,6.37s-5.41-5.55-4-10.1,5.44-7.41,9-6.38S1981.36,322.55,1980,327.1Z" transform="translate(-176.79 -39.06)" style="fill: #2b3278"/>
        <path d="M1945.12,322.42c-1.28,4.19-4.8,6.87-7.88,6s-4.52-5-3.24-9.17,4.8-6.87,7.88-6S1946.4,318.24,1945.12,322.42Z" transform="translate(-176.79 -39.06)" style="fill: #2b3278"/>
        <path d="M1956.62,402.34a21,21,0,0,1-5.13-2.14,1.53,1.53,0,0,1-.4-2.1,1.55,1.55,0,0,1,2.07-.5c.53.39,13.12,8.22,29.47-4.1a1.46,1.46,0,0,1,2.08.29,1.58,1.58,0,0,1-.37,2.14C1972.68,404.74,1962.45,404,1956.62,402.34Z" transform="translate(-176.79 -39.06)" style="fill: #2b3278"/>
        <path d="M1967.83,301.61s9.85-5.72,19-3.12,12.8,15.59,12.8,15.59-4.11-10.84-12.41-11.5-20.93,4.26-20.93,4.26Z" transform="translate(-176.79 -39.06)" style="fill: #2b3278"/>
      </g>
      <path d="M1695.48,498.08s20.93-7,34.41-11.37-17.08,46.19-17.08,46.19-21.3,8.2-6.92,36,61.41,92.33,42.53,110.57-46.57,24.49-67.7,4.08c-16.24-15.69-19.3-91.8-22.3-135.39-1.2-17.51,8.06-34.11,23.83-42.79Z" transform="translate(-176.79 -39.06)" style="fill: #f37575"/>
      <path d="M1826.38,980.62c0,15.06,74.31,510.71,74.31,510.71l-6,265.2-77.91,52.12,139.76-11.71-4.31-45,16.78-1.16,20.38-297.62V1263.2L1885.11,988.74Z" transform="translate(-176.79 -39.06)" style="fill: #0e0e0e"/>
      <path d="M1846.61,1008.42s115.21,349.74,134.39,400.69,76.71,391.43,76.71,391.43l-117.65,64.06,168-20.06s-22.77-37.06-13.18-46.32l13.18-2.31V1440.38l-13.18-29-12-240.3-32.44-190.5L2033.74,947l-180.1,31.27Z" transform="translate(-176.79 -39.06)" style="fill: #4a4a5b"/>
      <path d="M1869.53,544s-60.29,117.53-86.3,112.91-38.45-27.88-38.45-27.88l-67.93,53.07s11.61,33.65,50.79,71.51,95.05,32.38,119,12.74S1869.53,544,1869.53,544Z" transform="translate(-176.79 -39.06)" style="fill: #f2782b"/>
      <path d="M2030.14,465.65s64.72,46.35,64.72,65.84-68.32,241.84-74.31,284.11S2072.09,976,2072.09,976s-188.18,52.11-256.5,32.43c0,0-8.39-48.64,0-162.13S1869.53,544,1869.53,544,1951,449.81,2030.14,465.65Z" transform="translate(-176.79 -39.06)" style="fill: #f9ab63"/>
      <path d="M2020.55,815.6c4.57-32.23,45.37-169.13,64.49-241-38,48-86.11,139.32-102.85,149.21,0,0-130.21-14.28-139.93-27.56l-5.47,40s24.33,59.28,87.86,96.63c45.62,26.82,81.88,20.31,98.7,14.51C2020.62,834.87,2019.39,823.81,2020.55,815.6Z" transform="translate(-176.79 -39.06)" style="fill: #f69220"/>
      <path d="M1815.59,1008.42c-24.86-134.86,15.17-334.55,53.94-464.39C1845.5,677.87,1805.41,875.08,1815.59,1008.42Z" transform="translate(-176.79 -39.06)" style="fill: #f1cdb8"/>
      <path d="M2000.18,514.5s2.4-33.43,30-48.85,89.89,7.74,104.28,86.49-56.54,241.6-116.26,241.6-137.43-30.52-150.25-65c0,0,22.79-99.88,43.17-99.88s71.12,58.77,71.12,58.77C2009.47,673.73,1996.84,564.75,2000.18,514.5Z" transform="translate(-176.79 -39.06)" style="fill: #ffcb57"/>
      <path d="M1730.34,441.11s4,50.62-1.2,61.23c-2.91,6-9.08,8.74-10.49,0-1.08-6.73,2.25-23.12,2.25-32.57C1720.9,448.06,1730.34,441.11,1730.34,441.11Z" transform="translate(-176.79 -39.06)" style="fill: #f37575"/>
      <path d="M1711.91,453.27s15.3,56.89,6.53,56.89S1693,459,1711.91,453.27Z" transform="translate(-176.79 -39.06)" style="fill: #f37575"/>
      <g>
        <g>
          <path d="M1662.92,301.56s22.82,3.88,31.56-.95,3.52-4.8,14.33-10.78,135.86,16.44,149.14,25.66,5.44,24.36,13.72,29.64,49.29,13.33,58.91-13.38-1.8-33.43-24.48-49.72c-21-15.07-205.47-35.85-220.23-31.18s-12,22.57-12.6,25.63-17.84,6.76-17.84,6.76Z" transform="translate(-176.79 -39.06)" style="fill: #1f1f23"/>
          <g>
            <path d="M1705.83,277.81a52.31,52.31,0,0,0,3.28,11.87l-.3.15c-1.27.7-2.31,1.32-3.19,1.87a56.27,56.27,0,0,1-3.88-13.49,49.19,49.19,0,0,1,1.78-22.78,52,52,0,0,1,1.9-5l4.42.23A45.91,45.91,0,0,0,1705.83,277.81Z" transform="translate(-176.79 -39.06)" style="fill: #29233a"/>
            <path d="M1764,290c.21,1.41.48,2.77.79,4.07l-4.32-.66c-.21-1-.4-2-.56-3a49.2,49.2,0,0,1,1.78-22.78,53.87,53.87,0,0,1,5.47-11.71l4.51.51C1764.83,266.81,1762.25,278.06,1764,290Z" transform="translate(-176.79 -39.06)" style="fill: #29233a"/>
            <path d="M1824.29,298.69a50.84,50.84,0,0,0,1.56,6.94l-4.49-1a54.38,54.38,0,0,1-1.15-5.53A49.13,49.13,0,0,1,1822,276.3a54.29,54.29,0,0,1,5.95-12.47l4.43.68C1825.19,275.12,1822.47,286.57,1824.29,298.69Z" transform="translate(-176.79 -39.06)" style="fill: #29233a"/>
          </g>
          <path d="M1661.28,270.44c-10.71-9.55-26.86-13.06-40.83-16.75a410.53,410.53,0,0,0-75.78-12.11c-15.23-1.08-28.74,13.28-28.45,25.83a25.14,25.14,0,0,0,6.13,15.69c4.66,5.5,10.66,8.51,17.67,11.09a350.75,350.75,0,0,0,54.07,15.1c14.46,2.82,29.08,5.29,43.74,6.1,12.24.68,25.62-2.2,31.5-11.93,6.3-10.41,2.32-23.06-7-32C1662,271.08,1661.64,270.75,1661.28,270.44Z" transform="translate(-176.79 -39.06)" style="fill: #4e446e"/>
          <path d="M1549.18,291.54c21.46-.68,24.88-33.13,13.77-43.56,4.66,7.11,4.15,17.41,2.55,25.13C1563.7,281.78,1558.93,289.06,1549.18,291.54Z" transform="translate(-176.79 -39.06)" style="fill: #101224"/>
          <path d="M1578,295.49a2.24,2.24,0,0,0-1.93-2.48,2.2,2.2,0,0,0-2.72,1.51,2.25,2.25,0,0,0,1.93,2.48A2.21,2.21,0,0,0,1578,295.49Z" transform="translate(-176.79 -39.06)" style="fill: #101224"/>
          <path d="M1604.84,284.47a1.81,1.81,0,0,0-1.55-2,1.77,1.77,0,0,0-2.19,1.22,1.81,1.81,0,0,0,1.55,2A1.77,1.77,0,0,0,1604.84,284.47Z" transform="translate(-176.79 -39.06)" style="fill: #101224"/>
          <path d="M1618.26,305.35a1.44,1.44,0,0,0-.83-1.79c-.63-.13-1.28.46-1.45,1.32a1.44,1.44,0,0,0,.83,1.79C1617.44,306.8,1618.09,306.21,1618.26,305.35Z" transform="translate(-176.79 -39.06)" style="fill: #101224"/>
        </g>
        <path d="M2086.16,470.7h0c14.79,1.81,28.41-8.41,30.28-22.7l7.17-54.85c1.87-14.28-8.7-27.45-23.49-29.25h0c-14.79-1.8-28.41,8.41-30.28,22.7l-7.16,54.85C2060.8,455.74,2071.37,468.9,2086.16,470.7Z" transform="translate(-176.79 -39.06)" style="fill: #231f20"/>
        <path d="M2013,437.92l57.12,7c24.33,3,46.75-13.84,49.82-37.35l2.78-21.31c3.08-23.51-14.32-45.17-38.65-48.14l-57.12-7c-24.33-3-46.75,13.84-49.82,37.35l-2.78,21.31C1971.31,413.29,1988.7,435,2013,437.92Z" transform="translate(-176.79 -39.06)" style="fill: #231f20"/>
        <path d="M1971.54,315a299.32,299.32,0,0,0-59.27-5.91,205.52,205.52,0,0,0-37.47,3.67,461.89,461.89,0,0,0-55,14.1c-5.09,1.66-10.58,3.28-15.14,5.87-11.53,6.54-25,22.11-29.67,43.93s-9.78,87.06,2.7,96.85,59.77,24.6,75.18,27.36,77.71-2.7,77.71-2.7,7.1-23.2,33.12-18.54,28.53,17.8,28.53,17.8,36.63-.09,55.12-3.42,33.52-12.12,36-23.47c6.89-32.15,11-63.93,14.13-96.58.59-6.08,1-12.67-2.82-17.92-5-6.83-15.05-8.8-23.26-11.5-11.1-3.66-22.1-7.55-33.19-11.22C2016.36,326.13,1994.28,319.44,1971.54,315Z" transform="translate(-176.79 -39.06)" style="fill: #525674"/>
        <path d="M2039.47,412.87l-8.56-1.53c-2.26-.4-3.77-2.31-3.36-4.23l7.86-36.66c.41-1.92,2.59-3.16,4.86-2.75l8.56,1.53c2.26.4,3.77,2.31,3.36,4.22l-7.86,36.66C2043.91,412,2041.73,413.27,2039.47,412.87Z" transform="translate(-176.79 -39.06)" style="fill: #101224"/>
        <polygon points="1880.25 366.32 1891.24 368.29 1883.49 404.43 1872.13 404.21 1880.25 366.32" style="fill: #101224"/>
        <path d="M1769.62,379.46l31.62.63s34.63,6.67,36.71,34.37c2.35,31.39-9.56,51.25-24.83,54s-37.83,2.29-37.83,2.29Z" transform="translate(-176.79 -39.06)" style="fill: #101224"/>
        <g>
          <path d="M1862.81,331c24.91-14.13,114.42-9.95,140.65-8.38-6.86-1.91-13.77-3.68-20.73-5.26-40.84-1.66-102-1.59-122.69,10.15-28.89,16.39-45.36,39.07-50.93,65.08-3.66,17.05-8.75,65.71-11.27,91.17q2.3.93,4.72,1.85c2.46-25,7.66-75,11.35-92.17C1819.52,367.27,1836,346.26,1862.81,331Z" transform="translate(-176.79 -39.06)" style="fill: #101224"/>
          <path d="M1897,346.79c27.79-15.77,145.44-8.67,157.51-7.9-4.95-1.69-9.9-3.38-14.86-5-41.78-2.12-122.15-3.76-145.42,9.45-28.89,16.39-45.36,39.07-50.93,65.07-3.48,16.23-8.26,61.08-10.89,87.32q2.45.72,4.76,1.37c2.6-26,7.43-71.57,10.92-87.83C1853.73,383,1870.19,362,1897,346.79Z" transform="translate(-176.79 -39.06)" style="fill: #101224"/>
          <path d="M1874.5,466.12c8.77-38,14.6-98,53.15-105.49,6.13-1.18,17.42-1.72,31.46-1.84l-12.72,63.66c-2.29,11.72,9.63,22.22,23.46,20.56l22.07-2.65c8.68-1,15.42-6.71,16.76-14.12l11.64-66.3c15.31.55,30.4,1.22,43.57,1.86l-20.06,93.59,4.79.86,20.19-94.2c12,.6,22,1.15,28.72,1.54a18.17,18.17,0,0,0-1.12-4.23c-34.48-2-144.19-7.77-170-2.79-32.73,6.32-43.19,45.48-49.31,74.05L1869,468.81l2.08.59c.13,0,12.22,3.51,16.48,11.15,1.95,3.49,1.93,7.4-.05,11.63a38.2,38.2,0,0,1-5.94,9.18c2-.08,4.11-.17,6.19-.27a44,44,0,0,0,4.28-7.28C1897.83,481.35,1889.1,471.37,1874.5,466.12Zm140.9-106.34-11.54,65.73c-1,5.63-6.14,9.95-12.75,10.74L1969,438.89c-10.5,1.26-19.59-6.71-17.85-15.64l12.89-64.49C1979.39,358.75,1997.42,359.17,2015.4,359.78Z" transform="translate(-176.79 -39.06)" style="fill: #101224"/>
        </g>
        <path d="M2087.81,452.85c-31.19,2-151.53,10.85-163.55,26a44.25,44.25,0,0,0-8.84,20.7c9.48-.69,16.12-1.27,16.12-1.27s7.1-23.2,33.12-18.54,28.53,17.8,28.53,17.8,36.63-.09,55.12-3.42,33.52-12.12,36-23.47Q2086.18,461.75,2087.81,452.85Z" transform="translate(-176.79 -39.06)" style="fill: #101224"/>
        <path d="M2097.4,374c-3.08,27.75-8.49,69.78-15.06,97-3.72,13.44-23.41,20.92-39.45,22.93-8.32,1-19.21,1-47.65,1.18-2.95-8.77-15.86-19.45-39.82-18.67-13.44.44-23.19,11.77-26,19.55C1915,497.18,1868,500.84,1854,498c-12.14-2.44-40.31-7.89-59.15-15.63-5.47-2.26-12.62-5.42-17.22-8.84,10.77,8.34,40.53,18.3,54.18,22.45,15.95,4.82,21.3,5.74,26.74,6.07,20.35.94,53.13-1.56,72.72-3.11a25.1,25.1,0,0,1,1.9-4.42c3.37-6.29,8.35-10.44,12.56-12.26,12.68-6.39,38.86,1.41,44.72,13.42a9.23,9.23,0,0,1,.88,2.64c4-.15,25.85.06,48.53-2.38,4.41-.63,21.27-.78,33.87-8.69a26.43,26.43,0,0,0,11.73-16.57C2089.91,449,2093.71,417.48,2097.4,374Z" transform="translate(-176.79 -39.06)" style="fill: #231f20"/>
        <path d="M1964.08,358.77c-7-1.25-11.71-1.62-11.71-4.07l11.38-53.11c2.2-10.24,12.67-17.36,24.91-17,16.92.57,48.05,1.7,66.52,2.9,13.45.87,27.34,5.38,33.66,15.69,0,0,6.63,12.17,8.42,17.15,2.14,6,15.35,37.39,2.12,38.51-25.89,2.2-25-15.08-27.32-25.1-1.43-6.11-6.13-18.36-6.13-18.36-2.08-3.4-7.57-5.66-12-6-17.84-1.16-48.09-2.26-65-2.83l-6.07,48.66C1981.63,361.24,1971.83,358.77,1964.08,358.77Z" transform="translate(-176.79 -39.06)" style="fill: #282742"/>
        <g>
          <path d="M1624.36,352.63l143.78,17.54s47.18,8.59,41.79,50.74-35,53.48-35,53.48l-95.45,5.94Z" transform="translate(-176.79 -39.06)" style="fill: #1d2242"/>
          <g>
            <polygon points="1441.79 303.28 1480.86 301.25 1602.04 346.24 1588.36 449.11 1577.77 457.66 1541.65 466.8 1441.79 303.28" style="fill: #7b7a89"/>
            <g>
              <path d="M1664.1,340.55l108.74,30c7,1.93,11.43,9,10.36,16.59l-13.62,96c-1.31,9.24-10.12,15.38-18.67,13l-117.73-32.68L1645.39,354C1646.45,344.58,1655.38,338.14,1664.1,340.55Z" transform="translate(-176.79 -39.06)" style="fill: #7b7a89"/>
              <path d="M1625.48,342.42l108.62,30.88c7,2,11.38,9.42,10.24,17.41L1730,491.87c-1.38,9.74-10.25,16.27-18.78,13.83l-105.66-30.2c-6.9-2-11.29-9.18-10.4-17.08l11.49-101.67C1607.78,346.79,1616.77,339.94,1625.48,342.42Z" transform="translate(-176.79 -39.06)" style="fill: #231f20"/>
              <path d="M1630.43,351.84l96.08,27.31c6.2,1.76,10.06,8.33,9.06,15.4L1722.9,484c-1.22,8.61-9.06,14.38-16.62,12.23l-90-25.72c-8.11-2.32-13.27-10.79-12.22-20.07l9.71-86C1614.78,355.71,1622.73,349.66,1630.43,351.84Z" transform="translate(-176.79 -39.06)" style="fill: #3c3b43"/>
              <path d="M1726.52,379.15l-84.33-24a14.57,14.57,0,0,0-.25,1.51L1632.18,443c-1,9.06,4,17.34,11.94,19.6l78.59,22.46c.07-.35.14-.69.19-1l12.68-89.49C1736.58,387.48,1732.71,380.92,1726.52,379.15Z" transform="translate(-176.79 -39.06)" style="fill: #292629"/>
              <path d="M1726.52,379.15l-50.36-14.31a71.59,71.59,0,0,0-13.89,33.45c-5.09,35.93,17.15,68.31,49.68,72.32a54.61,54.61,0,0,0,12.84.06l10.79-76.12C1736.58,387.48,1732.71,380.92,1726.52,379.15Z" transform="translate(-176.79 -39.06)" style="fill: #6177ba"/>
              <path d="M1726.52,379.15l-43.15-12.26a68.72,68.72,0,0,0-6.88,21.74c-4.83,34.07,16.27,64.78,47.11,68.58,1,.13,2,.22,3.06.28l8.92-62.94C1736.58,387.48,1732.71,380.92,1726.52,379.15Z" transform="translate(-176.79 -39.06)" style="fill: #2c3857"/>
            </g>
          </g>
        </g>
      </g>
      <path d="M1784.28,435c0,10.42,16.63,50.81,16.63,75.13s6.62,53.85,17.4,100.75,44.62,120.15,68,142.73,55.73-56.89,46.75-83.82-70.12-110-70.12-131.71,6.29-34.91,13.48-57.49,2.1-57-5.69-60.8,3.3,29.82.3,32.72-8.09-49.22-19.78-57.47,6.59,42.13,6.59,51.1,1.2,15.34-2.4,15.34-4.49-24.32-8.83-38.79-12.14-35.9-22.63-31.56,12.58,29.24,12.58,39.09,3,29.24-1.5,31-9.29-65.72-20.38-68.33-4.49,15.92-.9,31.85,6,41.11.3,41.11-10.49-6.37-18-20.27S1784.28,424.61,1784.28,435Z" transform="translate(-176.79 -39.06)" style="fill: #f37575"/>
      <path d="M1912.68,610.91l-75.88,87.43s24.33,51.11,87.86,83.32,108.91,8.68,108.91,8.68S1982.2,692.85,1912.68,610.91Z" transform="translate(-176.79 -39.06)" style="fill: #ffcb57"/>
    </g>
    <path d="M525.21,593.79a2.56,2.56,0,0,1-1.79-.72c-85.94-83-1-178.18-.11-179.13a2.59,2.59,0,0,1,3.57-.21,2.38,2.38,0,0,1,.23,3.44c-3.41,3.75-82.68,92.67-.11,172.45a2.38,2.38,0,0,1,0,3.45A2.56,2.56,0,0,1,525.21,593.79Z" transform="translate(-176.79 -39.06)" style="fill: #252c64"/>
    <path d="M554.67,672.9a2.61,2.61,0,0,1-1.15-.27c-101.38-50.1-94.45-145.46-94.36-146.42a2.55,2.55,0,0,1,2.72-2.23,2.47,2.47,0,0,1,2.31,2.63c-.08.93-6.66,93.1,91.63,141.67a2.4,2.4,0,0,1,1.1,3.29A2.54,2.54,0,0,1,554.67,672.9Z" transform="translate(-176.79 -39.06)" style="fill: #252c64"/>
    <path d="M1229.64,484.16a2.44,2.44,0,1,1-.09-4.89c2.82-.11,69.22-3.45,91.2-81.63a2.55,2.55,0,0,1,3.1-1.72,2.43,2.43,0,0,1,1.78,3c-23,81.74-95.17,85.21-95.89,85.24Z" transform="translate(-176.79 -39.06)" style="fill: #252c64"/>
    <path d="M2185.34,600.88a2.36,2.36,0,0,1-.58-.07,2.44,2.44,0,0,1-1.88-2.93c29.67-121.64-64.09-212-65-212.89a2.38,2.38,0,0,1,0-3.45,2.6,2.6,0,0,1,3.57,0c1,.92,96.75,93.2,66.43,217.49A2.51,2.51,0,0,1,2185.34,600.88Z" transform="translate(-176.79 -39.06)" style="fill: #252c64"/>
    <path d="M2148.71,244.29a2.57,2.57,0,0,1-1-.2,2.41,2.41,0,0,1-1.33-3.21c23.13-52.23-52.61-132.42-53.38-133.22a2.38,2.38,0,0,1,.15-3.45,2.59,2.59,0,0,1,3.57.14c3.22,3.37,78.73,83.32,54.31,138.45A2.53,2.53,0,0,1,2148.71,244.29Z" transform="translate(-176.79 -39.06)" style="fill: #252c64"/>
  </g>
</svg>
