<svg id="_Layer_" data-name="&lt;Layer&gt;" xmlns="http://www.w3.org/2000/svg" xmlns:xlink="http://www.w3.org/1999/xlink" viewBox="0 0 2233.03 1757.73">
  <defs>
    <filter id="luminosity-noclip" x="402.13" y="-9162" width="1847.02" height="32766" filterUnits="userSpaceOnUse" color-interpolation-filters="sRGB">
      <feFlood flood-color="#fff" result="bg"/>
      <feBlend in="SourceGraphic" in2="bg"/>
    </filter>
    <mask id="mask" x="402.13" y="-9162" width="1847.02" height="32766" maskUnits="userSpaceOnUse">
      <g style="filter: url(#luminosity-noclip)"/>
    </mask>
    <linearGradient id="linear-gradient" x1="792.92" y1="116.35" x2="1930.46" y2="1443.48" gradientUnits="userSpaceOnUse">
      <stop offset="0"/>
      <stop offset="1" stop-color="#fff"/>
    </linearGradient>
    <filter id="luminosity-noclip-2" x="402.13" y="71.15" width="1847.02" height="1512.11" filterUnits="userSpaceOnUse" color-interpolation-filters="sRGB">
      <feFlood flood-color="#fff" result="bg"/>
      <feBlend in="SourceGraphic" in2="bg"/>
    </filter>
    <mask id="mask-2" x="206.22" y="0" width="1847.02" height="1512.11" maskUnits="userSpaceOnUse">
      <g style="filter: url(#luminosity-noclip-2)">
        <g transform="translate(-195.9 -71.15)">
          <g style="mask: url(#mask)">
            <path d="M2249.15,737.86c0-368.21-413.47-666.7-923.51-666.7s-923.51,298.5-923.51,666.7c0,353.52,381.13,642.77,862.93,665.29,88.14,107.8,250.69,180.12,436.65,180.12,279.83,0,506.68-163.77,506.68-365.78,0-63.23-22.23-122.71-61.34-174.6C2212.3,951.48,2249.15,847.78,2249.15,737.86Z" style="mix-blend-mode: multiply;fill: url(#linear-gradient)"/>
          </g>
        </g>
      </g>
    </mask>
    <linearGradient id="linear-gradient-2" x1="792.92" y1="116.35" x2="1930.46" y2="1443.48" gradientUnits="userSpaceOnUse">
      <stop offset="0" stop-color="#eeae80"/>
      <stop offset="1" stop-color="#f8ccdf"/>
    </linearGradient>
  </defs>
  <title>news_icon1</title>
  <g>
    <g style="mask: url(#mask-2)">
      <path d="M2249.15,737.86c0-368.21-413.47-666.7-923.51-666.7s-923.51,298.5-923.51,666.7c0,353.52,381.13,642.77,862.93,665.29,88.14,107.8,250.69,180.12,436.65,180.12,279.83,0,506.68-163.77,506.68-365.78,0-63.23-22.23-122.71-61.34-174.6C2212.3,951.48,2249.15,847.78,2249.15,737.86Z" transform="translate(-195.9 -71.15)" style="fill: url(#linear-gradient-2)"/>
    </g>
    <ellipse cx="1116.52" cy="1681.68" rx="1116.52" ry="76.05" style="fill: #a656a0"/>
    <g>
      <g>
        <path d="M1408.68,400.88c.62-3.64-3.84-16.38-7.78-14.65s1.43,8.92-3.56,17.59-28.82-11.6-31.68-10.34c-4.14,1.82-3.31,4.31-7.73,6.26s-7.89,8.77-10.28,19.67.24,33.53-2.79,41.33c-.57,1.47-1.09,13.61-6.26,25.56,7.35,3.72,19.09,10.13,28.26,7.84,3.2-17.19,9.38-27.26,22-42.21C1403.94,434.11,1408.68,400.88,1408.68,400.88Z" transform="translate(-195.9 -71.15)" style="fill: #f15f5c"/>
        <path d="M1332.17,472.75c-9.63,11.74-27.06-3.76-16.42-14.7,114.8-118.12,108.92-113.34,113-109.31C1434.25,354.08,1427.86,353.49,1332.17,472.75Z" transform="translate(-195.9 -71.15)" style="fill: #555799"/>
        <rect x="1365.34" y="360.64" width="47.31" height="53.38" transform="translate(451.94 -920.77) rotate(43.49)" style="fill: #cfcc2a"/>
        <rect x="1404.99" y="379.87" width="8.56" height="53.38" transform="translate(1955.78 1600.37) rotate(-136.5)" style="fill: #b0af35"/>
        <path d="M1412.09,368.78h0a23.92,23.92,0,0,1-4.36-33.46l17.46-22.69a23.92,23.92,0,0,1,33.45-4.36h0a23.92,23.92,0,0,1,4.36,33.46l-17.46,22.69A23.93,23.93,0,0,1,1412.09,368.78Z" transform="translate(-195.9 -71.15)" style="fill: #47555d"/>
        <path d="M1425.27,363a23.93,23.93,0,0,1-4.36-33.46l17.46-22.68a23.64,23.64,0,0,1,3.13-3.34,23.78,23.78,0,0,0-16.31,9.13l-17.46,22.69a23.85,23.85,0,0,0,34.68,32.43A23.76,23.76,0,0,1,1425.27,363Z" transform="translate(-195.9 -71.15)" style="fill: #333"/>
        <path d="M1368.43,393.11s16.33,35.89,9.33,39-17.53-32.38-17.53-32.38,14.16,33,8.42,35.49-18.17-25.5-18.17-25.5,14.23,26.65,9.58,27.28-12.65-19.35-12.65-19.35.17-6.25,2.17-9.27,1.36-4.87,2.75-6.69,5.19-3.88,6.79-4.58S1364,389.2,1368.43,393.11Z" transform="translate(-195.9 -71.15)" style="fill: #f37575"/>
      </g>
      <path d="M1493.75,375.67c-13,5.58-55.2,74.08-68.89,120.86-7.92,27.06-22.86,55-31.64,62.3h0c-5.92,3.32-12.64,4.06-14.84-7.08-4.13-21-7.53-50.22-8.94-66.34-13-.73-25.51-4.79-38.41-3.8,1.12,61.22,7.86,148.32,31,151.14,12,1.47,37.3-11.37,56.24-33.92,24-28.62,44.15-64.19,44.15-64.19l43-136.13S1506.8,370.09,1493.75,375.67Z" transform="translate(-195.9 -71.15)" style="fill: #131537"/>
      <polygon points="1417.35 1578.61 1416.5 1631.47 1422.38 1631.64 1429.96 1571.39 1417.35 1578.61" style="fill: #1d1c22"/>
      <g>
        <path d="M1572.59,1185s6.3,82.65,16.42,107.34-8,351.1-16.57,377.43a80.27,80.27,0,0,1-7.15,15.63c-9.38,16-11.51,19.31,1.06,19.36,16.16.05,30.3-3,33.44-9.64,5.42-11.42,10.2-50.76,21.25-50.73,0,0,7.55-14.66,5.67-22.39-2.83-11.62-10.73-5.65-10.68-21.8s53.59-261.68,45.2-297.42-14.32-40-14.18-82.52S1572.59,1185,1572.59,1185Z" transform="translate(-195.9 -71.15)" style="fill: #f37575"/>
        <path d="M1536.06,1098.45s-60.28,114.88-56.42,148.9,16.58,61.49,5.66,107.93-97.38,214.86-99.44,245.66c-.87,13,3.09,14.2,3.09,14.2-.17,22.37-7.15,46.34-11.8,51-6,5.93-12.7,35.41-18.37,35.39s-53.56,5.1-53.56,5.1c-1.23-10.92,13.42-2.15,22-24.79s13.79-56.63,24.71-102.51,55.72-255.22,55.88-303.39-4.27-48.42,3.21-80.13,35.44-91.14,35.44-91.14Z" transform="translate(-195.9 -71.15)" style="fill: #f15f5c"/>
        <path d="M1479.64,1247.34c-3.86-34,56.42-148.9,56.42-148.9l-89.61,6.18s-28,59.42-35.44,91.14c-5.48,23.26-4.56,29.59-3.74,50.33,17.13,3.68,43.78,9.06,74.21,14C1480.76,1255.9,1480.12,1251.68,1479.64,1247.34Z" transform="translate(-195.9 -71.15)" style="fill: #e85553"/>
        <path d="M1647.06,1220.26c.14-42.51-74.47-35.27-74.47-35.27s4,52.7,10.79,86.51c25.24,1.21,49.11.72,68.79-2.53C1648.91,1256.54,1647,1244.74,1647.06,1220.26Z" transform="translate(-195.9 -71.15)" style="fill: #f15f5c"/>
      </g>
      <path d="M1473.13,704.64s-10.5,161.81-18.43,200.36-53.28,311.73-53.28,311.73,202,17,250.75,0c0,0,5.44-350.56-6-395.62s-61.65-127.06-61.65-127.06Z" transform="translate(-195.9 -71.15)" style="fill: #5c1145"/>
      <path d="M1492.61,376.41s27.92-21.48,122.47-.13c2.58.58,4.93,103.19,4.93,103.19s-43.87,171.73-35.53,214.59c0,0-50.15,42.32-125,5.48,0,0,9.72-134.87,2.92-164.91s-20.38-57.28-1.11-88.45S1492.61,376.41,1492.61,376.41Z" transform="translate(-195.9 -71.15)" style="fill: #e469a6"/>
      <path d="M1492.61,376.41s27.92-21.48,122.47-.13c2.58.58,4.93,103.19,4.93,103.19s-43.87,171.73-35.53,214.59c0,0-50.15,42.32-125,5.48,0,0,9.72-134.87,2.92-164.91s-20.38-57.28-1.11-88.45S1492.61,376.41,1492.61,376.41Z" transform="translate(-195.9 -71.15)" style="fill: #25275a"/>
      <path d="M1619.44,735.91c1.53-1.54,14.94-21.28,17.8-18.42s-11.87,21.08-11.87,21.08,17.09-17.29,20.46-13.92-22.83,26.72-25.59,26.72S1619.44,735.91,1619.44,735.91Z" transform="translate(-195.9 -71.15)" style="fill: #f15f5c"/>
      <path d="M1596.29,716.4s-7.23,11-1.9,16.35,2.47,10.84,6.08,14.45,19.78,4.18,19.78,4.18a111,111,0,0,1,9.12-33.46c1.48-3.31,6.2-9.81,12.91-18.35A219.26,219.26,0,0,0,1620,686.8C1606.6,704.15,1596.53,716,1596.29,716.4Z" transform="translate(-195.9 -71.15)" style="fill: #f37575"/>
      <path d="M1615,376.44s-9.38,74.53,0,95.06c9.13,20,62.49,43,71.65,83.53,6.84,30.25-37.7,94.07-66.72,131.76,7.26,7.26,19,19.27,26.17,24,29.54-37.59,93.93-126.11,95.79-146.87C1744.21,538.41,1654.71,373.78,1615,376.44Z" transform="translate(-195.9 -71.15)" style="fill: #5e5da8"/>
      <path d="M1615,376.44c-1.41,17.38-2.53,34-2.85,51.75-.3,31.31,1.59,41.18,8.5,49,16,18.6,59,41.31,66,77.81-10-36.19-51.52-56.32-68.29-75.86-6.33-7.29-7.56-15.09-8.33-25C1608.36,431.08,1611.5,399.7,1615,376.44Z" transform="translate(-195.9 -71.15)" style="fill: #828ac3"/>
      <path d="M1617.16,1608.46c-5,29.55-24.45,88.07-35.78,88.07-15.3,0-16.2-.81-16.08-11.14-9.38,16-20,24.24-7.43,24.28,16.15.05,41.35,1.12,44.49-5.5,5.42-11.42,8.5-54.68,19.56-54.65l-3.61,53.26,5.87.17s8.94-73.32,7.06-80.65C1628.62,1612.26,1620.27,1610.26,1617.16,1608.46Z" transform="translate(-195.9 -71.15)" style="fill: #3a3745"/>
      <path d="M1320.27,1692.21c-11.26,10.46-28.39,8.32-27.4,17.07,0,0,62-2.45,67.68-2.43s10.6-34.83,16.57-40.75,2.13,40.81,2.13,40.81l6.11,0s4.25-48.16,10-66.85c4.56-14.88-1.84-21.17-6.42-24.95C1370.21,1650.66,1367.14,1700.69,1320.27,1692.21Z" transform="translate(-195.9 -71.15)" style="fill: #3a3745"/>
      <g>
        <path d="M1587,239.63s38,6.93,38,33.92-5.84,14.79-12,34.07-.43,35.74-26.09,35.74-21.21,1.67-34,9.45-38-5.28-40.77-33.09,44.19-25.88,44.19-46.17S1587,239.63,1587,239.63Z" transform="translate(-195.9 -71.15)" style="fill: #3c1247"/>
        <path d="M1512.18,303.84s13,19,11.39,40.85c-.87,11.8-3.11,26.62-6.64,35.26-3.71,9.05-1.15,16.66,7.83,20.3a25.23,25.23,0,0,0,19,.53c11-4.23,27.72-12.07,32.81-24.36,3.4-8.22-27.37-101.24-27.37-101.24Z" transform="translate(-195.9 -71.15)" style="fill: #f37575"/>
        <path d="M1512.18,303.84l37-28.67s3.62,10.94,8.24,25.64c-8.68,13.12-20.2,25.81-34.49,30.73A77,77,0,0,0,1512.18,303.84Z" transform="translate(-195.9 -71.15)" style="fill: #f15f5c"/>
        <path d="M1486.16,178.78a42.48,42.48,0,0,0-15.66,24.1c-3.7,16,5.69,35,4.71,48.65s19.42,80.6,51.77,67.65,39.88-63.65,40.67-74.74-18.12-49.62-36.05-60S1486.16,178.78,1486.16,178.78Z" transform="translate(-195.9 -71.15)" style="fill: #f37575"/>
        <g>
          <path d="M1498.13,246.51a224.19,224.19,0,0,1-3.12,27.43,16.09,16.09,0,0,0,9.64,1.62c-5.24,2.23-10.85-.71-11.2-.77C1494.38,267.74,1495.25,258.31,1498.13,246.51Z" transform="translate(-195.9 -71.15)" style="fill: #501f5e"/>
          <path d="M1513.05,232.71s6.35-4.93,13.82-5.81,17.78,7.81,17.78,7.81-11.31-6.52-16.28-5.74a28.49,28.49,0,0,0-9.84,4.09Z" transform="translate(-195.9 -71.15)" style="fill: #501f5e"/>
          <path d="M1495.09,232.92s-5.57-4.94-11.89-5.83-14.53,7.72-14.53,7.72,9.17-6.46,13.38-5.67,8.46,4.11,8.46,4.11Z" transform="translate(-195.9 -71.15)" style="fill: #501f5e"/>
          <path d="M1520.44,288.27c-16.07,6-22.06,5.61-27.6,4.39C1500.81,299.09,1514.46,295.37,1520.44,288.27Z" transform="translate(-195.9 -71.15)" style="fill: #fff"/>
          <path d="M1517.87,243.83c.64,2.61,3,4.27,5.28,3.71s3.6-3.14,3-5.75-3-4.27-5.29-3.71S1517.22,241.22,1517.87,243.83Z" transform="translate(-195.9 -71.15)" style="fill: #501f5e"/>
          <path d="M1537.16,244.63c-17-15-22.21-2.6-27.35-1.35,4.26-.08,8.72-5.09,13.47-4.24C1527.16,239.69,1533.15,242.76,1537.16,244.63Z" transform="translate(-195.9 -71.15)" style="fill: #42124a"/>
          <path d="M1482.2,245.69c.61,2.62,2.54,4.36,4.32,3.88s2.73-3,2.13-5.6-2.54-4.36-4.32-3.88S1481.59,243.07,1482.2,245.69Z" transform="translate(-195.9 -71.15)" style="fill: #501f5e"/>
          <path d="M1495.65,246.48c-13.73-14.37-18.46-1.86-22.8-.45,3.56-.22,7.44-5.34,11.38-4.66C1487.45,241.89,1492.36,244.74,1495.65,246.48Z" transform="translate(-195.9 -71.15)" style="fill: #42124a"/>
          <path d="M1519,269.36c1.1,4.48,6.75,6.94,12.62,5.48s9.73-6.27,8.63-10.75-6.76-6.94-12.62-5.48S1517.85,264.88,1519,269.36Z" transform="translate(-195.9 -71.15)" style="fill: #f15f5c"/>
        </g>
        <path d="M1484.49,178.46c1.88-5.27,9.26-20.56,32.15-22q1.13-.1,2.27-.15c14.06-.57,28.18-2.09,42.1,1a53.34,53.34,0,0,1,22.73,10.9c7.86,6.71,15.36,14.4,16.4,24.33,1.89,18.16-6.46,38-.42,55.53l.13.38A38.14,38.14,0,0,1,1579,296.43c-10.68,4.54-19.41,6-25.2-3.58.84-9.86,25.21-41.48,2.83-65.14-1.56,1.13-.67,9.49-4.32,9.6-8.86.25-14.64-19-15.66-27-1.75-7.68-6.26-15-15.55-21.73-11.75-7.53-20.65-9.54-26.8-9.71a56,56,0,0,0-6.32.5c-2.22.42-3.56,1-4,.9A5.76,5.76,0,0,1,1484.49,178.46Z" transform="translate(-195.9 -71.15)" style="fill: #501f5e"/>
        <path d="M1494,167.13s-17.58-1.29-31.47,10.8-11.87,55.55-3.35,63.91-26.07,23-6.78,23.05C1479.74,265,1511.06,170.28,1494,167.13Z" transform="translate(-195.9 -71.15)" style="fill: #501f5e"/>
        <path d="M1489.14,173.62c-25.84,1.22-40.31,23.54-31.7,44.76,1.47,3.59,3.71,7.15,7.38,8.2l1.06-5.36c-1.42-.05-3.48-3.5-4.11-4.78C1452.6,198.11,1464.71,176.66,1489.14,173.62Z" transform="translate(-195.9 -71.15)" style="fill: #6d2a81"/>
        <path d="M1552.22,233.51s1.52-13.75,12.46-9.91,6.37,37.29-3.29,34S1552.22,233.51,1552.22,233.51Z" transform="translate(-195.9 -71.15)" style="fill: #f37575"/>
        <path d="M1554.63,240.17s1.34-14.93,6.8-11,6,18.59.31,19.5S1554.63,240.17,1554.63,240.17Z" transform="translate(-195.9 -71.15)" style="fill: #f15f5c"/>
      </g>
    </g>
    <g>
      <path d="M1816.05,521.54S1700.76,591,1692.84,672.93l34.84,40.34,109.89-88.81Z" transform="translate(-195.9 -71.15)" style="fill: #363a68"/>
      <polygon points="1712.98 299.62 1798.16 299.62 1795.4 573.9 1682.32 581.37 1712.98 299.62" style="fill: #260e0d"/>
      <path d="M1813.42,1684.92c-48,0-46.81,19.31-46.81,19.31H1907s-7-59.35-8-73.39h-33C1862.37,1648,1850.27,1684.92,1813.42,1684.92Z" transform="translate(-195.9 -71.15)" style="fill: #260e0d"/>
      <path d="M2048.17,1692c-43.69,0-52.61-51.85-53.87-61.16h-31.55c0,2.53,0,4.13,0,4.51,0,6.44-8.19,76-8.19,76H2095S2096.15,1692,2048.17,1692Z" transform="translate(-195.9 -71.15)" style="fill: #260e0d"/>
      <path d="M2035.65,1318.66l44.85-371.22-12.67-109.86H1821l-1.76,96.81-25.91,377.2s64.38,314.07,63.28,319.25h46.6c-.08-1.14-13.16-344.36-13.16-344.36l53.25-305.75,20.83,320.92s-9.46,289.28-9.61,329.18h43.86C1998.29,1629.92,2035.65,1318.66,2035.65,1318.66Z" transform="translate(-195.9 -71.15)" style="fill: #2f1954"/>
      <path d="M2069.49,852l-1.66-14.44H1821l-.23,12.65,51.8,17.25a221.28,221.28,0,0,0,129.93,3.24Z" transform="translate(-195.9 -71.15)" style="fill: #0e0e0e"/>
      <path d="M2084.93,443.72c-26.83-29.51-88.94-76.62-157.41-65.25l-86.58,31.11-24.89,151.16.07,287.94,255.08,2.87,24.26-280.29S2111.77,473.24,2084.93,443.72Z" transform="translate(-195.9 -71.15)" style="fill: #f1a97e"/>
      <path d="M1918.82,310.63s-.74,59.07-6.5,89.15c-2.23,11.64,3.22,23.55,13.31,27.84,7.45,3.16,17.3,5,29.65,2.72,32.1-6,33.19-41.3,33.19-41.3l-10.83-107.71Z" transform="translate(-195.9 -71.15)" style="fill: #f37575"/>
      <path d="M1977.64,281.32l-58.82,29.31s-.27,21.8-1.78,45.66c15.35.74,34.63-7.78,55.11-33.48q4.56-5.73,8.53-11.35Z" transform="translate(-195.9 -71.15)" style="fill: #f15f5c"/>
      <path d="M1922.63,159.2a103.28,103.28,0,0,0-28.84,44.89c-8.71,28.13-16.32,48.48-16.32,48.48l9.25,6s-7.37,39.27-1.63,52.67c8.71,20.35,45.43,36.81,87.06-9s45.16-86.18,38.09-105.94S1939,149,1922.63,159.2Z" transform="translate(-195.9 -71.15)" style="fill: #f37575"/>
      <path d="M1985.21,203a50.75,50.75,0,0,0-45.16-9.58c-26.66,7.18-35.64-3.89-30.47-9.58,0,0-23.4.6-32.1-20.35s-6.53-84.39,34.82-72.42,33,40.7,33,40.7,13.25-13.77,25.76-6.58,10.88,17.36,10.88,17.36,11.43,23.34,27.21,26.33,14.15,37.71,14.15,37.71,9.25,7.18,2.72,32.32-44.94,64-44.94,76c0,0-9.47-15.56-1.85-40.1s7.62-38.9-.54-38.9S1985.21,203,1985.21,203Z" transform="translate(-195.9 -71.15)" style="fill: #121841"/>
      <path d="M1973.44,252.16s2.65-20.65,8.57-20.65,11.43,2.24,10,13.92-7.55,24.69-15.3,19.3S1973.44,252.16,1973.44,252.16Z" transform="translate(-195.9 -71.15)" style="fill: #f37575"/>
      <path d="M2050.61,200.64a7.58,7.58,0,0,0-3.63-4.42c-5.54-2.59-12.93,3-17.81,6.86l-.83-1.09c3.28-3.73,6.76-7.45,11.63-9.83,7.16-3.33,13.56.07,16.27,6.38Z" transform="translate(-195.9 -71.15)" style="fill: #121841"/>
      <path d="M2046.16,228a25,25,0,0,0-.19-9.6c-3.54-15.53-20.73-14.18-21.57-14.64v-1c.48.19,24.87-5,28.36,20.07a28.61,28.61,0,0,1,.27,6.66Z" transform="translate(-195.9 -71.15)" style="fill: #121841"/>
      <path d="M1917.9,221.54c0,5.08-2,9.2-4.56,9.2s-4.55-4.12-4.55-9.2,2-9.2,4.55-9.2S1917.9,216.46,1917.9,221.54Z" transform="translate(-195.9 -71.15)" style="fill: #2f499f"/>
      <path d="M1928.14,212.46a18.82,18.82,0,0,0-21.12-3.12l-1.71-6.62c.49-.28,12.1-6.6,23.48,3.63Z" transform="translate(-195.9 -71.15)" style="fill: #2f499f"/>
      <path d="M1900.37,381.21l-19,558.88H1763l34.89-253.85,4.39-157.89s14.54-100.23,38.64-118.78S1900.37,381.21,1900.37,381.21Z" transform="translate(-195.9 -71.15)" style="fill: #555da2"/>
      <path d="M1977.35,243.83s3.45-7,6.54-6,3.79,15.06-1.7,21S1972.08,255,1977.35,243.83Z" transform="translate(-195.9 -71.15)" style="fill: #f15f5c"/>
      <path d="M1995.36,378.16,1982.9,940.09h126.73s4.77-445.38-9.26-491.94S1995.36,378.16,1995.36,378.16Z" transform="translate(-195.9 -71.15)" style="fill: #555da2"/>
      <polygon points="1654.82 313.84 1712.98 299.62 1696.71 577.45 1665.48 419.86 1676.03 412.75 1654.82 313.84" style="fill: #777eb5"/>
      <polygon points="1794.33 577.45 1798.16 299.62 1846.73 321.24 1820.27 412.56 1826.98 417.69 1794.33 577.45" style="fill: #777eb5"/>
      <polygon points="1574.22 653.01 1395.03 525.01 1581.08 508.11 1721.76 656.53 1574.22 653.01" style="fill: #1e3340"/>
      <path d="M1864.45,671.86s19.09,4.27,26.15,11.82c9,9.64,30.38,25.32,39.37,25.32s47.24,3.74,47.24,3.74l6.42,42.1s-142.73-32.69-149.46-39.89,33.47,5.34,33.47,2.14-48.42-6.81-45.92-14.9,44.67,10.89,48.41,6.88-50.91-10.69-50.91-19.24,54.4,12.36,54.4,12.36,1-4.34-13.72-11.29-29-12.54-25.74-16,40.9,18.65,45.86,13.34Z" transform="translate(-195.9 -71.15)" style="fill: #f37575"/>
      <path d="M2065.46,437.28s-20.74,37.94-16.6,92.6,11.21,138.47-.41,165.8-96.69,0-96.69,0v64.68s123.36,50.1,159.09,33.71,32.33-157.6,32.33-226.84S2088.25,387.61,2065.46,437.28Z" transform="translate(-195.9 -71.15)" style="fill: #777eb5"/>
      <path d="M2065.46,437.28c-10.23,22-17,54.54-14.82,88.35,3.84,50.88,16,161.31-6.21,178.1-21.37,13.15-69.67,0-92.68-8,22.58,6,86.48,20.73,94.77-1,7.07-17.38,5.94-59.38,5.27-78.06-2.57-80.72-12.47-109.19,4.59-158.45A127.4,127.4,0,0,1,2065.46,437.28Z" transform="translate(-195.9 -71.15)" style="fill: #eef1f9"/>
      <path d="M1894.8,290.94l1.64,10.16c20.61-2.3,30.82-19.78,30.82-19.78C1915,293.55,1894.8,290.94,1894.8,290.94Z" transform="translate(-195.9 -71.15)" style="fill: #2b3278"/>
    </g>
    <path d="M1691.08,691.85s-4.72,4.77-13.52,19.25c-8.52,14,5.17,27.93,7.82,30.86,5,5.59,14.56,13.11,20.67,16.87s10.14,5.64,16.48,6.93c9.3,1.89,37.57-33.13,35.2-36.36-1.59-2.17-3.7-3.85-6.09-3.11s-30.21,20.18-30.21,20.18,26.92-27.66,26-35.68-5.82-6.92-8.09-4.83-34.79,28.23-34.79,28.23,24.81-32.88,24.19-38.12-7.45-8.76-18.48,4.51c-6.19,7.44-21,19.67-21,19.67s15.13-24.73,14.21-32.59S1691.08,691.85,1691.08,691.85Z" transform="translate(-195.9 -71.15)" style="fill: #f37575"/>
    <path d="M605.39,369.32s-49,351.84-26.57,378l32.35,18.46s8.66-340.56,15.21-384.61Z" transform="translate(-195.9 -71.15)" style="fill: #191919"/>
    <path d="M711.54,1561.17a326.55,326.55,0,0,1,60.2-1c3.94,49.25,8,92.72,10.08,111.05,2,18.16,3.43,34.48,4.71,49L740,1718s4.24-16,5-29.19C745.91,1672.8,729,1617.61,711.54,1561.17Z" transform="translate(-195.9 -71.15)" style="fill: #f37575"/>
    <path d="M539.83,1656.77c.74-6.12-2.13-45.91-5.29-95,15.67.18,31.31.67,46.91,1.61-3.24,47.08-5.72,92.39-6.73,124.47l-48.33-10.49C530.67,1666,537.88,1673,539.83,1656.77Z" transform="translate(-195.9 -71.15)" style="fill: #f1696a"/>
    <path d="M675.47,1429.46c5.91-48,.39-75.41,8.48-109.14s-68.27-374-68.27-374l80.67-191,70.88-7.9s-.87,498.07,2.72,530.89-.89,32.51-6.71,81c-3.56,29.75-1.67,121,22.45,202.68-20.13-1.7-73,3-93,5C676.17,1513.33,671.88,1458.57,675.47,1429.46Z" transform="translate(-195.9 -71.15)" style="fill: #56566f"/>
    <path d="M517.88,1362.56c10.51-35.68,16.76-39.66,19-82.67.56-10.58,10.9-369.42,23.57-403.73,11.55-43.3,84.85-120,84.85-120l97.36,5.22.65,51.46a123.68,123.68,0,0,1-52.68,102.83l-11.47,8c-4.87,26.1-76.4,408.82-87.64,432.39-6.33,13.28,3.19,118.12,3,214.67-15.63.1-60.79,3.5-76.43,4.36C507.45,1494.41,511.33,1384.8,517.88,1362.56Z" transform="translate(-195.9 -71.15)" style="fill: #acaad4"/>
    <g>
      <path d="M611.14,820.17a1.7,1.7,0,0,1,3.21,1.12s-1.17,3.36-3.13,9.66a1.7,1.7,0,0,1-1.72,1.2,1.57,1.57,0,0,1-.41-.07,1.7,1.7,0,0,1-1.12-2.13C609.95,823.57,611.12,820.2,611.14,820.17Z" transform="translate(-195.9 -71.15)" style="fill: #4e4b84"/>
      <path d="M558.53,1260a1.73,1.73,0,0,1,1.66,1.74c-.18,7.5-.33,14.45-.46,20.76a1.7,1.7,0,0,1-1.74,1.67h-.06a1.7,1.7,0,0,1-1.6-1.74c.13-6.31.28-13.27.46-20.77A1.7,1.7,0,0,1,558.53,1260Z" transform="translate(-195.9 -71.15)" style="fill: #4e4b84"/>
      <path d="M545,1364c1.39-6.83,2.9-13.67,4.48-20.33a1.7,1.7,0,1,1,3.31.79c-1.57,6.62-3.07,13.43-4.46,20.23a1.7,1.7,0,0,1-1.76,1.36l-.25,0A1.7,1.7,0,0,1,545,1364Z" transform="translate(-195.9 -71.15)" style="fill: #4e4b84"/>
      <path d="M539.49,1407A1.7,1.7,0,0,1,538,1405c.91-6.73,2-13.66,3.14-20.58a1.68,1.68,0,0,1,2-1.39,1.7,1.7,0,0,1,1.39,2c-1.17,6.89-2.23,13.77-3.13,20.47a1.71,1.71,0,0,1-1.78,1.47Z" transform="translate(-195.9 -71.15)" style="fill: #4e4b84"/>
      <path d="M555.7,1319.85c0-1.22.08-7.12.25-16.61a1.7,1.7,0,0,1,3.41.06c-.18,10.7-.25,16.83-.25,16.83v.24l-.07.23s-.4,1.33-1.09,3.79a1.7,1.7,0,0,1-1.73,1.24,1.56,1.56,0,0,1-.36-.06,1.7,1.7,0,0,1-1.18-2.09C555.19,1321.57,555.55,1320.34,555.7,1319.85Z" transform="translate(-195.9 -71.15)" style="fill: #4e4b84"/>
      <path d="M534.75,1465.63a1.71,1.71,0,0,1,1.61,1.8l-1.16,20.72a1.7,1.7,0,0,1-3.4-.19l1.16-20.73A1.7,1.7,0,0,1,534.75,1465.63Z" transform="translate(-195.9 -71.15)" style="fill: #4e4b84"/>
      <path d="M530.1,1548.54a1.7,1.7,0,0,1,1.61,1.8l-1.16,20.73a1.7,1.7,0,1,1-3.4-.19l1.16-20.73A1.7,1.7,0,0,1,530.1,1548.54Z" transform="translate(-195.9 -71.15)" style="fill: #4e4b84"/>
      <path d="M578.85,951.12c1.28-6.79,2.62-13.65,4-20.39a1.7,1.7,0,0,1,3.33.68c-1.37,6.72-2.71,13.56-4,20.34a1.7,1.7,0,0,1-1.77,1.39l-.22,0A1.7,1.7,0,0,1,578.85,951.12Z" transform="translate(-195.9 -71.15)" style="fill: #4e4b84"/>
      <path d="M537.5,1424.2a1.7,1.7,0,0,1,1.53,1.85c-.58,6.09-1,12.15-1.37,18l-.15,2.63a1.7,1.7,0,0,1-3.4-.19l.15-2.64c.33-5.89.8-12,1.38-18.13A1.71,1.71,0,0,1,537.5,1424.2Z" transform="translate(-195.9 -71.15)" style="fill: #4e4b84"/>
      <path d="M532.43,1507.08a1.71,1.71,0,0,1,1.61,1.8l-1.16,20.73a1.7,1.7,0,1,1-3.4-.19l1.16-20.73A1.7,1.7,0,0,1,532.43,1507.08Z" transform="translate(-195.9 -71.15)" style="fill: #4e4b84"/>
      <path d="M561.08,1137.13a1.7,1.7,0,0,1,1.78-1.62h0a1.7,1.7,0,0,1,1.61,1.78q-.49,10.41-.92,20.74a1.7,1.7,0,0,1-1.77,1.63h0a1.7,1.7,0,0,1-1.61-1.77C560.44,1151,560.75,1144.07,561.08,1137.13Z" transform="translate(-195.9 -71.15)" style="fill: #4e4b84"/>
      <path d="M559.67,1218.51a1.75,1.75,0,0,1,1.65,1.76c-.21,7.16-.41,14.1-.59,20.75a1.71,1.71,0,0,1-1.75,1.66h-.05a1.71,1.71,0,0,1-1.61-1.75c.18-6.66.38-13.6.59-20.76A1.71,1.71,0,0,1,559.67,1218.51Z" transform="translate(-195.9 -71.15)" style="fill: #4e4b84"/>
      <path d="M567.85,1052.64a1.7,1.7,0,0,1,1.57,1.83c-.52,6.77-1,13.67-1.47,20.68a1.7,1.7,0,0,1-1.79,1.59h0a1.7,1.7,0,0,1-1.59-1.81c.47-7,1-13.94,1.47-20.72a1.71,1.71,0,0,1,1.79-1.57Z" transform="translate(-195.9 -71.15)" style="fill: #4e4b84"/>
      <path d="M591.77,890.15a1.7,1.7,0,1,1,3.31.79c-1.57,6.62-3.12,13.42-4.61,20.2a1.71,1.71,0,0,1-1.76,1.34l-.27,0a1.7,1.7,0,0,1-1.3-2C588.64,903.6,590.19,896.78,591.77,890.15Z" transform="translate(-195.9 -71.15)" style="fill: #4e4b84"/>
      <path d="M559.32,1178.64a1.7,1.7,0,0,1,1.77-1.64h0a1.7,1.7,0,0,1,1.61,1.76c-.27,7-.51,14-.74,20.75a1.71,1.71,0,0,1-1.76,1.64h0a1.7,1.7,0,0,1-1.61-1.76Q558.93,1189.2,559.32,1178.64Z" transform="translate(-195.9 -71.15)" style="fill: #4e4b84"/>
      <path d="M565,1094.05h0a1.7,1.7,0,0,1,1.6,1.8q-.25,4.15-.48,8.33-.34,6.17-.67,12.37a1.7,1.7,0,0,1-1.79,1.61h0a1.7,1.7,0,0,1-1.61-1.79q.33-6.21.67-12.39.24-4.18.48-8.34A1.7,1.7,0,0,1,565,1094.05Z" transform="translate(-195.9 -71.15)" style="fill: #4e4b84"/>
      <path d="M604.21,848.71a1.7,1.7,0,0,1,1.18,2.1c-1.78,6.39-3.58,13.12-5.35,20a1.7,1.7,0,0,1-1.74,1.28A1.79,1.79,0,0,1,598,872a1.7,1.7,0,0,1-1.23-2.07c1.77-6.92,3.58-13.67,5.37-20.08A1.71,1.71,0,0,1,604.21,848.71Z" transform="translate(-195.9 -71.15)" style="fill: #4e4b84"/>
      <path d="M573.08,1013.17c-.67,6.44-1.34,13.39-2,20.63a1.7,1.7,0,0,1-1.79,1.55h-.06a1.7,1.7,0,0,1-1.54-1.84c.64-7.27,1.31-14.23,2-20.69a1.74,1.74,0,0,1,1.87-1.52A1.7,1.7,0,0,1,573.08,1013.17Z" transform="translate(-195.9 -71.15)" style="fill: #4e4b84"/>
      <path d="M578.51,972.14c-1,6.06-2.07,12.95-3,20.46a1.7,1.7,0,0,1-1.78,1.48h-.12a1.7,1.7,0,0,1-1.47-1.91c1-7.56,2-14.49,3.06-20.6a1.7,1.7,0,0,1,3.36.58Z" transform="translate(-195.9 -71.15)" style="fill: #4e4b84"/>
    </g>
    <g>
      <path d="M790.34,1655.58s-16.1-.84-18.18,16.06,17.12,41.51,17.12,41.51l20.85-11.78s-17.44-10.88-17.93-27S790.34,1655.58,790.34,1655.58Z" transform="translate(-195.9 -71.15)" style="fill: #ffda88"/>
      <path d="M772.33,1674.09a21.6,21.6,0,0,0-.14,3.25,24.37,24.37,0,0,1,0-5.7c2.08-16.9,18.18-16.06,18.18-16.06a11.28,11.28,0,0,1,.6,2.53C788.88,1658.08,774.27,1658.39,772.33,1674.09Z" transform="translate(-195.9 -71.15)" style="fill: #fff"/>
      <path d="M730.76,1742.26l43.51,4.61c17.92,1.9,46.27,7.09,55.23,8s43.63-16.75,42.23-23.87-31-8.52-45.55-17.91-39.06-31.05-44.32-33.49c-8.22-3.81-31,2-36.66,6.64S726.77,1737.25,730.76,1742.26Z" transform="translate(-195.9 -71.15)" style="fill: #cfcc2a"/>
      <path d="M738.42,1731.12c72.65-3.69,50,15.9,121.92,3.79-17.72,5.09-43.6,9.27-61.29,3.8-9.61-3-19.87-4.08-30-5.22S748.67,1731.75,738.42,1731.12Z" transform="translate(-195.9 -71.15)" style="fill: #e9dd14"/>
      <g>
        <path d="M788.54,1717a2.75,2.75,0,0,0,3.84.74,143.45,143.45,0,0,1,23.21-12.8c-1.54-1.3-3.1-2.66-4.68-4a155.1,155.1,0,0,0-21.63,12.23A2.83,2.83,0,0,0,788.54,1717Z" transform="translate(-195.9 -71.15)" style="fill: #fff"/>
        <path d="M786.43,1705.29a2.75,2.75,0,0,0,3.86-.66,69.81,69.81,0,0,1,11.69-12.2c-1.46-1.29-2.88-2.53-4.26-3.72a73.36,73.36,0,0,0-11.93,12.68A2.8,2.8,0,0,0,786.43,1705.29Z" transform="translate(-195.9 -71.15)" style="fill: #fff"/>
      </g>
    </g>
    <g>
      <path d="M577.74,1658.36s-2.69,31.46-4.51,52.85,6.16,39.18-20.64,41.33-54.24-7.8-55.8-21.87,27.25-44.57,28.43-58.41,9.21-18.86,13.24-14.08S577.74,1658.36,577.74,1658.36Z" transform="translate(-195.9 -71.15)" style="fill: #cfcc2a"/>
      <path d="M570.42,1744.16c-5,4.72-11.55,5-18.77,4.69-15.37-.49-48.81-4.12-54.86-18.18-.71,3.73,1.07,7.71,3.42,10.76C517.55,1762.73,566.63,1761.53,570.42,1744.16Z" transform="translate(-195.9 -71.15)" style="fill: #ffda88"/>
      <path d="M527.19,1686.07c-1.37,17.63,22.48,24.83,31.19,9.44l.41-.74C572.55,1670,574,1663,576.86,1657.31c3.16-6.27,7.31-14.88-6-22.35s-33.51-8.49-34-2.2C536.47,1637,529.25,1659.55,527.19,1686.07Z" transform="translate(-195.9 -71.15)" style="fill: #ffda88"/>
      <path d="M570.87,1635c13.3,7.47,9.15,16.08,6,22.35-2.84,5.64-4.31,12.65-18.07,37.46l-.41.74a17.49,17.49,0,0,1-2.69,3.61q.36-.54.68-1.11l.41-.74c13.76-24.81,15.22-31.81,18.06-37.45,3.16-6.28,7.31-14.88-6-22.35-10.92-6.13-26.48-7.92-32-4.89C537.75,1626.49,557.69,1627.56,570.87,1635Z" transform="translate(-195.9 -71.15)" style="fill: #fff"/>
      <path d="M555.34,1699.47s2.24-39,7.93-40.08a90.61,90.61,0,0,1,14.48-1s-6.18,39-13.33,45S555.34,1699.47,555.34,1699.47Z" transform="translate(-195.9 -71.15)" style="fill: #cfcc2a"/>
      <path d="M526.15,1668.6a1.6,1.6,0,0,0,.53,1.33c14.83,13,37.64,3.17,38.61,2.74a1.59,1.59,0,0,0-1.29-2.91c-.22.1-21.93,9.47-35.22-2.23a1.59,1.59,0,0,0-2.63,1.06Z" transform="translate(-195.9 -71.15)" style="fill: #fff"/>
      <path d="M523.89,1684.11a1.59,1.59,0,0,0,.5,1.3c9.14,8.53,36.19,2.51,37.34,2.26a1.59,1.59,0,0,0-.7-3.1c-7.36,1.67-27.9,4.65-34.47-1.48a1.59,1.59,0,0,0-2.67,1Z" transform="translate(-195.9 -71.15)" style="fill: #fff"/>
      <path d="M521.88,1695.25a1.57,1.57,0,0,0,.37,1.16c7.14,8.47,35.86,4.27,39.11,3.76a1.59,1.59,0,0,0-.49-3.14c-8.34,1.3-31.11,3.36-36.19-2.67a1.59,1.59,0,0,0-2.8.89Z" transform="translate(-195.9 -71.15)" style="fill: #fff"/>
      <path d="M560.47,1715.44s5.05,20.73.83,24.29-54.54-1.46-53.8-10.18,13.57-24.92,18.18-25.86S560.47,1715.44,560.47,1715.44Z" transform="translate(-195.9 -71.15)" style="fill: #e9dd14"/>
    </g>
    <path d="M865.38,531.26C808,505.51,776,397.11,757.23,396c-17.09-1-27.13,5-27.13,5s-12.89,107.42,16,117.66c19.06,6.76,77.69,81,120,98.78C854.1,595.3,853.36,541.4,865.38,531.26Z" transform="translate(-195.9 -71.15)" style="fill: #aa2240"/>
    <path d="M730.1,401s-23-11.33-117.79.26c-4.8.59-13.77,110.28-13.77,110.28s46.79,204.8,37,250.75c0,0,56.82,41,138,2.81,0,0-14.16-157.19-6.27-189.38s23-61.23,2.86-95.12S730.1,401,730.1,401Z" transform="translate(-195.9 -71.15)" style="fill: #e02f56"/>
    <path d="M626.38,412.08s-6.47-15.55-25.61-8.18C552.4,422.52,566.18,564,582.52,618.67s129.69-42.45,129.69-42.45c3.36-21.16-44.61-73.17-44.61-73.17s-29.07,46.45-37.86,37.66S645.43,450.14,626.38,412.08Z" transform="translate(-195.9 -71.15)" style="fill: #e55a78"/>
    <g>
      <path d="M635.15,263.24s-38.06,6.94-38.06,33.93,5.84,14.8,12,34.08.43,35.76,26.1,35.76,21.22,1.67,34,9.46,38.06-5.29,40.79-33.11-44.21-25.89-44.21-46.19S635.15,263.24,635.15,263.24Z" transform="translate(-195.9 -71.15)" style="fill: #3c1247"/>
      <path d="M710,327.48s-13,19.06-11.39,40.87c.87,11.8,3.11,26.64,6.65,35.28,3.71,9.06,1.15,16.67-7.83,20.31a25.26,25.26,0,0,1-19,.53c-11-4.23-27.74-12.08-32.83-24.38C642.18,391.86,673,298.8,673,298.8Z" transform="translate(-195.9 -71.15)" style="fill: #f37575"/>
      <path d="M710,327.48,673,298.8s-3.62,10.94-8.24,25.65c8.68,13.13,20.21,25.82,34.51,30.75A77,77,0,0,1,710,327.48Z" transform="translate(-195.9 -71.15)" style="fill: #f15f5c"/>
      <path d="M736,202.36a42.5,42.5,0,0,1,15.67,24.11c3.7,16-5.7,35-4.71,48.67s-19.43,80.64-51.8,67.69-39.9-63.69-40.7-74.79,18.13-49.64,36.07-60S736,202.36,736,202.36Z" transform="translate(-195.9 -71.15)" style="fill: #f37575"/>
      <g>
        <path d="M724,270.12a224.33,224.33,0,0,0,3.12,27.45,16.11,16.11,0,0,1-9.64,1.62c5.25,2.23,10.86-.71,11.2-.77C727.76,291.37,726.9,281.93,724,270.12Z" transform="translate(-195.9 -71.15)" style="fill: #501f5e"/>
        <path d="M709.08,256.32s-6.35-4.94-13.83-5.81-17.79,7.81-17.79,7.81,11.32-6.53,16.29-5.74a28.46,28.46,0,0,1,9.84,4.1Z" transform="translate(-195.9 -71.15)" style="fill: #501f5e"/>
        <path d="M727.06,256.52s5.57-4.94,11.89-5.84,14.54,7.73,14.54,7.73-9.17-6.47-13.39-5.67-8.46,4.11-8.46,4.11Z" transform="translate(-195.9 -71.15)" style="fill: #501f5e"/>
        <path d="M701.7,311.91c16.07,6,22.06,5.62,27.61,4.39C721.34,322.73,707.67,319,701.7,311.91Z" transform="translate(-195.9 -71.15)" style="fill: #fff"/>
        <path d="M704.27,267.44c-.64,2.61-3,4.27-5.29,3.71s-3.6-3.14-3-5.75,3-4.27,5.29-3.71S704.91,264.82,704.27,267.44Z" transform="translate(-195.9 -71.15)" style="fill: #501f5e"/>
        <path d="M685,268.24c17-15,22.22-2.6,27.36-1.35-4.26-.08-8.72-5.09-13.47-4.24C695,263.3,689,266.36,685,268.24Z" transform="translate(-195.9 -71.15)" style="fill: #42124a"/>
        <path d="M740,269.3c-.61,2.62-2.54,4.36-4.32,3.88s-2.73-3-2.12-5.6,2.54-4.36,4.32-3.88S740.56,266.68,740,269.3Z" transform="translate(-195.9 -71.15)" style="fill: #501f5e"/>
        <path d="M726.5,270.08c13.73-14.38,18.47-1.86,22.81-.45-3.56-.22-7.44-5.34-11.38-4.66C734.69,265.5,729.79,268.35,726.5,270.08Z" transform="translate(-195.9 -71.15)" style="fill: #42124a"/>
        <path d="M703.18,293c-1.1,4.48-6.76,6.94-12.63,5.48s-9.74-6.28-8.64-10.76,6.76-6.94,12.64-5.48S704.28,288.5,703.18,293Z" transform="translate(-195.9 -71.15)" style="fill: #f15f5c"/>
      </g>
      <path d="M737.66,202c-1.88-5.28-9.27-20.57-32.17-22q-1.13-.1-2.28-.15c-14.07-.58-28.19-2.1-42.12,1a53.31,53.31,0,0,0-22.74,10.9c-7.87,6.71-15.37,14.41-16.41,24.35-1.9,18.18,6.46,38,.42,55.56l-.13.38a38.16,38.16,0,0,0,20.85,48c10.68,4.54,19.41,6,25.22-3.58-.84-9.87-29.74-44.15-5.2-66.63,1.56,1.13,3,11,6.69,11.05,8.87.25,14.64-19,15.66-27,1.75-7.69,6.27-15,15.56-21.74,11.76-7.53,20.66-9.55,26.82-9.72a55.94,55.94,0,0,1,6.32.5c2.22.42,3.56,1,4,.9A5.78,5.78,0,0,0,737.66,202Z" transform="translate(-195.9 -71.15)" style="fill: #501f5e"/>
      <path d="M728.18,190.7s17.59-1.29,31.49,10.81,11.87,55.58,3.35,63.94,26.09,23,6.78,23.07C742.42,288.6,711.08,193.85,728.18,190.7Z" transform="translate(-195.9 -71.15)" style="fill: #501f5e"/>
      <path d="M733,197.19c25.86,1.22,40.33,23.55,31.72,44.78-1.47,3.59-3.71,7.15-7.39,8.2l-1.06-5.37c1.42-.05,3.48-3.5,4.11-4.78C769.57,221.69,757.45,200.24,733,197.19Z" transform="translate(-195.9 -71.15)" style="fill: #6d2a81"/>
      <path d="M669.9,257.11s-1.52-13.76-12.47-9.92-6.37,37.31,3.3,34S669.9,257.11,669.9,257.11Z" transform="translate(-195.9 -71.15)" style="fill: #f37575"/>
      <path d="M667.48,263.77s-1.34-14.94-6.8-11-6,18.6-.31,19.5S667.48,263.77,667.48,263.77Z" transform="translate(-195.9 -71.15)" style="fill: #f15f5c"/>
    </g>
    <g>
      <path d="M802,388.68c0,5.78,10.18,28.15,10.18,41.62s4,29.83,10.65,55.82,29,118.77,43.28,131.28,19.91-71.2,14.41-86.12-30.39-73.46-30.39-85.49,3.85-19.34,8.25-31.85,1.28-31.6-3.49-33.68,2,16.52.19,18.13-5-27.27-12.1-31.84,4,23.34,4,28.31.74,8.5-1.46,8.5-2.75-13.47-5.41-21.49-7.43-19.89-13.84-17.48S834,380.58,834,386s1.84,16.2-.92,17.16-5.69-36.41-12.47-37.85-2.75,8.82-.55,17.64,3.67,22.78.19,22.78-6.42-3.53-11-11.23S802,382.91,802,388.68Z" transform="translate(-195.9 -71.15)" style="fill: #f37575"/>
      <g>
        <path d="M619.76,383.07h0a22.74,22.74,0,0,1-22.67-22.67V312.53a22.74,22.74,0,0,1,22.67-22.67h0a22.74,22.74,0,0,1,22.67,22.67V360.4A22.74,22.74,0,0,1,619.76,383.07Z" transform="translate(-195.9 -71.15)" style="fill: #231f20"/>
        <rect x="402.63" y="198.2" width="122.78" height="93.21" rx="13.78" ry="13.78" style="fill: #231f20"/>
        <path d="M731.78,261.34a242.37,242.37,0,0,1,49.84,1.14,166.32,166.32,0,0,1,30.71,7.08,376.12,376.12,0,0,1,44.15,17.88c4,2,8.43,3.92,11.93,6.62,8.86,6.83,18.35,21.61,19.87,40.85s-1.33,75.82-12.75,82.92-52.28,14.87-65.37,15.63S745.95,423,745.95,423s-3.38-20.67-25.48-19.4-25.61,12.3-25.61,12.3-30.4-3.91-45.38-8.72-26.51-13.93-27.3-23.93c-2.23-28.34-2.17-56.07-1.25-84.45.17-5.29.51-11,4.28-15.1,4.92-5.34,13.45-6,20.55-7.45,9.61-2,19.16-4.17,28.77-6.16C693.38,266.17,712.43,262.74,731.78,261.34Z" transform="translate(-195.9 -71.15)" style="fill: #121841"/>
        <path d="M664.79,338.27l7.27-.42a3.24,3.24,0,0,0,3.24-3.28l-2.54-32.32a3.4,3.4,0,0,0-3.73-2.87l-7.27.42a3.24,3.24,0,0,0-3.25,3.28l2.55,32.31A3.4,3.4,0,0,0,664.79,338.27Z" transform="translate(-195.9 -71.15)" style="fill: #101224"/>
        <polygon points="455.11 258.84 445.78 259.38 448.29 291.24 457.74 292.24 455.11 258.84" style="fill: #101224"/>
        <path d="M892.4,337.85l-26.31-2.78s-29.48,2.1-34.2,25.68c-5.36,26.72,2.38,45,14.76,49s31.15,5.93,31.15,5.93Z" transform="translate(-195.9 -71.15)" style="fill: #101224"/>
        <g>
          <path d="M820.3,286.48c-19.14-14.75-93.89-20.54-115.84-21.94,5.9-.92,11.83-1.72,17.78-2.34,34.08,2.86,84.83,9.32,100.74,21.58,22.2,17.11,33.41,38.32,35.22,61.24,1.18,15,.13,57.38-.53,79.51-1.34.37-2.72.74-4.11,1.1.66-21.71,1.77-65.19.58-80.37C852.31,322.15,840.93,302.37,820.3,286.48Z" transform="translate(-195.9 -71.15)" style="fill: #101224"/>
          <path d="M790.19,296.43C768.84,280,670.41,273.74,660.3,273.14c4.29-.94,8.58-1.87,12.88-2.77,34.91,2.56,101.79,9.57,119.69,23.36,22.2,17.12,33.41,38.32,35.21,61.24,1.13,14.31.23,53.34-.43,76.16l-4.1.68c.66-22.63,1.59-62.26.46-76.61C822.19,332.1,810.81,312.33,790.19,296.43Z" transform="translate(-195.9 -71.15)" style="fill: #101224"/>
          <path d="M778.43,423.27a38.5,38.5,0,0,0,2.76,6.7l5.1.88a33.27,33.27,0,0,1-3.93-8.51c-1.19-3.84-.78-7.2,1.21-10,4.36-6.11,14.78-7.84,14.89-7.85l1.79-.29-2.65-33.66c-2-25.19-6.42-59.93-32.9-68.79-20.85-7-112.54-13.51-141.38-15.42a16.17,16.17,0,0,0-1.38,3.52c5.6.37,14,.95,24,1.69l6.54,83,4.07-.23-6.5-82.51c11,.83,23.6,1.83,36.37,3L688.9,353c.31,6.51,5.28,12.08,12.38,13.89l18,4.59c11.3,2.87,22.34-4.9,21.7-15.21l-3.65-56c11.64,1.57,21,3.22,25.91,4.88,31.19,10.44,29.52,62.61,32.67,96.2C783.25,404.28,774.93,411.95,778.43,423.27ZM733.24,299.7l3.7,56.75c.48,7.85-7.93,13.74-16.51,11.56l-18-4.59c-5.4-1.37-9.18-5.61-9.42-10.56l-2.45-57.68C705.52,296.55,720.52,298.08,733.24,299.7Z" transform="translate(-195.9 -71.15)" style="fill: #101224"/>
        </g>
        <path d="M620.32,367.56c25.67,5,124.6,25.2,132.93,39.5a39.07,39.07,0,0,1,5.09,18.71c-7.8-1.59-13.24-2.78-13.24-2.78s-3.38-20.67-25.48-19.4S694,415.89,694,415.89s-30.4-3.91-45.38-8.72-26.51-13.93-27.3-23.93Q620.72,375.37,620.32,367.56Z" transform="translate(-195.9 -71.15)" style="fill: #101224"/>
        <path d="M620.92,298.79c-.45,24.17-.52,60.84,2,84.87,1.63,11.93,17.17,20.43,30.26,23.83,6.8,1.69,15.84,2.87,39.42,6,3.4-7.22,15.27-15,35.07-11.86,11.11,1.79,18,12.54,19.44,19.52,11.87,2.59,50.47,10.66,62.38,9.69,10.34-.83,34.31-2.55,50.79-7.23,4.79-1.37,11.06-3.34,15.25-5.79-9.85,6-35.63,11.48-47.41,13.61-13.76,2.47-18.3,2.7-22.85,2.41-17-1.32-43.93-6.91-60-10.29a21.8,21.8,0,0,0-1.09-4,23.37,23.37,0,0,0-9.09-11.84c-9.83-6.82-32.41-2.86-38.58,6.84a8.29,8.29,0,0,0-1,2.18c-3.31-.55-21.46-2.65-40-7.13-3.59-1-17.57-2.9-27.18-11a22.89,22.89,0,0,1-7.94-15.46C619,364,619.26,336.56,620.92,298.79Z" transform="translate(-195.9 -71.15)" style="fill: #231f20"/>
        <path d="M696.44,307a54.65,54.65,0,0,0,.21,12.07c.66,10.21,10.84,16,10.65,15.88,23.86,16.69,60.59,10.11,90.85,6.8,48.76-5.59,101.7-15.67,111.81-19.69,15.35-6.36,7.47-24,7.17-26.33s10.16-8.48,12.38-9.76a69.19,69.19,0,0,0-11.25,6.86c-2.93,2.49-2,2.48-.93,7.7,1.38,6.64,1.25,13.61-4.55,18-3.16,2.45-7.94,3.14-12.22,4.07-35,7.83-130.83,21.88-156.94,20.9A71.34,71.34,0,0,1,717,337.84c-6.14-2.75-10.24-5.28-14.93-13.13a40.19,40.19,0,0,1-4.86-12.48A18.94,18.94,0,0,1,696.44,307Z" transform="translate(-195.9 -71.15)" style="fill: #312c3a"/>
        <path d="M841.4,318.29c5.94-.34,10.42-4.87,10-10.11l-3.69-46.83c-.71-9-8.63-16.24-18.84-17.17-14.1-1.29-40.07-3.57-55.53-4.48-11.26-.66-22.21,4-28.57,12.21l-9.92,12.77c-3.36,4.32-7.13,13.23,2.82,13.23,5.75,0,11.63,1.89,15-2.44l9.92-12.77a11.16,11.16,0,0,1,9.41-4c14.93.88,40.16,3.09,54.22,4.37l3.65,46.37C830.3,314.66,835.45,318.63,841.4,318.29Z" transform="translate(-195.9 -71.15)" style="fill: #282742"/>
        <path d="M919.22,272.42s-19.3,1.86-25.23,7.85-1.73,4.79-9.06,12.2-113.34,16.65-126.18,11.92-10-19.11-17.92-21.67S698,282.61,696.44,307s9.19,27.49,31.24,36c20.39,7.88,173.95-16,184.77-23.2s4.44-21.51,4.23-24.2S929.49,286,929.49,286Z" transform="translate(-195.9 -71.15)" style="fill: #494852"/>
        <g>
          <path d="M890.12,301.82a46.71,46.71,0,0,0-5.39-9.17l.21-.19c.86-.87,1.56-1.62,2.14-2.27a50.06,50.06,0,0,1,6.25,10.39A44,44,0,0,1,897.15,320c-.05,1.51-.18,3-.38,4.55l-3.61.8A41,41,0,0,0,890.12,301.82Z" transform="translate(-195.9 -71.15)" style="fill: #29233a"/>
          <path d="M840.38,304.69c-.49-1.13-1-2.2-1.58-3.22l3.63-.41c.39.77.78,1.56,1.14,2.39a44,44,0,0,1,3.83,19.41,47.36,47.36,0,0,1-1.7,11l-3.76.58A41.58,41.58,0,0,0,840.38,304.69Z" transform="translate(-195.9 -71.15)" style="fill: #29233a"/>
          <path d="M789.78,310.87a44.79,44.79,0,0,0-2.86-5.44l3.85-.16c.77,1.35,1.52,2.8,2.21,4.36A44.05,44.05,0,0,1,796.81,329a47.74,47.74,0,0,1-1.91,11.74l-3.73.42A41.65,41.65,0,0,0,789.78,310.87Z" transform="translate(-195.9 -71.15)" style="fill: #29233a"/>
        </g>
        <path d="M927.74,298c10.85,5.58,24.68,4.89,36.79,4.85a332.74,332.74,0,0,0,63.9-6.83c12.53-2.5,20.11-17.5,17-27.91a22.24,22.24,0,0,0-8.57-11.72c-5-3.54-10.56-4.72-16.81-5.3a286,286,0,0,0-47.09-.51c-12.31.88-24.66,2.08-36.67,4.68-10,2.17-20.14,7.56-22.64,17-2.67,10.09,3.46,19.76,13.06,25.17C927,297.64,927.38,297.83,927.74,298Z" transform="translate(-195.9 -71.15)" style="fill: #29233a"/>
        <path d="M1013.24,255.35c-17.15,5.37-12.4,33.21-1,39.43-5.4-4.89-7.38-13.6-7.87-20.4C1003.79,266.74,1006,259.6,1013.24,255.35Z" transform="translate(-195.9 -71.15)" style="fill: #101224"/>
        <path d="M989.05,258.51a1.94,1.94,0,0,0,2.13,1.64,1.84,1.84,0,0,0,1.85-1.87,1.93,1.93,0,0,0-2.12-1.64A1.84,1.84,0,0,0,989.05,258.51Z" transform="translate(-195.9 -71.15)" style="fill: #101224"/>
        <path d="M970,273.69a1.56,1.56,0,0,0,1.71,1.32,1.48,1.48,0,0,0,1.49-1.5,1.55,1.55,0,0,0-1.71-1.32A1.48,1.48,0,0,0,970,273.69Z" transform="translate(-195.9 -71.15)" style="fill: #101224"/>
        <path d="M954.35,259.27c.06.75.54,1.34,1.08,1.31s.93-.67.86-1.43-.54-1.34-1.08-1.31S954.29,258.51,954.35,259.27Z" transform="translate(-195.9 -71.15)" style="fill: #101224"/>
        <g>
          <path d="M1015.89,330H894.64s-40.1,2.44-40.19,39.21,23.26,49.62,23.26,49.62L956.3,434Z" transform="translate(-195.9 -71.15)" style="fill: #1d2242"/>
          <g>
            <polygon points="858.63 236.14 822.75 230.27 705.21 256.55 705.36 347.23 714.13 355.76 746.41 367.49 858.63 236.14" style="fill: #3c3b43"/>
            <g>
              <path d="M1012.65,301l-104.21,14.6a13.34,13.34,0,0,0-11.6,13.3l.94,84.67a13.7,13.7,0,0,0,15.69,13.24l112.85-16,2-96.19A13.69,13.69,0,0,0,1012.65,301Z" transform="translate(-195.9 -71.15)" style="fill: #3c3b43"/>
              <path d="M1048.14,306.64,943.93,322a13.83,13.83,0,0,0-11.59,14l1,89.28c.09,8.59,7.5,15.19,15.69,14l101.38-15.08a14,14,0,0,0,11.69-13.72l1.73-89.4C1064,312.29,1056.49,305.41,1048.14,306.64Z" transform="translate(-195.9 -71.15)" style="fill: #231f20"/>
              <path d="M1042.41,314.3l-92.18,13.58A12.23,12.23,0,0,0,940,340.28l.86,79c.08,7.6,6.64,13.44,13.88,12.36l86.35-12.84a16.39,16.39,0,0,0,13.74-16.13l1.46-75.58C1056.43,319.3,1049.81,313.21,1042.41,314.3Z" transform="translate(-195.9 -71.15)" style="fill: #3c3b43"/>
              <path d="M950.24,327.88,1031.15,316c0,.44.05.88,0,1.34l-1.46,75.91A16,16,0,0,1,1016.3,409L940.9,420.17c0-.31,0-.61,0-.93l-.86-79A12.23,12.23,0,0,1,950.24,327.88Z" transform="translate(-195.9 -71.15)" style="fill: #292629"/>
              <path d="M950.24,327.88l48.31-7.12a59.12,59.12,0,0,1,8.78,30.48c.34,31.7-24.16,57.45-54.73,57.51a53.63,53.63,0,0,1-11.88-1.3L940,340.28A12.23,12.23,0,0,1,950.24,327.88Z" transform="translate(-195.9 -71.15)" style="fill: #6177ba"/>
              <path d="M950.24,327.88l41.4-6.1a56.34,56.34,0,0,1,3.72,19.58c.33,30.07-22.91,54.48-51.9,54.54q-1.44,0-2.86-.08L940,340.28A12.23,12.23,0,0,1,950.24,327.88Z" transform="translate(-195.9 -71.15)" style="fill: #4c5f93"/>
            </g>
          </g>
        </g>
      </g>
      <path d="M775.7,358.31c0,7.31-12.88,35.62-12.88,52.68s-16.13,33.21-24.49,66.09-23.55,88.79-41.65,104.62-43.16-39.89-36.2-58.77,54.3-77.12,54.3-92.34-4.87-24.48-10.44-40.31-1.63-40,4.41-42.63-2.55,20.91-.23,22.94,6.26-34.51,15.32-40.3-5.11,29.54-5.11,35.83-.93,10.76,1.86,10.76,3.47-17.05,6.84-27.2,9.4-25.17,17.52-22.13-9.75,20.5-9.75,27.4-2.32,20.5,1.16,21.72,7.19-46.08,15.78-47.9,3.48,11.16.7,22.33-4.64,28.82-.23,28.82,8.12-4.46,13.92-14.21S775.7,351,775.7,358.31Z" transform="translate(-195.9 -71.15)" style="fill: #f37575"/>
    </g>
    <path d="M778.59,430.14S648.15,747.37,578.82,747.37l29.07,34s61.76-6.42,130-167.22,63.39-180.65,63.39-180.65Z" transform="translate(-195.9 -71.15)" style="fill: #47555d"/>
    <path d="M1347.4,758.36a2,2,0,0,1-.49-.06c-91.73-21.92-100.24-209.05-100.55-217a2.12,2.12,0,0,1,2-2.2,2.3,2.3,0,0,1,2.2,2c.07,1.92,8.68,191.88,97.31,213.06a2.12,2.12,0,0,1-.49,4.17Z" transform="translate(-195.9 -71.15)" style="fill: #252c64"/>
    <path d="M1292.83,783.46a2.1,2.1,0,0,1-.88-.19c-103.8-47.6-84.35-153.87-84.15-154.94a2.12,2.12,0,0,1,4.16.81c-.2,1-19,104.09,81.75,150.28a2.12,2.12,0,0,1-.88,4Z" transform="translate(-195.9 -71.15)" style="fill: #252c64"/>
    <path d="M2193.19,510.9a2.11,2.11,0,0,1-2-1.34c-36.05-91.23-92-165.48-92.54-166.22a2.12,2.12,0,0,1,3.37-2.56c.56.74,56.82,75.44,93.1,167.22a2.12,2.12,0,0,1-2,2.89Z" transform="translate(-195.9 -71.15)" style="fill: #252c64"/>
    <path d="M496.63,598.39a2.11,2.11,0,0,1-1.49-.62c-50.08-50.08-41.42-198.5-41-204.8a1.92,1.92,0,0,1,2.24-2,2.1,2.1,0,0,1,2,2.24c-.09,1.52-8.94,152.81,39.79,201.54a2.12,2.12,0,0,1-1.5,3.61Z" transform="translate(-195.9 -71.15)" style="fill: #252c64"/>
  </g>
</svg>
