<svg id="_Layer_" data-name="&lt;Layer&gt;" xmlns="http://www.w3.org/2000/svg" xmlns:xlink="http://www.w3.org/1999/xlink" viewBox="0 0 2008.71 1877.59">
  <defs>
    <linearGradient id="linear-gradient" x1="572.86" y1="1093.52" x2="1535.86" y2="1093.52" gradientUnits="userSpaceOnUse">
      <stop offset="0" stop-color="#902373"/>
      <stop offset="0.73" stop-color="#54326b"/>
      <stop offset="1" stop-color="#3c3f69"/>
    </linearGradient>
  </defs>
  <title>newsguys</title>
  <g>
    <ellipse cx="1004.36" cy="1818.33" rx="1004.36" ry="59.26" style="fill: #ca72ad"/>
    <g>
      <g>
        <path d="M2034.06,513s126,81.72,131.84,173.44l-40.36,43.71L2006.24,627Z" transform="translate(-362.37 -20.18)" style="fill: #363a68"/>
        <polygon points="1573.71 321.21 1478.69 318.06 1471.61 624.13 1597.48 636.65 1573.71 321.21" style="fill: #260e0d"/>
        <path d="M1993.92,1810.93c53.53,1.78,51.5,23.27,51.5,23.27l-156.67-5.2s10-66,11.69-81.57l36.79,1.22C1940.68,1767.94,1952.82,1809.56,1993.92,1810.93Z" transform="translate(-362.37 -20.18)" style="fill: #260e0d"/>
        <path d="M1731.78,1810.14c48.73,1.62,60.61-55.89,62.35-66.23l35.2,1.17c-.09,2.83-.14,4.61-.15,5-.24,7.18,6.33,85,6.33,85l-65.28-2.17-91.39-3S1678.25,1808.36,1731.78,1810.14Z" transform="translate(-362.37 -20.18)" style="fill: #260e0d"/>
        <path d="M1759.57,1394.13l-36.28-415.78,18.2-122.09,275.32,9.14-1.62,108.06,14.93,421.74s-83.45,348-82.42,353.81l-52-1.73c.14-1.27,27.44-383.66,27.44-383.66l-48.08-343L1840,1377.8s-.15,323.06-1.47,367.58l-48.93-1.62C1789.73,1742.74,1759.57,1394.13,1759.57,1394.13Z" transform="translate(-362.37 -20.18)" style="fill: #2f1954"/>
        <path d="M1739.09,872.3l2.39-16,275.32,9.14-.21,14.12-58.43,17.33a247,247,0,0,1-145.07-1.2Z" transform="translate(-362.37 -20.18)" style="fill: #0e0e0e"/>
        <path d="M1737,416.26c31-31.94,102.06-82.18,178-67l95.43,37.91,22.17,169.55-10.74,321.2-284.67-6.24-16.68-313.57S1706,448.19,1737,416.26Z" transform="translate(-362.37 -20.18)" style="fill: #f1a97e"/>
        <path d="M1945.19,353.35l.52,624.17,86.9,13.39,15.59-293.48.95-176.29s-12.51-112.36-38.71-133.94S1945.19,353.35,1945.19,353.35Z" transform="translate(-362.37 -20.18)" style="fill: #555da2"/>
        <path d="M1839.34,346.43l-6.91,627.33-155.71,9.64s25.5-511.35,42.88-562.78S1839.34,346.43,1839.34,346.43Z" transform="translate(-362.37 -20.18)" style="fill: #555da2"/>
        <polygon points="1638.07 339.22 1573.71 321.21 1581.57 631.75 1622.25 457.11 1610.74 448.79 1638.07 339.22" style="fill: #777eb5"/>
        <polygon points="1472.67 628.13 1478.69 318.06 1423.7 340.38 1449.84 443.23 1442.16 448.7 1472.67 628.13" style="fill: #777eb5"/>
        <polygon points="1715.43 720.58 1920.06 584.41 1713.14 558.68 1550.69 719.04 1715.43 720.58" style="fill: #1e3340"/>
        <path d="M1990.46,679.44s-24,4.54-33.16,13.69c-11.65,11.67-39,30.37-50.24,30s-59.17,2.71-59.17,2.71l-9.77,52.33s179.7-34.92,188.4-43.64-42,5.29-41.92,1.28,60.78-6.5,58-16.71-56.27,11.75-60.78,6.59,64.05-11.25,64.41-21.93S1977.74,717,1977.74,717s-1.07-5.47,17.62-13.54,36.75-14.47,32.82-19-51.88,21.6-57.86,14.76Z" transform="translate(-362.37 -20.18)" style="fill: #f37575"/>
        <path d="M1759,409.79s21.74,43.09,15.09,103.92-17.63,154.06-5.68,185,107.86,3.58,107.86,3.58l-2.39,72.16s-139.47,51.33-178.73,31.71-30.23-177-27.66-254.25S1735.37,353.54,1759,409.79Z" transform="translate(-362.37 -20.18)" style="fill: #777eb5"/>
        <path d="M1759,409.79c10.6,24.9,16.91,61.47,13.26,99.11-6.16,56.62-23.77,179.36.33,198.91,23.36,15.45,77.72,2.62,103.68-5.55-25.41,5.85-97.24,19.92-105.69-4.62-7.24-19.65-4.42-66.46-3-87.27,5.85-90,17.95-121.35.74-176.93A142.31,142.31,0,0,0,1759,409.79Z" transform="translate(-362.37 -20.18)" style="fill: #eef1f9"/>
        <g>
          <path d="M1905.71,220.11,1930,357.19c2.65,12.87,8.88,26.53,4.15,31.89-11,12.44-55.55.55-77.77-15.55-18.15-13.16-7.74-146-7.74-146S1881.12,218.21,1905.71,220.11Z" transform="translate(-362.37 -20.18)" style="fill: #f37575"/>
          <path d="M1848.62,227.54s-.19,5.62-.37,14.89c3.18,12.68,8.68,32.16,15.41,46.18,9,18.73,38.64,47.63,62.36,46.12l-20.3-114.62C1881.12,218.21,1848.62,227.54,1848.62,227.54Z" transform="translate(-362.37 -20.18)" style="fill: #f15f5c"/>
          <g>
            <path d="M1823.07,61.55c-8.56,19.21-13.82,44.93,4.12,54.84-19.79-7.77-17.52-37.17-10.89-58.23Z" transform="translate(-362.37 -20.18)" style="fill: #1d2a58"/>
            <path d="M1909.72,119.32s26.76-.32,35.28,35.46,8.32,138.41-16.4,151.5-61-17-70.58-35.89c-9.93-19.7-16.25-52-16.25-52S1820,87.84,1909.72,119.32Z" transform="translate(-362.37 -20.18)" style="fill: #f37575"/>
            <path d="M1823.53,272.16s7.43,7.11,12.71-4.34c0,0,12.29-26.41-4.33-42.69s-41.34-38.32-42.89-72.24,35.23-39,35.23-39-2-52,52.06-42.5c0,0,8-12.48,38.24-15.45s25.89,16,42.71,10.47S1974.2,45.66,1966,41c0,0,32,10.49,39.92,36s-37.58,33.5-37.58,33.5,37.7-.1,12.28,21.09-39.1,22.9-59.27,7.09-30.06-18.87-38.55-13.25-1.78,27.28-15.13,31.7-16,45.34-16,45.34-11.23-2.32-6.34,25.42,11,44.35-4.09,49.33S1823.53,272.16,1823.53,272.16Z" transform="translate(-362.37 -20.18)" style="fill: #1d2a58"/>
            <path d="M1839.3,171.4c-8.26.12-26.67,9.52-6.09,35s30.08-5.75,26.36-17.78S1845.62,171.3,1839.3,171.4Z" transform="translate(-362.37 -20.18)" style="fill: #f37575"/>
            <path d="M1922.64,200.06c.75,17,3.37,33.26,2.62,49.39a98.44,98.44,0,0,0-10.53,2.2,117.08,117.08,0,0,0,13.82,1.84C1928.57,252.64,1931.32,230.39,1922.64,200.06Z" transform="translate(-362.37 -20.18)" style="fill: #1d2a58"/>
            <path d="M1915.66,196.07a1.86,1.86,0,0,1-2.27-1.17,17.4,17.4,0,0,0-11.31-9.14c-7.27-2-23.26,5.06-28.82,8a1.78,1.78,0,0,1-2.48-1,2,2,0,0,1,.79-2.66c.87-.45,21.26-11,31.3-8.22a21.35,21.35,0,0,1,13.88,11.52,2,2,0,0,1-.93,2.6Z" transform="translate(-362.37 -20.18)" style="fill: #1d2a58"/>
            <path d="M1897.08,262.52s27.77,5.58,42.19-.51c0,0-.65,13.39-9,18.25S1903.07,281.88,1897.08,262.52Z" transform="translate(-362.37 -20.18)" style="fill: #fff"/>
            <path d="M1831.53,190.48s4.61,19.54,13.41,18,8.62-16.54,1.51-23S1829.82,185,1831.53,190.48Z" transform="translate(-362.37 -20.18)" style="fill: #f15f5c"/>
            <path d="M1910.73,204.85c.17,3.9-2,7.08-4.82,7.12s-5.27-3.09-5.43-7,2-7.08,4.82-7.12S1910.56,201,1910.73,204.85Z" transform="translate(-362.37 -20.18)" style="fill: #1d2a58"/>
            <path d="M1947.23,202.4c.17,3.9-2,7.08-4.82,7.12s-5.26-3.09-5.43-7,2-7.08,4.82-7.12S1947.07,198.5,1947.23,202.4Z" transform="translate(-362.37 -20.18)" style="fill: #1d2a58"/>
            <path d="M1932.26,192.9a2.14,2.14,0,0,0,.57,2.78,1.72,1.72,0,0,0,2.53-.53c1.53-2.57,6.4-9.55,10.52-10.91a26.13,26.13,0,0,1,3.07-.8q-.16-2-.34-4a29.87,29.87,0,0,0-3.92,1C1938.51,182.46,1932.51,192.47,1932.26,192.9Z" transform="translate(-362.37 -20.18)" style="fill: #1d2a58"/>
          </g>
        </g>
      </g>
      <path d="M2163.35,648.9s5.09,5.49,14.36,22c9,16-6.8,31-9.87,34.14-5.83,6-16.73,14.09-23.68,18.06s-11.51,5.91-18.63,7.12c-10.44,1.77-40.69-38.34-37.93-41.87,1.86-2.36,4.27-4.16,6.9-3.24s33,23.63,33,23.63-29-31.85-27.66-40.77,6.74-7.51,9.2-5.09,37.77,32.78,37.77,32.78-26.45-37.6-25.57-43.42,8.64-9.5,20.45,5.71c6.63,8.53,22.75,22.73,22.75,22.73s-16-28.15-14.64-36.88S2163.35,648.9,2163.35,648.9Z" transform="translate(-362.37 -20.18)" style="fill: #f37575"/>
      <ellipse cx="1915.63" cy="292.78" rx="13.13" ry="16.07" transform="translate(1197.15 2177.47) rotate(-88.1)" style="fill: #5b1332"/>
      <ellipse cx="1846.05" cy="208.55" rx="12.54" ry="6.7" transform="matrix(0.03, -1, 1, 0.03, 1214.17, 2026.51)" style="fill: #556c87"/>
      <path d="M1903.13,286.08c-28.38-7.56-53.93-79.85-54.18-80.58-1.74-5-5.32,1.19-3.59,6.16,1.08,3.1,26.87,76,57,84.05C1905.24,296.49,1906,286.84,1903.13,286.08Z" transform="translate(-362.37 -20.18)" style="fill: #bbc4cf"/>
    </g>
    <path d="M1605.32,377.95S1740.55,459,1750.71,564.34L1621.57,592.6Z" transform="translate(-362.37 -20.18)" style="fill: #f8963c"/>
    <g>
      <path d="M1397.28,1755.6c-73.54,0-164.76-16.5-243.76-80-152.14-122.25-90.49-118.86-200.08-123.75-101.94-4.54-198.5-17.18-265.54-99.35-102.69-125.85-38.53-273.11,66-398.47a236.68,236.68,0,0,1-136.49-56.27C461.76,865.7,762.72,449.1,775.6,431.43l8.12,5.91c-3.11,4.26-308.4,426.7-159.78,552.81,42.87,36.37,91.91,51.59,138.77,53.62,38-43.85,147.8-156.24,189-115.08,49,49-70.87,129.55-185.19,126.06-104.45,122.59-172.66,266.65-70.82,391.45,63.29,77.59,162.35,91,231.33,94.42,151.18,7.38,69.5-4,232.8,127.2,159.4,128.06,370.75,59.59,372.86,58.88l3.17,9.52C1534.74,1736.59,1476.2,1755.6,1397.28,1755.6ZM775.87,1044c109.25-.91,204.72-72.22,168.73-108.2C911.63,902.82,806.81,1009.14,775.87,1044Z" transform="translate(-362.37 -20.18)" style="fill: url(#linear-gradient)"/>
      <g>
        <g>
          <path d="M880,359.55c.71-4.13-4.36-18.61-8.84-16.64s1.63,10.14-4,20-32.75-13.18-36-11.75c-4.7,2.07-3.75,4.89-8.79,7.12s-9,10-11.69,22.35.27,38.1-3.17,47c-.65,1.67-1.23,15.47-7.11,29,8.35,4.22,21.69,11.51,32.11,8.91,3.63-19.53,10.65-31,25-48C874.6,397.33,880,359.55,880,359.55Z" transform="translate(-362.37 -20.18)" style="fill: #f15f5c"/>
          <path d="M793,441.23c-10.94,13.34-30.75-4.27-18.66-16.7C904.84,290.31,898.15,295.74,902.83,300.31,909,306.37,901.77,305.71,793,441.23Z" transform="translate(-362.37 -20.18)" style="fill: #555799"/>
          <rect x="830.73" y="313.83" width="53.76" height="60.66" transform="translate(109.96 -515.97) rotate(43.49)" style="fill: #cfcc2a"/>
          <rect x="875.78" y="335.68" width="9.73" height="60.67" transform="translate(905.49 1217.36) rotate(-136.52)" style="fill: #b0af35"/>
          <path d="M883.85,323.09h0a27.19,27.19,0,0,1-5-38l19.83-25.78a27.19,27.19,0,0,1,38-5h0a27.19,27.19,0,0,1,5,38l-19.83,25.78A27.19,27.19,0,0,1,883.85,323.09Z" transform="translate(-362.37 -20.18)" style="fill: #47555d"/>
          <path d="M898.83,316.5a27.19,27.19,0,0,1-5-38l19.84-25.78a27.13,27.13,0,0,1,3.55-3.79,27,27,0,0,0-18.54,10.38L878.9,285.07a27.11,27.11,0,0,0,39.41,36.86A27,27,0,0,1,898.83,316.5Z" transform="translate(-362.37 -20.18)" style="fill: #333"/>
          <path d="M834.24,350.73S852.8,391.5,844.84,395s-19.92-36.8-19.92-36.8,16.1,37.45,9.57,40.33-20.65-29-20.65-29,16.17,30.28,10.88,31-14.38-22-14.38-22,.19-7.1,2.47-10.53,1.54-5.53,3.12-7.6,5.9-4.4,7.72-5.21S829.24,346.29,834.24,350.73Z" transform="translate(-362.37 -20.18)" style="fill: #f37575"/>
        </g>
        <path d="M975.35,331.76c-14.82,6.33-61.42,83.34-77,136.49-9,30.75-26,62.5-36,70.79h0c-6.72,3.77-14.37,4.61-16.86-8-4.69-23.85-8.56-57.06-10.16-75.39-14.74-.84-29-5.44-43.64-4.32C793,520.85,800.69,619.82,827,623c13.66,1.67,42.38-12.92,63.91-38.54,27.32-32.52,50.17-72.94,50.17-72.94l48.83-154.7S990.17,325.42,975.35,331.76Z" transform="translate(-362.37 -20.18)" style="fill: #131537"/>
        <polygon points="750.08 1758.55 749.12 1818.61 755.8 1818.81 764.41 1750.34 750.08 1758.55" style="fill: #1d1c22"/>
        <g>
          <path d="M1066.24,1250.59s7.15,93.92,18.66,122-9.06,399-18.82,428.9a91.36,91.36,0,0,1-8.13,17.76c-10.66,18.23-13.08,21.94,1.21,22,18.36.06,34.43-3.43,38-10.95,6.16-13,11.59-57.69,24.15-57.65,0,0,8.58-16.66,6.44-25.44-3.22-13.2-12.2-6.42-12.14-24.77s60.89-297.36,51.37-338-16.27-45.46-16.11-93.77S1066.24,1250.59,1066.24,1250.59Z" transform="translate(-362.37 -20.18)" style="fill: #f37575"/>
          <path d="M1024.73,1152.24s-68.5,130.54-64.12,169.2,18.84,69.88,6.43,122.65-110.66,244.16-113,279.16c-1,14.74,3.51,16.13,3.51,16.13-.2,25.42-8.13,52.65-13.41,57.9-6.79,6.74-14.43,40.24-20.87,40.23s-60.87,5.8-60.87,5.8c-1.41-12.41,15.25-2.44,25-28.17s15.67-64.36,28.08-116.49,63.32-290,63.5-344.77-4.85-55,3.64-91.06,40.28-103.56,40.28-103.56Z" transform="translate(-362.37 -20.18)" style="fill: #f15f5c"/>
          <path d="M960.61,1321.44c-4.38-38.66,64.12-169.2,64.12-169.2l-101.82,7s-31.79,67.52-40.28,103.56c-6.23,26.44-5.18,33.63-4.25,57.2,19.47,4.18,49.75,10.3,84.33,15.88C961.89,1331.16,961.17,1326.36,960.61,1321.44Z" transform="translate(-362.37 -20.18)" style="fill: #e85553"/>
          <path d="M1150.86,1290.67c.16-48.31-84.63-40.07-84.63-40.07s4.57,59.89,12.26,98.31c28.69,1.37,55.81.82,78.17-2.88C1153,1331.9,1150.77,1318.49,1150.86,1290.67Z" transform="translate(-362.37 -20.18)" style="fill: #f15f5c"/>
        </g>
        <path d="M953.22,704.74s-11.93,183.88-21,227.67-60.54,354.24-60.54,354.24,228.54,19.32,283.93,0c0,0,7.2-398.36-5.84-449.57s-70.06-144.38-70.06-144.38Z" transform="translate(-362.37 -20.18)" style="fill: #5c1145"/>
        <path d="M975.35,331.76s31.73-24.41,139.17-.15c2.93.66,5.6,117.26,5.6,117.26S1070.27,644,1079.75,692.71c0,0-57,48.09-142,6.23,0,0,11-153.25,3.31-187.39S917.9,446.46,939.8,411,975.35,331.76,975.35,331.76Z" transform="translate(-362.37 -20.18)" style="fill: #e469a6"/>
        <path d="M975.35,331.76s31.73-24.41,139.17-.15c2.93.66,5.6,117.26,5.6,117.26S1070.27,644,1079.75,692.71c0,0-57,48.09-142,6.23,0,0,11-153.25,3.31-187.39S917.9,446.46,939.8,411,975.35,331.76,975.35,331.76Z" transform="translate(-362.37 -20.18)" style="fill: #25275a"/>
        <path d="M1119.48,740.28c1.74-1.75,17-24.18,20.23-20.93s-13.48,23.95-13.48,23.95,19.42-19.65,23.25-15.81-25.95,30.37-29.09,30.37S1119.48,740.28,1119.48,740.28Z" transform="translate(-362.37 -20.18)" style="fill: #f15f5c"/>
        <path d="M1093.16,718.1s-8.21,12.53-2.16,18.58,2.81,12.32,6.91,16.42,22.47,4.75,22.47,4.75a126.22,126.22,0,0,1,10.37-38c1.68-3.76,7-11.15,14.67-20.86a248.46,248.46,0,0,0-25.36-14.51C1104.89,704.18,1093.44,717.61,1093.16,718.1Z" transform="translate(-362.37 -20.18)" style="fill: #f37575"/>
        <path d="M1114.48,331.79s-10.66,84.7,0,108c10.38,22.71,71,48.91,81.41,94.92,7.77,34.37-42.84,106.9-75.82,149.73,8.25,8.25,21.61,21.9,29.74,27.25,33.56-42.72,106.74-143.31,108.85-166.9C1261.26,515.85,1159.55,328.77,1114.48,331.79Z" transform="translate(-362.37 -20.18)" style="fill: #5e5da8"/>
        <path d="M1114.48,331.79c-1.6,19.75-2.87,38.67-3.24,58.81-.33,35.57,1.81,46.8,9.66,55.72,18.23,21.13,67,46.94,75,88.41-11.36-41.12-58.55-64-77.6-86.2-7.19-8.28-8.59-17.15-9.47-28.37C1106.89,393.88,1110.46,358.22,1114.48,331.79Z" transform="translate(-362.37 -20.18)" style="fill: #828ac3"/>
        <path d="M1116.83,1731.65c-5.64,33.58-27.73,100.23-40.61,100.23-17.39,0-18.41-.92-18.28-12.66-10.66,18.23-22.73,27.55-8.44,27.6,18.36.06,47,1.27,50.55-6.24,6.16-13,9.66-62.14,22.22-62.1l-4.1,60.52,6.67.2s10.16-83.32,8-91.64C1129.92,1736.12,1120.36,1733.7,1116.83,1731.65Z" transform="translate(-362.37 -20.18)" style="fill: #3a3745"/>
        <path d="M779.52,1827c-12.79,11.88-32.26,9.45-31.13,19.4,0,0,70.47-2.79,76.91-2.77s12-39.57,18.83-46.31,2.42,46.38,2.42,46.38l6.94,0s4.83-54.73,11.34-76c5.19-16.91-2.08-24.05-7.29-28.35C836.26,1779.74,832.78,1836.61,779.52,1827Z" transform="translate(-362.37 -20.18)" style="fill: #3a3745"/>
        <g>
          <path d="M1082.56,176.33s43.22,7.88,43.22,38.54-6.64,16.81-13.58,38.71-.49,40.62-29.64,40.62-24.1,1.9-38.63,10.74-43.22-6-46.33-37.6,50.22-29.41,50.22-52.47S1082.56,176.33,1082.56,176.33Z" transform="translate(-362.37 -20.18)" style="fill: #3c1247"/>
          <path d="M997.6,249.28s14.76,21.64,12.94,46.42c-1,13.41-3.53,30.26-7.54,40.07-4.22,10.29-1.31,18.94,8.89,23.07,6.24,2.53,13.69,3.62,21.54.6,12.51-4.81,31.5-13.71,37.28-27.69,3.87-9.35-31.11-115.05-31.11-115.05Z" transform="translate(-362.37 -20.18)" style="fill: #f37575"/>
          <path d="M997.6,249.28l42-32.58s4.11,12.43,9.36,29.14c-9.86,14.91-23,29.32-39.19,34.92A87.46,87.46,0,0,0,997.6,249.28Z" transform="translate(-362.37 -20.18)" style="fill: #f15f5c"/>
          <path d="M968,107.18a48.28,48.28,0,0,0-17.79,27.39c-4.21,18.2,6.47,39.77,5.35,55.28s22.07,91.59,58.83,76.88,45.31-72.33,46.22-84.94-20.59-56.38-41-68.19S968,107.18,968,107.18Z" transform="translate(-362.37 -20.18)" style="fill: #f37575"/>
          <g>
            <path d="M981.63,184.14a254.27,254.27,0,0,1-3.55,31.18,18.3,18.3,0,0,0,11,1.84c-6,2.53-12.33-.81-12.72-.87C977.37,208.27,978.35,197.55,981.63,184.14Z" transform="translate(-362.37 -20.18)" style="fill: #501f5e"/>
            <path d="M998.58,168.46s7.21-5.61,15.71-6.6,20.21,8.87,20.21,8.87-12.86-7.41-18.5-6.52-11.18,4.65-11.18,4.65Z" transform="translate(-362.37 -20.18)" style="fill: #501f5e"/>
            <path d="M978.17,168.69s-6.33-5.61-13.5-6.63-16.52,8.78-16.52,8.78,10.42-7.35,15.2-6.44,9.61,4.67,9.61,4.67Z" transform="translate(-362.37 -20.18)" style="fill: #501f5e"/>
            <path d="M1007,231.6c-18.26,6.86-25.06,6.38-31.35,5C984.67,243.9,1000.19,239.66,1007,231.6Z" transform="translate(-362.37 -20.18)" style="fill: #fff"/>
            <path d="M1004.05,181.09c.73,3,3.42,4.85,6,4.21s4.09-3.57,3.36-6.54-3.42-4.85-6-4.21S1003.32,178.12,1004.05,181.09Z" transform="translate(-362.37 -20.18)" style="fill: #501f5e"/>
            <path d="M1026,182c-19.33-17.07-25.23-3-31.08-1.54,4.84-.09,9.9-5.78,15.3-4.82C1014.61,176.39,1021.42,179.88,1026,182Z" transform="translate(-362.37 -20.18)" style="fill: #42124a"/>
            <path d="M963.52,183.21c.69,3,2.89,5,4.91,4.41s3.1-3.39,2.41-6.36-2.89-4.95-4.91-4.41S962.83,180.24,963.52,183.21Z" transform="translate(-362.37 -20.18)" style="fill: #501f5e"/>
            <path d="M978.81,184.1c-15.6-16.33-21-2.12-25.9-.51,4-.25,8.45-6.07,12.93-5.29C969.5,178.9,975.07,182.13,978.81,184.1Z" transform="translate(-362.37 -20.18)" style="fill: #42124a"/>
            <path d="M1005.29,210.11c1.26,5.09,7.68,7.88,14.35,6.23s11.06-7.13,9.81-12.22-7.68-7.88-14.35-6.23S1004,205,1005.29,210.11Z" transform="translate(-362.37 -20.18)" style="fill: #f15f5c"/>
          </g>
          <path d="M966.13,106.81c2.13-6,10.53-23.36,36.53-25,.86-.08,1.72-.13,2.59-.17,16-.65,32-2.38,47.84,1.16,9.25,2.07,18.55,6.17,25.83,12.38,8.93,7.62,17.46,16.36,18.64,27.65,2.15,20.64-7.34,43.18-.47,63.1l.15.43a43.35,43.35,0,0,1-23.68,54.47c-12.14,5.16-22.05,6.85-28.64-4.06,1-11.21,29.55-51.37,4.05-76.86-1.77,1.29-1.6,13.63-5.76,13.74-10.07.29-16.63-21.59-17.78-30.71-2-8.73-7.12-17-17.67-24.7-13.35-8.55-23.46-10.84-30.46-11a64.05,64.05,0,0,0-7.18.57c-2.52.48-4,1.08-4.59,1A6.56,6.56,0,0,1,966.13,106.81Z" transform="translate(-362.37 -20.18)" style="fill: #501f5e"/>
          <path d="M976.9,93.94s-20-1.46-35.76,12.27-13.49,63.12-3.8,72.62S907.71,205,929.63,205C960.73,205.12,996.32,97.51,976.9,93.94Z" transform="translate(-362.37 -20.18)" style="fill: #501f5e"/>
          <path d="M971.42,101.31c-29.36,1.39-45.81,26.75-36,50.87,1.67,4.08,4.21,8.12,8.38,9.31l1.2-6.1c-1.61-.06-4-4-4.67-5.43C929.88,129.14,943.65,104.77,971.42,101.31Z" transform="translate(-362.37 -20.18)" style="fill: #6d2a81"/>
          <path d="M1043.09,169.36s1.72-15.63,14.16-11.27,7.24,42.37-3.74,38.65S1043.09,169.36,1043.09,169.36Z" transform="translate(-362.37 -20.18)" style="fill: #f37575"/>
          <path d="M1045.84,176.93s1.52-17,7.72-12.47,6.82,21.12.35,22.15S1045.84,176.93,1045.84,176.93Z" transform="translate(-362.37 -20.18)" style="fill: #f15f5c"/>
        </g>
      </g>
    </g>
    <g>
      <path d="M1530.88,286.79s.9,71.4,7.86,107.77c2.7,14.07-3.89,28.47-16.09,33.65-9,3.82-20.91,6.07-35.84,3.29-38.81-7.24-40.12-49.92-40.12-49.92l13.09-130.21Z" transform="translate(-362.37 -20.18)" style="fill: #f37575"/>
      <path d="M1459.78,251.36l71.1,35.43s.33,26.36,2.15,55.21c-18.56.9-41.87-9.4-66.61-40.48q-5.52-6.93-10.31-13.72Z" transform="translate(-362.37 -20.18)" style="fill: #f15f5c"/>
      <path d="M1526.28,103.74S1550.61,124,1561.14,158s19.73,58.61,19.73,58.61l-11.18,7.24s8.91,47.47,2,63.67c-10.53,24.6-54.92,44.5-105.24-10.85s-54.59-104.19-46-128.06S1506.54,91.44,1526.28,103.74Z" transform="translate(-362.37 -20.18)" style="fill: #f37575"/>
      <path d="M1450.64,157.28S1473,137,1505.23,145.71s43.08-4.7,36.83-11.58c0,0,28.28.73,38.81-24.6s7.89-102-42.09-87.54-39.9,49.2-39.9,49.2-16-16.64-31.14-8-13.16,21-13.16,21-13.81,28.22-32.89,31.84-17.1,45.58-17.1,45.58-11.18,8.68-3.29,39.07,54.33,77.42,54.33,91.89c0,0,11.44-18.81,2.24-48.48s-9.21-47,.66-47S1450.64,157.28,1450.64,157.28Z" transform="translate(-362.37 -20.18)" style="fill: #121841"/>
      <path d="M1464.86,216.7s-3.21-25-10.36-25-13.81,2.71-12.09,16.82,9.13,29.85,18.5,23.33S1464.86,216.7,1464.86,216.7Z" transform="translate(-362.37 -20.18)" style="fill: #f37575"/>
      <ellipse cx="1175.14" cy="159.51" rx="5.51" ry="11.12" style="fill: #2f499f"/>
      <path d="M1519.62,168.72a22.75,22.75,0,0,1,25.53-3.77l2.07-8c-.59-.34-14.63-8-28.38,4.38Z" transform="translate(-362.37 -20.18)" style="fill: #2f499f"/>
      <path d="M1460.13,206.63s-4.17-8.46-7.9-7.25-4.58,18.2,2.05,25.36S1466.5,220.16,1460.13,206.63Z" transform="translate(-362.37 -20.18)" style="fill: #f15f5c"/>
      <path d="M1559.92,263l-2,12.29c-24.91-2.78-37.25-23.91-37.25-23.91C1535.49,266.15,1559.92,263,1559.92,263Z" transform="translate(-362.37 -20.18)" style="fill: #2b3278"/>
    </g>
    <path d="M1384.41,925.71s-21.62,348.51,0,494.6,19.66,322.31,19.66,351.79-91,66.39-91,66.39l144.19-3.12s-3.64-54.38,0-90.78c5.06-50.73,73.29-805.77,73.29-805.77Z" transform="translate(-362.37 -20.18)" style="fill: #0e0e0e"/>
    <path d="M1459.75,925.71s153.29,706.91,169,773,19.8,92.13,19.8,92.13h9.68l-12.79,56.57s24.68,26.7,63.89,7.38c20.93-10.31-7-74.41-7-74.41l17.07-.29s4.66-353.43-16-371.68-41.27-482.67-41.27-482.67Z" transform="translate(-362.37 -20.18)" style="fill: #495682"/>
    <path d="M1460.31,374.77s133.07-8.76,145,3.18c18,18,56.45,302.64,50.47,389.12s20.93,194.34,20.93,194.34-265.16-4.91-301.08-25.55c0,0,26.51-134.62,32.5-181.79S1386.76,580,1386.76,580l-21.67-192.47C1389.26,371.18,1460.31,374.77,1460.31,374.77Z" transform="translate(-362.37 -20.18)" style="fill: #f1a97e"/>
    <path d="M1231.83,607l74.89,59.51,77.07-112.89-18.7-166.11S1231.83,554.43,1231.83,607Z" transform="translate(-362.37 -20.18)" style="fill: #dd7026"/>
    <path d="M1337.14,666.62c-3.71,9.82-135.38,208.51-135.38,208.51L1185,844.82l142.69-194.91Z" transform="translate(-362.37 -20.18)" style="fill: #333"/>
    <path d="M1455.67,635.36c3.85,9.77,138.46,206.48,138.46,206.48l16.26-30.56L1464.83,618.52Z" transform="translate(-362.37 -20.18)" style="fill: #333"/>
    <polygon points="655.19 1854.11 1015.41 909.72 993.37 901.32 629.95 1854.11 655.19 1854.11" style="fill: #333"/>
    <polygon points="1127.09 1818.3 1045.67 892.14 1069.17 890.07 1150.76 1818.3 1127.09 1818.3" style="fill: #56525c"/>
    <path d="M1719.43,1874.29c-86.26-338.65-235.61-926.49-238.75-944.56l-11.67,1.6h-11.79c0,6.06,80,323.29,237.89,943Z" transform="translate(-362.37 -20.18)" style="fill: #807f7f"/>
    <path d="M1242.42,597.42c-5.24,0-77.47,189.41-77.47,206.44s-10.25,61.9,8.47,80.62,62.28-22.32,62.28-36.73c0-3.6-1.37-28.68-3.42-31.77-6.15-9.27-13.29-1.57-13.29-20,0-24.55,94.47-109.61,81.23-152.64C1281.89,583.74,1242.42,597.42,1242.42,597.42Z" transform="translate(-362.37 -20.18)" style="fill: #f37575"/>
    <polygon points="924.43 610.73 1113.1 610.73 1113.1 640.21 1145.86 640.21 1145.86 687.38 1122.93 687.38 1122.93 733.89 1011.56 733.89 1011.56 714.89 963.74 714.89 963.74 697.86 1004.36 697.86 1004.36 662.48 924.43 662.48 924.43 610.73" style="fill: #21233f"/>
    <rect x="1011.56" y="714.48" width="111.37" height="19.41" style="fill: #222459"/>
    <rect x="1004.36" y="662.48" width="141.5" height="24.9" style="fill: #515783"/>
    <rect x="1041.7" y="733.89" width="31.44" height="56.99" style="fill: #363a68"/>
    <rect x="1022.04" y="783.68" width="90.41" height="121.85" style="fill: #56525c"/>
    <rect x="998.13" y="783.68" width="23.91" height="121.85" style="fill: #333"/>
    <g>
      <path d="M1353.18,355.65c-22.32-3.35-60.79-10-67.62-16.81-2.86-2.86-5.77-8.62-4.16-41,.81-16.19,2.44-31.78,2.45-31.94l11.79,1.24c-2.74,26.11-4.05,57.31-1.49,63.39,5.37,3.43,35.35,9.54,60.79,13.35Z" transform="translate(-362.37 -20.18)" style="fill: #151418"/>
      <rect x="867.49" y="188.7" width="130.19" height="103.05" rx="3.43" ry="3.43" style="fill: #56525c"/>
      <polygon points="874.42 195 874.42 285.44 934.12 241.41 874.42 195" style="fill: #39363d"/>
      <polygon points="934.12 241.41 874.42 285.44 990.75 285.44 934.12 241.41" style="fill: #232028"/>
      <polygon points="934.12 241.41 990.75 285.44 990.75 195 934.12 241.41" style="fill: #39363d"/>
      <rect x="892.99" y="209.44" width="79.7" height="61.94" style="fill: #746f78"/>
      <g>
        <path d="M962.15,303h159.1a11.4,11.4,0,0,1,11.4,11.4v74.23a0,0,0,0,1,0,0H950.75a0,0,0,0,1,0,0V314.41A11.4,11.4,0,0,1,962.15,303Z" style="fill: #232028"/>
        <path d="M906.81,356h274.83a20.74,20.74,0,0,1,20.74,20.74V589A15.41,15.41,0,0,1,1187,604.37H901.48A15.41,15.41,0,0,1,886.07,589V376.78A20.74,20.74,0,0,1,906.81,356Z" style="fill: #56525c"/>
        <path d="M1515.83,624.55H1297.35a48.91,48.91,0,0,1-48.91-48.91v13.87a48.91,48.91,0,0,0,48.91,48.92h218.48a48.92,48.92,0,0,0,48.91-48.92V575.64A48.91,48.91,0,0,1,1515.83,624.55Z" transform="translate(-362.37 -20.18)" style="fill: #262428"/>
        <path d="M1571.07,559.1q-38.29,2.27-76.62,3.58c-6.49.24-28.91-6.44-35.23-6.2,0,0-52.8,8.26-80.39,7.85-34.62-.55-67.38-2.27-116.8-5.23q-25.16-66.45-3.85-132.9a17.32,17.32,0,0,1,6.79-8.81,19.6,19.6,0,0,1,10.39-3.42c35.18-1.41-.36-29.35,82.33-31.58,24-.65,52.36,2.51,70.76,16.69,29.25,22.53,83.79,16.29,129.54,15.73,11.67-.15,24.75,5.1,27.82,17.84C1596,474.83,1587,517,1571.07,559.1Z" transform="translate(-362.37 -20.18)" style="fill: #39363d"/>
        <path d="M1265,417.39c38.68,44.05,112.51,116.62,195.76,139.14a12,12,0,0,0-1.51-.05s-52.8,8.26-80.39,7.85c-34.62-.55-67.38-2.27-116.8-5.23q-25.16-66.45-3.85-132.9A17.32,17.32,0,0,1,1265,417.39Z" transform="translate(-362.37 -20.18)" style="fill: #232028"/>
        <path d="M1494.45,562.68a30.87,30.87,0,0,1-5.75-.61C1490.62,562.3,1492.53,562.5,1494.45,562.68Z" transform="translate(-362.37 -20.18)" style="fill: #232028"/>
        <path d="M1118.65,532.65h86.09a.67.67,0,0,1,.67.67v15.47a5.14,5.14,0,0,1-5.14,5.14h-77.16a5.14,5.14,0,0,1-5.14-5.14V533.33a.67.67,0,0,1,.67-.67Z" style="fill: #2f2e30"/>
        <path d="M1564.62,559.12c-25.93,2.11-43.13,3.24-55.24,3.67-23.24.86-27.78-.83-39.29-3.05a550.48,550.48,0,0,1,0-128.77,270.35,270.35,0,0,1,31.71-4.13c2.45-.18,4.9-.34,7.35-.45a481.72,481.72,0,0,1,65.28,2.49,23.66,23.66,0,0,1,1.35,4.68C1583.17,475.41,1576.15,517.27,1564.62,559.12Z" transform="translate(-362.37 -20.18)" style="fill: #746f78"/>
        <path d="M1470.09,559.73c11.51,2.23,16.05,3.92,39.29,3.05,2.31-.08,4.81-.19,7.53-.33.46-42.08-1.83-95.94-3.05-136.23-1.64,0-3.22.09-4.7.15-2.45.11-4.9.27-7.35.45a270.35,270.35,0,0,0-31.71,4.13,550.38,550.38,0,0,0-3.78,66v.11h0A550.07,550.07,0,0,0,1470.09,559.73Z" transform="translate(-362.37 -20.18)" style="fill: #807f7f"/>
        <path d="M1509.15,426.38q-7.29.33-14.59,1.08,1.58,67.75.19,135.51c3.93.08,8.66,0,14.63-.19Q1511,494.59,1509.15,426.38Z" transform="translate(-362.37 -20.18)" style="fill: #9d93a9"/>
        <path d="M953.24,367.75h85.54a8.89,8.89,0,0,1,8.89,8.89V405a0,0,0,0,1,0,0H944.35a0,0,0,0,1,0,0V376.64A8.89,8.89,0,0,1,953.24,367.75Z" style="fill: #a599aa"/>
        <path d="M956.1,372.73h79.82a8,8,0,0,1,8,8V405a0,0,0,0,1,0,0H948.13a0,0,0,0,1,0,0V380.7A8,8,0,0,1,956.1,372.73Z"/>
        <path d="M1432.42,549.26a559.42,559.42,0,0,1-149.42,0,401.06,401.06,0,0,1-2.95-112.89c1.45-12.51,14.28-22.43,30.49-23.8a557.42,557.42,0,0,1,94.34,0c16.21,1.37,29,11.29,30.49,23.8A400.94,400.94,0,0,1,1432.42,549.26Z" transform="translate(-362.37 -20.18)" style="fill: #857689"/>
        <path d="M1280.05,456.27c1.45-12.51,14.28-22.43,30.49-23.8a557.42,557.42,0,0,1,94.34,0c16.21,1.37,29,11.29,30.49,23.8q2.09,18.09,2.53,36.18a400.31,400.31,0,0,0-2.53-56.08c-1.44-12.51-14.28-22.43-30.49-23.8a557.42,557.42,0,0,0-94.34,0c-16.21,1.37-29,11.29-30.49,23.8a400.35,400.35,0,0,0-2.53,56.08Q1278,474.36,1280.05,456.27Z" transform="translate(-362.37 -20.18)" style="fill: #a599aa"/>
        <ellipse cx="1004.29" cy="503.92" rx="100.61" ry="91.11"/>
        <ellipse cx="1004.29" cy="503.92" rx="92.35" ry="80.4" style="fill: #39363d"/>
        <ellipse cx="1004.29" cy="503.91" rx="78.69" ry="68.51" style="fill: #4a404d"/>
        <ellipse cx="1004.29" cy="503.92" rx="71.71" ry="62.43" style="fill: #757076"/>
        <ellipse cx="1004.29" cy="503.91" rx="57.45" ry="50.02"/>
        <ellipse cx="1026.57" cy="529.06" rx="4.13" ry="3.59" style="fill: #a89bb3"/>
        <ellipse cx="983.93" cy="475.62" rx="8.97" ry="7.81" style="fill: #a89bb3"/>
        <ellipse cx="1003.04" cy="506.25" rx="21.76" ry="22.81" style="fill: #a89bb3;opacity: 0.44"/>
        <path d="M1324.29,418.63c.53,4.08-4.84,8.37-12,9.59s-13.41-1.09-13.94-5.17,4.83-8.37,12-9.6S1323.75,414.55,1324.29,418.63Z" transform="translate(-362.37 -20.18)" style="fill: #b9aacc"/>
      </g>
    </g>
    <rect x="978.15" y="900.28" width="159.65" height="15.63" style="fill: #333"/>
    <path d="M599.9,963.79a2.36,2.36,0,0,1-2.09-1.25c-57.11-105.64,12-220,12.75-221.11a2.38,2.38,0,1,1,4.05,2.5C613.91,745,546.21,857.09,602,960.28a2.38,2.38,0,0,1-2.09,3.51Z" transform="translate(-362.37 -20.18)" style="fill: #252c64"/>
    <path d="M612.58,1045.65a2.38,2.38,0,0,1-1.31-.4c-68.56-45.43-66.13-118.91-66.1-119.65a2.3,2.3,0,0,1,2.48-2.27,2.38,2.38,0,0,1,2.28,2.48c0,.71-2.28,71.57,64,115.47a2.38,2.38,0,0,1-1.31,4.36Z" transform="translate(-362.37 -20.18)" style="fill: #252c64"/>
    <path d="M2320.44,694.87a2.38,2.38,0,0,1-2-3.71c31-46.06,41.77-87.32,31.91-122.65-12.22-43.82-52.74-63.06-53.16-63.24a2.38,2.38,0,0,1,2-4.32c1.75.81,42.88,20.28,55.73,66.23,10.26,36.74-.68,79.35-32.54,126.65A2.37,2.37,0,0,1,2320.44,694.87Z" transform="translate(-362.37 -20.18)" style="fill: #252c64"/>
    <path d="M1652,589.75S1584,723,1559.92,723a58.64,58.64,0,0,0-30.85,23.31c-12.59,18.64,8.19,19.59,13.85,32.81s6.85,6.61,10.27,17.47,26.3-.51,39.65-8.52,14.3-47.2,39.32-67.51,75.41-78.66,84.93-96S1669.48,581.33,1652,589.75Z" transform="translate(-362.37 -20.18)" style="fill: #f37575"/>
    <path d="M1597.47,678.91l56.16,45.83s92.46-77.43,97.3-124.51-5.89-71.88-27.19-71.88C1664.72,528.35,1597.47,678.91,1597.47,678.91Z" transform="translate(-362.37 -20.18)" style="fill: #ffcb57"/>
  </g>
</svg>
