<svg id="_Layer_" data-name="&lt;Layer&gt;" xmlns="http://www.w3.org/2000/svg" viewBox="0 0 2581.95 1317.86">
  <title>news</title>
  <g>
    <path d="M2675.79,1544.25l-2316-.68S15.65,1158,264.78,805.44c67-94.77,148.34-152.77,236.26-184.5,4-1.44,8-2.82,12-4.15,80-26.55,165-32.06,249.21-24.27a901.81,901.81,0,0,1,98.91,14.92q12.93,2.66,25.77,5.65c23,5.36,45.73,11.46,68,18.13a354.75,354.75,0,0,0,86.47,14.49c205,9,396.39-154.2,483.13-238.4,87.1-84.56,202.41-138.55,325.43-163A795.22,795.22,0,0,1,1948.91,231q33.24-2.36,66.58-2c78.74.83,157,13,229.63,36.33q8.42,2.69,16.75,5.6c111,38.69,207.88,103.89,271.94,194.67q1.26,1.76,2.48,3.54,8,11.6,15.33,23.76,1.12,1.82,2.18,3.67c38.4,65.36,60.79,142.43,61.37,230.9,0,1.35,0,2.71,0,4.07-.05,51.23-7.39,106.27-23.12,165C2506.91,1214.68,2851.22,1226.25,2675.79,1544.25Z" transform="translate(-144.39 -228.94)" style="fill: #fcecdb"/>
    <path d="M1850,244.27V1540H762.23V592.52a901.81,901.81,0,0,1,98.91,14.92q12.93,2.66,25.77,5.65c23,5.36,45.73,11.46,68,18.13a354.75,354.75,0,0,0,86.47,14.49c205,9,396.39-154.2,483.13-238.4C1611.66,322.76,1727,268.76,1850,244.27Z" transform="translate(-144.39 -228.94)" style="fill: #f9ddbe"/>
    <rect y="1311.05" width="2565.71" height="6.81" rx="2.91" ry="2.91" style="fill: #2e3552"/>
    <path d="M2224,383l37.92-112.14q-8.33-2.91-16.75-5.6l-29.37,106.54h0l-16.44-22.44a16.22,16.22,0,0,0-22.31-3.76l-41.33,28.55,5.54,7.84-5.54-7.84-48.46,10.61,28.61,41.49,55.05,79.82,28.93-41,.06-.09h0l42.63-32.57a14.55,14.55,0,0,0,2.9-20.16Z" transform="translate(-144.39 -228.94)" style="fill: #d8772e"/>
    <path d="M627.94,674.56,598,717l30-42.45L591,649a11.16,11.16,0,0,0-15.35,2.59l-19,25.87L513,616.79c-4,1.33-8,2.71-12,4.15l49.73,64.61-17,23.16a9.82,9.82,0,0,0,2,13.61l37.95,29,1.27,1.8L598.21,786l51.86-75.2,18.82-27.29Z" transform="translate(-144.39 -228.94)" style="fill: #ed9f4a"/>
    <g>
      <path d="M1421.26,1124.57H760.38V794.08a531.54,531.54,0,0,1,660.88,330.48Z" transform="translate(-144.39 -228.94)" style="fill: #ed9f4a;opacity: 0.2"/>
      <path d="M841.85,775.25q37.25-14.73,77.09-26.15c53.79-15.4,107.46-25.18,159.52-29,50.34-3.73,97.07-1.82,138.91,5.7s76.95,20.36,103.92,38.08c28.19,18.52,46.41,41.61,54.15,68.63s4.51,56.25-9.6,86.88c-7.55,16.39-18,32.79-31.32,49.08a353.77,353.77,0,0,1-36.68,38.25c-31.51,28.53-70.14,54.91-114.82,78.39a761,761,0,0,1-88.57,39.4l0,0h-16.82l0,0c112.4-39.44,203.05-98.58,253.22-160.56,35.51-43.86,50.75-89.14,39.09-129.87-7.35-25.67-24.78-47.68-51.79-65.42-26.33-17.3-60.58-29.82-101.8-37.23a505.25,505.25,0,0,0-89.18-7.47q-23.51,0-48.29,1.83c-51.67,3.83-105,13.53-158.38,28.84q-27.88,8-54.59,17.66Z" transform="translate(-144.39 -228.94)" style="fill: #ffead7"/>
    </g>
    <g>
      <g>
        <path d="M1426.8,627.7V574.4h18.67a35.71,35.71,0,0,1,8.31.88A17.7,17.7,0,0,1,1460,578a11.94,11.94,0,0,1,3.88,4.56,14.67,14.67,0,0,1,1.34,6.48,13.39,13.39,0,0,1-.46,3.51,11.29,11.29,0,0,1-3.75,5.8,12.15,12.15,0,0,1-3.41,2,11.73,11.73,0,0,1,4,1.78,11.19,11.19,0,0,1,2.75,2.76,11.06,11.06,0,0,1,1.57,3.42,14.59,14.59,0,0,1,.5,3.79q0,7.76-5,11.71t-14.22,4Zm11-31h8.13q4.21-.07,6.26-1.77a6,6,0,0,0,2.05-4.85q0-3.62-2.11-5.22t-6.64-1.59h-7.69Zm0,7.76v14.39h9.41a11.24,11.24,0,0,0,3.66-.53,7.28,7.28,0,0,0,2.56-1.46,5.79,5.79,0,0,0,1.52-2.2,7.51,7.51,0,0,0,.5-2.76,10.14,10.14,0,0,0-.44-3.09,5.92,5.92,0,0,0-1.37-2.34,6,6,0,0,0-2.43-1.48,11.14,11.14,0,0,0-3.59-.51Z" transform="translate(-144.39 -228.94)" style="fill: #ffead7"/>
        <path d="M1494.37,608.18h-8.75V627.7h-11V574.4h19.8a30.19,30.19,0,0,1,8.27,1,17.3,17.3,0,0,1,6.19,3.08,13.49,13.49,0,0,1,3.88,5,16.77,16.77,0,0,1,1.35,7,19.29,19.29,0,0,1-.66,5.25,13.68,13.68,0,0,1-4.91,7.3,19.64,19.64,0,0,1-4,2.34l11.53,21.78v.51h-11.79Zm-8.75-8.89h8.86a11.51,11.51,0,0,0,3.79-.57,7.29,7.29,0,0,0,2.71-1.61,6.75,6.75,0,0,0,1.63-2.49,9.06,9.06,0,0,0,.55-3.24,8.06,8.06,0,0,0-2.14-5.93q-2.14-2.16-6.57-2.16h-8.82Z" transform="translate(-144.39 -228.94)" style="fill: #ffead7"/>
        <path d="M1554.55,604.6h-21.08v14.28h24.75v8.82h-35.73V574.4h35.65v8.9h-24.67V596h21.08Z" transform="translate(-144.39 -228.94)" style="fill: #ffead7"/>
        <path d="M1594.75,616.71h-19.26l-3.66,11h-11.68L1580,574.4h10.18l20,53.3h-11.68Zm-16.29-8.89h13.33l-6.7-20Z" transform="translate(-144.39 -228.94)" style="fill: #ffead7"/>
        <path d="M1631.79,606.32l-5.71,6.15V627.7h-11V574.4h11v24.16l4.83-6.63,13.58-17.53H1658l-18.93,23.68,19.48,29.61h-13.07Z" transform="translate(-144.39 -228.94)" style="fill: #ffead7"/>
        <path d="M1674.36,627.7h-11V574.4h11Z" transform="translate(-144.39 -228.94)" style="fill: #ffead7"/>
        <path d="M1727.88,627.7h-11l-21.38-35.07V627.7h-11V574.4h11l21.41,35.14V574.4h10.95Z" transform="translate(-144.39 -228.94)" style="fill: #ffead7"/>
        <path d="M1779.64,621a17.78,17.78,0,0,1-2.6,2.43,19.6,19.6,0,0,1-4.14,2.41,30.41,30.41,0,0,1-5.88,1.87,36.12,36.12,0,0,1-7.78.75,25.19,25.19,0,0,1-9.43-1.7,19.75,19.75,0,0,1-7.3-5,22.76,22.76,0,0,1-4.7-8.09,33.37,33.37,0,0,1-1.67-11v-3.15a35,35,0,0,1,1.59-11,22.94,22.94,0,0,1,4.5-8.11,19,19,0,0,1,7-5,23.71,23.71,0,0,1,9.19-1.72,27.77,27.77,0,0,1,9,1.3,17.68,17.68,0,0,1,6.33,3.64,16.57,16.57,0,0,1,4,5.6,24.61,24.61,0,0,1,1.87,7.14H1769a15.72,15.72,0,0,0-1-3.64,8.31,8.31,0,0,0-1.9-2.78,8.18,8.18,0,0,0-3-1.78,12.82,12.82,0,0,0-4.23-.62,9.73,9.73,0,0,0-8.57,4.26q-2.93,4.26-2.93,12.65v3.22q0,8.38,3.18,12.67t9.33,4.28a20.19,20.19,0,0,0,3.44-.26,14.49,14.49,0,0,0,2.51-.64,8.47,8.47,0,0,0,1.74-.84,7.33,7.33,0,0,0,1.13-.9v-9.19h-10v-8.09h21Z" transform="translate(-144.39 -228.94)" style="fill: #ffead7"/>
      </g>
      <g>
        <path d="M1618,714h-11l-21.38-35.07V714h-11v-53.3h11l21.41,35.14V660.69H1618Z" transform="translate(-144.39 -228.94)" style="fill: #ffead7"/>
        <path d="M1659.68,690.89h-21.08v14.28h24.75V714h-35.73v-53.3h35.65v8.89h-24.67v12.7h21.08Z" transform="translate(-144.39 -228.94)" style="fill: #ffead7"/>
        <path d="M1711.29,698.61l7.17-37.92h10.94L1717.59,714h-11.06l-8.68-35.65L1689.18,714h-11.05l-11.82-53.3h10.94l7.21,37.85,8.79-37.85h9.3Z" transform="translate(-144.39 -228.94)" style="fill: #ffead7"/>
        <path d="M1763,700a7.35,7.35,0,0,0-.4-2.51,4.87,4.87,0,0,0-1.56-2.07,14.3,14.3,0,0,0-3.18-1.87,50.7,50.7,0,0,0-5.25-1.94,64.45,64.45,0,0,1-6.9-2.63,25.44,25.44,0,0,1-5.67-3.46,15.4,15.4,0,0,1-3.84-4.59,12.54,12.54,0,0,1-1.41-6.08,12.94,12.94,0,0,1,1.45-6.1,13.73,13.73,0,0,1,4.06-4.7,20,20,0,0,1,6.22-3,27.54,27.54,0,0,1,7.92-1.08,25,25,0,0,1,8.05,1.23,18.5,18.5,0,0,1,6.19,3.42,15.17,15.17,0,0,1,4,5.22,15.61,15.61,0,0,1,1.39,6.61h-11a8.86,8.86,0,0,0-.53-3.11,6.32,6.32,0,0,0-1.63-2.45,7.58,7.58,0,0,0-2.75-1.59,11.92,11.92,0,0,0-3.88-.57,13.21,13.21,0,0,0-3.75.48,7.66,7.66,0,0,0-2.63,1.32,5.56,5.56,0,0,0-1.57,2,5.64,5.64,0,0,0-.53,2.42,5.19,5.19,0,0,0,2.69,4.41,30.4,30.4,0,0,0,7.89,3.31,51.94,51.94,0,0,1,7.67,3,22.83,22.83,0,0,1,5.53,3.73,14.25,14.25,0,0,1,3.35,4.68,14.61,14.61,0,0,1,1.13,5.89,13.81,13.81,0,0,1-1.37,6.26,12.94,12.94,0,0,1-3.9,4.63,18.44,18.44,0,0,1-6.09,2.89,29.31,29.31,0,0,1-8,1,30.9,30.9,0,0,1-5.27-.46,25.31,25.31,0,0,1-5-1.41,21.85,21.85,0,0,1-4.45-2.38,16.39,16.39,0,0,1-3.57-3.37,15.19,15.19,0,0,1-2.38-4.41,16.54,16.54,0,0,1-.86-5.47h11a9.83,9.83,0,0,0,.77,4.1A7,7,0,0,0,1747,704a8.9,8.9,0,0,0,3.31,1.52,18.15,18.15,0,0,0,4.32.48,13.3,13.3,0,0,0,3.7-.46,7.59,7.59,0,0,0,2.6-1.26,5,5,0,0,0,1.52-1.92A5.86,5.86,0,0,0,1763,700Z" transform="translate(-144.39 -228.94)" style="fill: #ffead7"/>
      </g>
    </g>
    <g>
      <path d="M2528.42,1060.92c9-18.82-15.29-80.89-17.08-152.12-1.15-46.23-16.3-85.37-27-107.46a36.85,36.85,0,0,0-32.07-20.67c-1.69-.05-3.34-.08-5-.1a79.64,79.64,0,0,1-6.62-19.44c15.34.21,38.34-41.1,40.31-53.34,2.61-16.24-6.58-41.57-33-40.33-41.45,2-49.84-7-49,2.8a134.31,134.31,0,0,0,4,20.92c-.34.48-.66,1-1,1.46-5.57,8.78-16.7,58.72-5,63.71,0,0,2.18.78,5.69,1.69-.08,1-.57,7.65-.37,18.77,0,1.92.1,4,.19,6.18-15.66,1.25-39.48,4.63-49.36,13.8-1.14,1.06-2.92,2.61-5.2,4.53-20.85-15.59-54.26-41.24-54.26-41.24s-1.75-1-4.6.21c-.11-4.65-.8-15.44-4.89-18.17-5.26-3.5-19.84-3.5-18.51,2.1,1.07,4.48,11.35,18.58,15.44,24.07a23.42,23.42,0,0,0-2.17,5s20.3,27.46,41.33,50.34c-23.31,18.32-50.39,38.64-53.11,38.18-4.48-.75-49.89-91.39-49.89-91.39s-1.45.12-3.66.46c-.33-7.46-1.2-17.59-3.43-21.71-3.73-6.88-12.29-15.47-17.16-12.72s-6.37,25.78-4.87,29.91c.73,2,3.76,6.77,6.66,11.08a10.79,10.79,0,0,0-3.66,4.56s21.11,113.17,66.67,137.77c0,0,44.39-8.42,86.22-23.92.09,23.3.72,48.36,1.71,71.88,2.09,49.8,5.75,92.64,8.94,96.92a7.85,7.85,0,0,0,3.61,2c5,47.24,39,372,31.65,441.57a8.72,8.72,0,0,0,.94.6c-5.65,14.38-25.63,21-37.34,22.91-8.37,1.36-11.16,5.88-12.08,8.75h79.17c4.2-3.59,3-20.36,2.4-27l.88,0s20-93.42,30.83-166.91q1.58,9.44,3.09,18.69c10.46,64.06,18.09,119.86,17.77,144.61a8.66,8.66,0,0,0,.9.47c-6.38,13.38-25.4,19.63-36.71,21.47-8.37,1.36-11.16,5.88-12.09,8.75h79.17c4.55-3.9,2.81-23.3,2.26-28.49l.77-.11s30.53-211.24,13.07-253.65c-1.85-4.5-2.91-14.61-3.42-28-1.9-50.82,4.24-148.91,5.38-166.56A7.14,7.14,0,0,0,2528.42,1060.92Z" transform="translate(-144.39 -228.94)" style="fill: #efcbab"/>
      <g>
        <rect x="2043.24" y="425.56" width="101.5" height="95.33" style="fill: #f5cfa6"/>
        <rect x="1952.68" y="432.48" width="80.43" height="85.16" style="fill: #f5cfa6"/>
        <rect x="2070.57" y="425.56" width="101.5" height="95.33" style="fill: #f8dcbe"/>
        <rect x="1964.6" y="443.12" width="78.64" height="63.88" style="fill: #f8dcbe"/>
        <path d="M2365.49,1539l-121.72-511,.15-1.3a4.48,4.48,0,0,0-1.34-3.69V749.82h-8.41v274a4.07,4.07,0,0,0-.24.48,4.68,4.68,0,0,0-.75,2.89L2111.25,1539a.81.81,0,0,0,.79,1h1a1.33,1.33,0,0,0,1.29-1l113-447-44,447.11a.8.8,0,0,0,.92.86l.94-.13a1.33,1.33,0,0,0,1.14-1.15l54.3-482L2362.45,1539a1.33,1.33,0,0,0,1.29,1h1A.82.82,0,0,0,2365.49,1539Z" transform="translate(-144.39 -228.94)" style="fill: #efcbab"/>
        <rect x="2082" y="436.63" width="39.32" height="22.57" style="fill: #f5cfa6"/>
      </g>
    </g>
    <g>
      <rect x="385.51" y="761.86" width="89.2" height="83.77" transform="translate(715.82 1378.56) rotate(180)" style="fill: #f5cfa6"/>
      <rect x="483.6" y="767.95" width="70.68" height="74.84" transform="translate(893.5 1381.79) rotate(180)" style="fill: #f5cfa6"/>
      <rect x="361.48" y="761.86" width="89.2" height="83.77" transform="translate(667.77 1378.56) rotate(180)" style="fill: #f8dcbe"/>
      <rect x="474.7" y="777.3" width="69.11" height="56.13" transform="translate(874.13 1381.79) rotate(180)" style="fill: #f8dcbe"/>
      <path d="M541.82,1539.14l-107.15-449.8a4.1,4.1,0,0,0-.65-2.5,3.45,3.45,0,0,0-.22-.44V845.63h-7.39v240.08a3.92,3.92,0,0,0-1.17,3.22l.13,1.14-107,449.06a.72.72,0,0,0,.7.88h.84a1.17,1.17,0,0,0,1.14-.88L428.2,1115.25l47.72,423.63a1.17,1.17,0,0,0,1,1l.83.12a.7.7,0,0,0,.81-.75l-38.69-392.92,99.28,392.8a1.17,1.17,0,0,0,1.14.88h.84A.72.72,0,0,0,541.82,1539.14Z" transform="translate(-144.39 -228.94)" style="fill: #efcbab"/>
      <rect x="406.08" y="771.6" width="34.55" height="19.83" transform="translate(702.33 1334.08) rotate(180)" style="fill: #f5cfa6"/>
    </g>
    <path d="M2536.3,469.11,2030.56,613.49l-6.33-3.28,509.59-144.64Q2535.07,467.34,2536.3,469.11Z" transform="translate(-144.39 -228.94)" style="fill: #efcbab"/>
    <g>
      <path d="M1329.05,1106.7s17.34-9.07,22.66-7.6,26.84,10.06,29.54,14c4.21,6.09,11.74,15.84,6.88,16.34s-47.15-1.35-52-2.22S1320.5,1120.53,1329.05,1106.7Z" transform="translate(-144.39 -228.94)" style="fill: #ea9e6a"/>
      <path d="M1343.84,1100.75c-9.84-6.05-99.22-20.23-106.55-23.84s-54.4-117-63.77-124.17h0v-.33s-49.94-36.12-162.46-.73c0,0-7.21,44.43-6.55,92.52.77,56.39,12.35,117.82,59.06,118.44,2.11,0,4.18,0,6.21,0,81.48.13,103.93-19.74,103.93-19.74l-.07-64.19.22.3,0,0c17.81,23.94,35.88,43.75,40.45,45.62,8.92,3.63,104.88,6.6,121.61.5S1343.84,1100.75,1343.84,1100.75Z" transform="translate(-144.39 -228.94)" style="fill: #2b478b"/>
      <path d="M1117.8,941l-.58,5.9s-.1,18.62-23.09,19.21-39.31-10.9-37.37-25.1c3.07-10.85,6-18.22,7-27.33a64.66,64.66,0,0,0,.22-11.14l44.15,3.2,12.78,3.32Z" transform="translate(-144.39 -228.94)" style="fill: #ea9e6a"/>
      <path d="M1120.93,909.05,1117.8,941a37.44,37.44,0,0,1-16.21,2c-20.26-1.87-37.35-36.36-37.6-40.49Z" transform="translate(-144.39 -228.94)" style="fill: #d88d59"/>
      <path d="M1122.06,924.81s-57.5,6.18-60.8-29.69-12.94-59.23,23.63-64.69,45,7.57,49,19.27S1136.93,922.28,1122.06,924.81Z" transform="translate(-144.39 -228.94)" style="fill: #ea9e6a"/>
      <path d="M1147.29,824.53a118.79,118.79,0,0,1-33.45-12.46c-14.46-7.95-34.14-2.49-40.61.19a9.22,9.22,0,0,1,1.85-3.57s-3,1.71-3.62,4.42c-.3.18-.45.32-.38.37s-3.09-.87-5.19-.14c0,0,1.43-.07,1.85.88a.87.87,0,0,0,.2.27c-24.56,9.18-30.17,46.13-23.4,55.43,8.14,11.18,16.9,35.48,16.9,35.48s4.49-5.13,3.67-14.39,7-8.53,17.36-11.74,3.11-15.57,12.45-21.79,40.81.86,40.89-4.56C1148,849.7,1147.17,825.74,1147.29,824.53Z" transform="translate(-144.39 -228.94)" style="fill: #233862"/>
      <path d="M1069.76,1162.67c-2,0-4.1,0-6.21,0-46.71-.62-58.3-62-59.06-118.44C1009.83,1047.48,1082.19,1093.31,1069.76,1162.67Z" transform="translate(-144.39 -228.94)" style="fill: #233862"/>
      <path d="M1033.54,1106.7s17.34-9.07,22.66-7.6,26.84,10.06,29.54,14c4.21,6.09,11.74,15.84,6.88,16.34s-47.15-1.35-52-2.22S1025,1120.53,1033.54,1106.7Z" transform="translate(-144.39 -228.94)" style="fill: #ea9e6a"/>
      <path d="M1031.5,947s-34.84,4.43-53.77,22.44c-17.21,16.37-70.37,99.2-85.7,129.35-2.44,4.8,2.09,16.18,6.27,19.57,10.48,8.49,33,16.06,90.81,12l51.6-2.63s5.87-22.51-4.75-28.32l-82.32-8.9s51.81-44.42,62.25-57.61S1031.5,947,1031.5,947Z" transform="translate(-144.39 -228.94)" style="fill: #2b478b"/>
      <path d="M1335.92,1125.16c-16.73,6.1-112.69,3.13-121.61-.5-4.57-1.86-22.64-21.68-40.45-45.62,1,.23,31.68,7.87,49.32,26.87,0,0,10.36,6,40,6.15S1330.7,1114.91,1335.92,1125.16Z" transform="translate(-144.39 -228.94)" style="fill: #233862"/>
      <path d="M1037.47,944.35s-36.45,4.62-49.1,13.4-10.63,11.68-10.63,11.68,3.86,7.26,22.72,1.46,44-18.39,44-18.39S1044.42,945.2,1037.47,944.35Z" transform="translate(-144.39 -228.94)" style="fill: #ee9849"/>
      <path d="M1125,937.39s1.66,5.39,4.85,6.4,34.73,12.77,39.21,10.69-6.44-13.33-23.43-15.66S1125,937.39,1125,937.39Z" transform="translate(-144.39 -228.94)" style="fill: #ee9849"/>
    </g>
    <g>
      <path d="M1703.07,829.83c-15.84-10.83-25.25-3-28.77,1.25-23.36-14-51.81,29.19-51.81,29.19l56.63,59.84s3.33-10.9,9.64-8.32,15.11-5.87,18.16-19.27h0S1727.46,846.51,1703.07,829.83Z" transform="translate(-144.39 -228.94)" style="fill: #2c3a64"/>
      <path d="M1461.74,1117.91c4.68,5.4,20.91-8.85,23.13-10.73a1.3,1.3,0,0,1,.25-.28l-2.7-12.51s-18.37-3.17-21.84-.52S1456.59,1112.13,1461.74,1117.91Z" transform="translate(-144.39 -228.94)" style="fill: #ed985f"/>
      <path d="M1641.13,1009.38a56.72,56.72,0,0,1-.85,6.87c-1.81,10.45-8.77,22.92-18,35.19a17.48,17.48,0,0,1-1.26,1.7c-17.61,23.1-42.88,45.17-57.33,51.56a34.18,34.18,0,0,1-7.1,2.09c-11.21,2.23-28.62,2.34-43.68,1.84-12.52-.32-23.52-1.17-28.05-1.45-1.44-.09-2.26-.2-2.26-.2l-.19-12.59s10.74-2.72,24-6.56c11.73-3.44,25.42-7.72,35.24-11.58,5.67-2.22,10-4.3,12.06-6,12.77-10.86,31.65-50.51,47.84-76.19q2.2-3.6,4.34-6.89a2.61,2.61,0,0,1,.51-.67c.76-1,1.4-2,2-2.84,0-.11.13-.2.24-.28a86.4,86.4,0,0,1,9-10c2.92-2.24,5.53-2.94,7.72-1.67a35.69,35.69,0,0,1,8.59,9.56,8,8,0,0,1,1.2,1.93,42.83,42.83,0,0,1,5.54,16.1A49.75,49.75,0,0,1,1641.13,1009.38Z" transform="translate(-144.39 -228.94)" style="fill: #ffb27d"/>
      <path d="M1760.52,1150.79c-2.42,15.63-137.37,18.63-132.25,1.78,0,0-7.12-98.4-14.77-122.95-.27-.9-.51-1.76-.72-2.66-5.46-23.54,15-44.34,5-52.88.56-.46,0-.73,0-.73s5.88-5.48,25-10.17c0,0,1.52-.43,4.06-1.08,1.39-1.87,1-9.25.13-16.94-1.13-9.85-3.06-20.23-3.06-20.23l32.49-10.3,1.94-.6c2.45,22.72,10,37.11,14.83,40.51,2.64,0,5.81.14,8.84.37,0,0,12.62,0,23.27,2.9a35.46,35.46,0,0,1,8.07,3.18s-1.76,2.8-3.87,7.08a81.77,81.77,0,0,0-5,12.6c-.29,1-.56,2-.8,3a41.29,41.29,0,0,0-1,6.42c-.2,2.82.91,5.5,2.89,8.22a59.59,59.59,0,0,0,7.25,7.83c1.9,1.8,3.94,3.7,6,5.73h0c-1.48,12.68-5.15,33.39-5.76,55.92a38.56,38.56,0,0,0,6.6,22.46C1749.77,1105.27,1767.39,1134.79,1760.52,1150.79Z" transform="translate(-144.39 -228.94)" style="fill: #ffb27d"/>
      <path d="M1643.84,924.94s1.93,10.37,3.05,20.22c18.54-2.61,26.47-20.67,29.44-30.53Z" transform="translate(-144.39 -228.94)" style="fill: #ed985f"/>
      <path d="M1638.68,935s44.08-4.2,41-31.61.6-46.41-27.67-44.89-32.57,12.59-33.78,22S1627.13,935.35,1638.68,935Z" transform="translate(-144.39 -228.94)" style="fill: #ffb27d"/>
      <path d="M1617.87,865.06c5.88-9,11.22-7.77,14.38-5.62,22.57-15.91,40.25,1.9,40.25,1.9a52.68,52.68,0,0,0,20.59,29s-7.47,5.85-26.49,3.17c-5.81-.82-11.3-4.27-16.13-8.66a103.34,103.34,0,0,0,20.08,19.6c-23.23-7.73-35.54-37.46-36.78-40.6-2.42,2.71-7.12,8.55-8.16,13.86-1.41,7.22-.79,21.7-5,21.68C1620.58,899.41,1609.05,878.57,1617.87,865.06Z" transform="translate(-144.39 -228.94)" style="fill: #2c3a64"/>
      <polygon points="1369.39 838.91 1302.34 829.98 1361.09 925.28 1424.83 933.76 1369.39 838.91" style="fill: #cad8e5"/>
      <polygon points="1368.57 838.91 1301.51 829.98 1360.26 925.28 1424 933.76 1368.57 838.91" style="fill: #e9f3fe"/>
      <path d="M1612,1108.63c-4.46,1.9-8.93,3.74-13.23,5.47l-1.43.58c-6.14,2.5-11.95,4.74-16.76,6.59h0c-2,.16-8.15.64-14.84.63.51-.17-8-6.51-11.75-7-9.09-1.21-17.13-3-17.89-2.15-4.17,4.71,12.17,7.12,12.17,7.12-5.39,1.28-14.3.49-19.93-.23-3.43-.44-7.92-1.2-8.56,2.2-.58,3.1,1.29,7.73,4,11.38,4.22,5.77,14.07,14.44,29.54,10.58a229.85,229.85,0,0,1,28.12-4.66h0l.53,0c1.86-.12,2.93-.23,2.93-.23h0c5.86-.36,12.91-1,20.57-1.62l.1,0,3.75-.4c5.47-.58,11.13-1.24,16.74-2C1620.35,1127.36,1615.58,1117.46,1612,1108.63Z" transform="translate(-144.39 -228.94)" style="fill: #ffb27d"/>
      <path d="M1739.61,1090.29a38.56,38.56,0,0,1-6.6-22.46c0-1.28.08-2.56.14-3.83.89-21,4.22-40.13,5.63-52.08h0c-2.1-2-4.13-3.92-6-5.72a59.65,59.65,0,0,1-7.25-7.83c-2-2.73-3.09-5.41-2.89-8.22a41.28,41.28,0,0,1,1-6.42c.24-1,.51-2,.8-3,1.38-4.71,12.09-17.57,8.87-19.68-2.71-1.78-8.07-3.18-8.07-3.18s-27,22.18-56.82,25.17c-24.69,2.47-50.23-9.16-50.66-9.61a7,7,0,0,0-.58.55,47.31,47.31,0,0,0-8.43,9.48c-.11.08-.23.17-.24.28-.64.85-1.28,1.8-2,2.84a2.59,2.59,0,0,0-.51.67q-2.15,3.29-4.34,6.89c-16.2,25.67-35.07,65.33-47.84,76.19-2,1.7-6.39,3.78-12.06,6a59.16,59.16,0,0,0,4.79,17.56,33.76,33.76,0,0,0,10.13,13,34.18,34.18,0,0,0,7.1-2.09c13.81-6.1,37.47-26.51,54.9-48.45h0c1.12,7.85,2.19,16.56,3.19,25.45,1,9.17,2,18.54,2.79,27.32.61,6.54,1.17,12.75,1.64,18.34,1.28,14.85,2,25.23,2,25.23-2.52,8.3,29,11.79,61.85,11.31,33.85-.49,69.18-5.17,70.4-13.09C1767.39,1134.79,1749.77,1105.27,1739.61,1090.29Z" transform="translate(-144.39 -228.94)" style="fill: #b64c41"/>
      <path d="M1618.61,1056.25c-17.43,21.94-41.09,42.35-54.9,48.45a34.18,34.18,0,0,1-7.1,2.09,33.76,33.76,0,0,1-10.12-13c18,4,51.39-25.37,57.28-31C1609.85,1056.95,1618.23,1056.28,1618.61,1056.25Z" transform="translate(-144.39 -228.94)" style="fill: #a53f3a"/>
      <path d="M1738.78,1011.9h0c-1.4,12-4.74,31.06-5.62,52.08-7.27,24.83-23.19,73.56-43,99.89-32.88.48-64.37-3-61.85-11.31,0,0-.75-10.37-2-25.23,4.46-6.37,11.84-12.16,22.79-16.54,35.18-14.08,70.42-66.24,89.74-98.92Z" transform="translate(-144.39 -228.94)" style="fill: #a53f3a"/>
      <path d="M1660.43,1110.81c-13.44,2.57-27.52,3.38-35.84-1.8-.84-8.78-1.77-18.15-2.79-27.32,15.45-11.07,82.14-55.48,92.71-75.16C1726.46,984.3,1684.32,1106.24,1660.43,1110.81Z" transform="translate(-144.39 -228.94)" style="fill: #a53f3a"/>
      <path d="M1743.72,996.58a43.73,43.73,0,0,1-.8,5.2,109.77,109.77,0,0,1-5.22,18.1,280.52,280.52,0,0,1-16.78,37.22c-1.92,3.48-3.85,7.07-5.88,10.64-14.66,25.87-32.24,49.5-45.34,56.58a13.41,13.41,0,0,1-1.56.84c-5.43,2.5-13.19,4.68-22,6.51-11.4,2.25-24.6,3.91-36.76,5.22-7.87-6.89-10.08-16.18-10.53-22.77,14.47-5.81,30.83-12.94,42.32-19.14,6.82-3.66,12-7,14.06-9.66,3.14-4.05,6.92-10.6,11.22-18.76,2.23-4.27,4.62-8.94,7-13.91,4.2-8.16,8.49-17,12.89-25.9,8-16.18,16.37-32.4,23.93-44.79,4.88-7.76,9.46-14.12,13.49-17.83,3.19-3,6.08-4.38,8.58-3.63.39.15.69.3,1,.44C1733.31,960.93,1747.46,967,1743.72,996.58Z" transform="translate(-144.39 -228.94)" style="fill: #b64c41"/>
    </g>
    <g>
      <path d="M1816.92,1540H660.8c-30,0-53.38-25.24-58.55-56.43a79.78,79.78,0,0,1,2.53-36.73l72-232.47c16.7-53.89,60.53-89.78,109.63-89.78h867.3c36.13,0,67.9,27.93,77.88,68.47Z" transform="translate(-144.39 -228.94)" style="fill: #d8772e"/>
      <path d="M1926,1540H927.34c-39.54,0-74.3-22.58-93-56.43a117.8,117.8,0,0,1-14.44-51.22l-8.46-172.08c-3.64-73.77,52-135.69,122-135.69H1882c40,0,75.07,27.93,86.09,68.47l56.7,208.56C2043.65,1470.92,1994.35,1540,1926,1540Z" transform="translate(-144.39 -228.94)" style="fill: #f1a34f"/>
      <path d="M1926,1540H1401.54c-77.47-143.68-178.2-329.36-227.33-415.42H1882c40,0,75.07,27.93,86.09,68.47l56.7,208.56C2043.65,1470.92,1994.35,1540,1926,1540Z" transform="translate(-144.39 -228.94)" style="fill: #ec9746"/>
    </g>
    <g>
      <path d="M1926.75,672.85l-.41.31,23.43,28.76.4-.37a20.25,20.25,0,1,1-23.42-28.71Z" transform="translate(-144.39 -228.94)" style="fill: #efcbab"/>
      <polygon points="1781.95 444.22 1798.22 432.02 1801.92 429.24 1860.29 385.46 1884.36 367.41 1899.71 386.25 1877.54 406.63 1823.77 456.07 1820.36 459.2 1805.37 472.98 1781.95 444.22" style="fill: #ed9f4a;opacity: 0.2"/>
      <polygon points="1860.29 385.46 1884.36 367.41 1899.71 386.25 1877.54 406.63 1860.29 385.46" style="fill: #efcbab"/>
      <polygon points="1798.22 432.02 1801.92 429.24 1823.77 456.07 1820.36 459.2 1798.22 432.02" style="fill: #efcbab"/>
    </g>
    <g>
      <g>
        <path d="M836.8,854.4l-5.88-.06.2-19.24q0-3.07-2.26-3.09t-2.33,3l-.22,20.76a3.11,3.11,0,0,0,.61,2.19,2.88,2.88,0,0,0,2.15.69l8,.08q2.82,0,2.84-2.14T836.8,854.4Z" transform="translate(-144.39 -228.94)" style="fill: #ffead7"/>
        <path d="M844.3,832.17q-2.3,0-2.33,3L841.75,856q0,3,2.27,3t2.33-3l.22-20.87Q846.59,832.19,844.3,832.17Z" transform="translate(-144.39 -228.94)" style="fill: #ffead7"/>
        <path d="M868.07,832.34q-1.66,0-2.41,2l-6.19,17.15-.11.21-6.08-17.57Q852.55,832,851,832a2.09,2.09,0,0,0-1.59.63,2.32,2.32,0,0,0-.63,1.65,3.69,3.69,0,0,0,.31,1.44l7.88,21.65a2.42,2.42,0,0,0,2.33,1.87q1.66,0,2.44-2L869.92,836a4.29,4.29,0,0,0,.27-1.48A1.9,1.9,0,0,0,868.07,832.34Z" transform="translate(-144.39 -228.94)" style="fill: #ffead7"/>
        <path d="M883.2,854.89l-6.61-.07.08-7.27,6,.06q2.87,0,2.89-2t-2.85-2.11l-6-.06.07-6.33,6.5.07q2.87,0,2.89-2.14t-2.8-2.2L875,832.7q-2.75,0-2.78,3L872,856.32a2.85,2.85,0,0,0,.63,2.14,3.1,3.1,0,0,0,2.16.64l8.28.09q2.93,0,3-2.07T883.2,854.89Z" transform="translate(-144.39 -228.94)" style="fill: #ffead7"/>
      </g>
      <circle cx="659.27" cy="616.42" r="6.12" style="fill: #b64c41"/>
    </g>
  </g>
</svg>
